<svg width="32" height="32" viewBox="0 0 32 32" fill="none" xmlns="http://www.w3.org/2000/svg">
<g clip-path="url(#clip0_311_244)">
<path d="M3.80005 5.60001C3.80005 5.60001 3.80005 6.06667 3.93338 6.46667C4.06672 6.86667 5.73338 8.26667 6.13338 8.13334C6.53338 7.93334 6.73338 7.40001 6.73338 7.26667C6.73338 7.13334 6.13338 6.20001 6.00005 6.00001C5.80005 5.86667 3.80005 5.60001 3.80005 5.60001Z" fill="#B15512"/>
<path d="M7.06655 2.73334C7.06655 2.73334 6.46655 3.4 6.46655 3.73334C6.46655 4.06667 7.39989 6.26667 7.59989 6.8C7.79989 7.33334 8.33322 6.6 8.46655 5.86667C8.53322 5.13334 7.06655 2.73334 7.06655 2.73334Z" fill="#B15512"/>
<path d="M21.2 27.2C21.7333 27.1333 23.1333 28.3333 24.4 29.6C28.9333 26.8 32 21.8 32 16C32 7.13333 24.8667 0 16 0C12.6667 0 9.6 1 7.06667 2.73333C7.6 4.66667 8.13333 6.33333 7.8 6.46667C7.6 6.46667 6.66667 5.8 5.66667 5C5.4 4.8 4.8 4.6 4.33333 5C4.2 5.2 4 5.4 3.8 5.6C5 6.6 5.93333 7.46667 5.86667 7.6C5.8 7.73333 4.73333 7.4 3.6 7C3.4 6.93333 2.73333 6.93333 2.33333 7.66667C1 10.1333 0 12.9333 0 16C0 24.8667 7.13333 32 16 32C17.5333 32 18.9333 31.8 20.3333 31.4C21 31.2 22.2667 30.8 21.9333 30.0667C21.3333 28.4667 20.8 27.2667 21.2 27.2Z" fill="#B15512"/>
<path d="M30.5332 16C30.5332 8.00001 23.9999 1.46667 15.9999 1.46667C12.7999 1.46667 9.86655 2.46668 7.53322 4.20001C7.53322 4.26668 7.53322 4.26667 7.59989 4.33334V4.40001C7.59989 4.46667 7.66655 4.60001 7.66655 4.66668V4.73334C7.66655 4.80001 7.66655 4.86667 7.73322 4.93334V5.00001C7.73322 5.06667 7.73322 5.13334 7.79989 5.20001C7.79989 5.20001 7.79989 5.20001 7.79989 5.26667C7.79989 5.33334 7.79989 5.40001 7.86655 5.46667V5.53334C7.86655 5.60001 7.86655 5.60001 7.86655 5.66668V5.73334C7.86655 5.80001 7.86655 5.86668 7.86655 5.86668C7.86655 5.93334 7.86655 5.93334 7.86655 6.00001C7.86655 6.00001 7.86655 6.00001 7.86655 6.06668C7.86655 6.13334 7.86655 6.13334 7.86655 6.13334C7.86655 6.20001 7.86655 6.20001 7.86655 6.20001V6.26667C7.86655 6.26667 7.86655 6.26667 7.79989 6.26667C7.79989 6.26667 7.73322 6.26667 7.66655 6.26667H7.59989C7.53322 6.26667 7.53322 6.26667 7.46655 6.20001C7.46655 6.20001 7.39989 6.20001 7.39989 6.13334C7.33322 6.13334 7.33322 6.06668 7.26655 6.06668L7.19989 6.00001C7.13322 6.00001 7.06655 5.93334 6.99989 5.86668L6.93322 5.80001C6.86655 5.73334 6.79989 5.66667 6.66655 5.60001C6.66655 5.60001 6.66655 5.60001 6.59989 5.60001C6.59989 5.73334 6.53322 5.66667 6.39989 5.60001C6.39989 5.60001 6.39989 5.60001 6.33322 5.53334C6.26655 5.46668 6.19989 5.46668 6.13322 5.40001C5.73322 5.73334 5.33322 6.20001 4.93322 6.60001C5.13322 6.80001 5.33322 7.00001 5.46655 7.13334C5.53322 7.20001 5.53322 7.20001 5.59989 7.26667C5.66655 7.33334 5.73322 7.40001 5.79989 7.46667V7.53334C5.79989 7.53334 5.79989 7.53334 5.79989 7.60001C5.79989 7.60001 5.79989 7.60001 5.73322 7.60001H5.66655C5.59989 7.60001 5.59989 7.60001 5.53322 7.60001C5.53322 7.60001 5.53322 7.60001 5.46655 7.60001C5.39989 7.60001 5.33322 7.60001 5.33322 7.53334C5.26655 7.53334 5.19989 7.53334 5.13322 7.46667C5.13322 7.46667 5.13322 7.46667 5.06655 7.46667C4.99989 7.46667 4.93322 7.40001 4.86655 7.40001C4.79989 7.40001 4.73322 7.33334 4.66655 7.33334C4.66655 7.33334 4.66655 7.33334 4.59989 7.33334C4.53322 7.33334 4.39989 7.26667 4.33322 7.26667C2.59989 9.73334 1.46655 12.7333 1.46655 16C1.46655 24 7.99989 30.5333 15.9999 30.5333C17.9332 30.5333 19.9999 30.1333 21.6666 29.4C21.1999 28.3333 20.9332 27.4667 21.0666 27.2667C21.0666 27.2667 21.0666 27.2667 21.1332 27.2H21.1999C21.2666 27.2 21.2666 27.2 21.3332 27.2C21.3332 27.2 21.3332 27.2 21.3999 27.2C21.4666 27.2 21.4666 27.2 21.5332 27.2667C21.5999 27.2667 21.6666 27.3333 21.7332 27.4C21.7332 27.4 21.7332 27.4 21.7999 27.4C21.8666 27.4667 21.9332 27.4667 21.9999 27.5333C21.9999 27.5333 22.0666 27.5333 22.0666 27.6C22.1332 27.6667 22.2666 27.7333 22.3332 27.8C22.3999 27.8667 22.5332 27.9333 22.5999 28C22.5999 28 22.6666 28 22.6666 28.0667C22.8666 28.2 23.0666 28.4 23.2666 28.6C27.5999 26.0667 30.5332 21.4 30.5332 16Z" fill="url(#paint0_linear_311_244)"/>
<path opacity="0.2" d="M21.4667 14.0667C20.5334 10.8667 16.6 10.1333 14 11.8667C11.6667 13.4667 8.86669 16.7333 11.2 19.6C13.0667 21.8667 16.7334 22.2667 19.2667 20.9333C19.3334 20.8667 19.4 20.8 19.4 20.7333C21.4667 19.3333 22.1334 16.4667 21.4667 14.0667ZM18.4667 20.6667C16.4 21.4667 13.8 21.1333 12.1334 19.6667C10.9334 18.6667 10.6667 16.8 11.3334 15.4667C11.8667 14.4 13.1334 13.4667 14 12.6667C16.4667 10.4 20.2667 11.6667 20.9334 14.8667C21.4667 17.0667 20.5334 19.6667 18.4667 20.6667Z" fill="#FCD077"/>
<path opacity="0.2" d="M17.9334 15.5333C17.6001 14.4 16.2001 14.1333 15.2667 14.7333C14.4001 15.3333 13.4001 16.4667 14.2667 17.4667C14.9334 18.2667 16.2667 18.4 17.1334 17.9333L17.2001 17.8667C18.0001 17.4 18.2001 16.4 17.9334 15.5333Z" fill="#FCD077"/>
<path d="M4.93322 23.9333C0.0665525 18.1333 2.86655 10.5333 7.26655 6.13333C7.19989 6.13333 7.19989 6.06666 7.13322 6.06666L7.06655 5.99999C6.99989 5.93333 6.93322 5.86666 6.79989 5.79999C6.79989 5.79999 6.79989 5.79999 6.73322 5.79999C6.59989 5.73333 6.53322 5.66666 6.39989 5.59999C6.39989 5.59999 6.39989 5.59999 6.33322 5.53333C6.26655 5.46666 6.19989 5.46666 6.13322 5.39999C5.73322 5.73333 5.33322 6.19999 4.93322 6.59999C5.13322 6.79999 5.33322 6.99999 5.46655 7.13333C5.53322 7.19999 5.53322 7.19999 5.59989 7.26666C5.66655 7.33333 5.73322 7.39999 5.79989 7.46666V7.53333C5.79989 7.53333 5.79989 7.53333 5.79989 7.59999C5.79989 7.59999 5.79989 7.59999 5.73322 7.59999H5.66655C5.59989 7.59999 5.59989 7.59999 5.53322 7.59999C5.53322 7.59999 5.53322 7.59999 5.46655 7.59999C5.39989 7.59999 5.33322 7.59999 5.33322 7.53333C5.26655 7.53333 5.19989 7.53333 5.13322 7.46666C5.13322 7.46666 5.13322 7.46666 5.06655 7.46666C4.99989 7.46666 4.93322 7.39999 4.86655 7.39999C4.79989 7.39999 4.73322 7.33333 4.66655 7.33333C4.66655 7.33333 4.66655 7.33333 4.59989 7.33333C4.53322 7.33333 4.39989 7.26666 4.33322 7.26666C2.59989 9.73333 1.46655 12.7333 1.46655 16C1.46655 24 7.99989 30.5333 15.9999 30.5333C17.9332 30.5333 19.9999 30.1333 21.6666 29.4C21.5332 29.0667 21.3999 28.7333 21.3332 28.4667C15.7332 30.1333 8.73322 28.4667 4.93322 23.9333Z" fill="url(#paint1_linear_311_244)"/>
<path d="M15.9999 1.46667C12.7999 1.46667 9.86654 2.46668 7.5332 4.20001C7.5332 4.26668 7.5332 4.26667 7.59987 4.33334V4.40001C7.59987 4.46667 7.66654 4.60001 7.66654 4.66668V4.73334C7.66654 4.80001 7.66654 4.86667 7.7332 4.93334V5.00001C7.7332 5.06667 7.7332 5.13334 7.79987 5.20001C7.79987 5.20001 7.79987 5.20001 7.79987 5.26667C7.79987 5.33334 7.79987 5.40001 7.86654 5.46667V5.53334V5.60001C8.3332 5.20001 8.7332 4.86668 9.19987 4.53334C15.1332 0.466675 26.3999 3.60001 28.5999 11.0667C30.1999 16.5333 28.7332 23.6667 24.0665 27.0667C23.9999 27.2667 23.9332 27.4 23.7332 27.5333C23.3999 27.7333 23.0665 27.8667 22.6665 28C22.8665 28.1333 23.0665 28.3333 23.2665 28.5333C27.5999 26 30.5332 21.3333 30.5332 16C30.5332 8.00001 23.9999 1.46667 15.9999 1.46667Z" fill="url(#paint2_linear_311_244)"/>
<path opacity="0.2" d="M26.3333 11.5333C24.4666 5.26668 16.8 3.86668 11.8666 7.33335C7.33331 10.4667 1.86664 16.8 6.46664 22.2667C10.1333 26.6667 17.2666 27.4 22.2 24.8667C22.4 24.8 22.4666 24.6667 22.4666 24.5333C26.4 21.6667 27.6666 16.0667 26.3333 11.5333ZM20.8 24.8C16.5333 26.4667 11.1333 25.7333 7.73331 22.7333C5.33331 20.6667 4.79998 16.8667 6.19998 14.1333C7.33331 11.9333 9.93331 10 11.7333 8.40001C16.8666 3.80001 24.6 6.40001 26.0666 12.8667C27.0666 17.3333 25 22.7333 20.8 24.8Z" fill="#FCD077"/>
<path opacity="0.1" d="M11.0667 13.1333L16.0667 8.73332C16.6001 8.26665 17.2001 8.06665 17.9334 8.13332C18.6001 8.19999 19.2667 8.46665 19.6667 8.99999C20.1334 9.53332 20.3334 10.2 20.2667 10.8667C20.2001 11.5333 19.9334 12.2 19.4001 12.6L15.4667 16L19.4001 19.4667C19.9334 19.9333 20.2001 20.5333 20.2667 21.2C20.3334 21.8667 20.0667 22.5333 19.6667 23.0667C19.2001 23.6 18.4667 23.9333 17.7334 23.9333C17.1334 23.9333 16.5334 23.7333 16.0667 23.2667L11.0667 18.8667C10.2667 18.1333 9.7334 17.0667 9.7334 16C9.7334 14.8667 10.2001 13.8667 11.0667 13.1333Z" fill="#D49649"/>
<path opacity="0.25" d="M11.2 13.3333L16.2 8.93333C16.6667 8.53333 17.2667 8.33333 17.8667 8.39999C18.4667 8.46666 19 8.73333 19.4 9.13333C19.8 9.59999 20 10.2 19.9333 10.8C19.8667 11.4 19.6 11.9333 19.2 12.3333L15.0667 16L19.2667 19.6667C19.7333 20.0667 20 20.6 20 21.2C20.0667 21.8 19.8667 22.4 19.4667 22.8667C19.0667 23.3333 18.4 23.6667 17.7333 23.6667C17.2 23.6667 16.6667 23.4667 16.2667 23.1333L11.2 18.6667C10.4 18 10 17 10 16C10 15 10.4667 14 11.2 13.3333Z" fill="#D49649"/>
<path opacity="0.4" d="M11.5335 13.6667L16.5335 9.26665C16.9335 8.93332 17.3335 8.79999 17.8668 8.79999C18.3335 8.79999 18.8001 9.06665 19.1335 9.39999C19.4668 9.79999 19.6001 10.2667 19.6001 10.7333C19.6001 11.2 19.3335 11.6667 19.0001 12L14.4668 16L19.0001 20C19.4001 20.3333 19.6001 20.7333 19.6001 21.2667C19.6001 21.7333 19.4668 22.2 19.1335 22.6C18.8001 23 18.2668 23.2 17.7335 23.2C17.2668 23.2 16.8668 23.0667 16.5335 22.7333L11.6001 18.4L11.5335 18.3333C10.8668 17.7333 10.4668 16.8667 10.4668 16C10.4668 15.1333 10.8668 14.2667 11.5335 13.6667Z" fill="#D49649"/>
<path d="M11.6001 18.2667C10.2668 17.0667 10.2668 15 11.6001 13.8L16.6001 9.4C17.2668 8.8 18.3334 8.86666 19.0001 9.53333C19.6001 10.2 19.5334 11.2667 18.8668 11.9333L14.2001 16.0667L18.8668 20.2C19.5334 20.8 19.6668 21.8667 19.0001 22.6C18.6668 23 18.2001 23.2 17.7334 23.2C17.3334 23.2 16.9334 23.0667 16.6001 22.8L11.6001 18.2667Z" fill="#B15512"/>
<g style="mix-blend-mode:screen" opacity="0.5">
<path d="M13.0668 16.1333C13.0668 16.1333 17.7334 12.1333 18.0001 11.8666C18.4668 11.4 19.0001 10.8666 18.5334 10.1333C18.2001 9.59997 17.5334 9.66664 16.8668 10.2666C16.8668 10.2666 12.3334 14.5333 11.9334 14.7333C11.5334 14.9333 11.4668 15.6 11.8001 15.9333C12.3334 16.4666 13.0668 16.1333 13.0668 16.1333Z" fill="url(#paint3_linear_311_244)"/>
</g>
<path opacity="0.3" d="M11.6001 18.2667L16.6001 22.6667C16.9334 22.9333 17.3334 23.0667 17.7334 23.0667C18.0001 23.0667 18.2001 23 18.4001 22.9333C18.6001 22.8667 18.8001 22.6667 19.0001 22.5333C19.6001 21.8667 19.5334 20.8 18.8668 20.1333L14.2001 16L18.8668 11.8667C19.5334 11.2667 19.6668 10.2 19.0001 9.46665C18.4001 8.79999 17.3334 8.66665 16.6001 9.33332L11.6001 13.7333C10.2668 14.9333 10.2668 17.0667 11.6001 18.2667ZM11.8001 17.9333C11.4001 17.4 11.2668 17 11.1334 16.6C11.0001 16.0667 10.9334 15.2 11.5334 14.5333L16.3334 10.3333C17.3334 9.39999 18.0668 9.13332 18.6668 9.79999C19.3334 10.5333 19.1334 11.3333 18.2668 12.1333C18.2668 12.1333 13.5334 16 13.5334 16.3333C13.5334 16.6 18.1334 20.2667 18.1334 20.2667C18.8001 20.8667 19.0668 21.4667 18.5334 22.1333C18.2001 22.4667 17.6001 22.8 16.5334 22.1333C16.5334 22.0667 11.8001 17.9333 11.8001 17.9333Z" fill="#B15512"/>
<path d="M13 3.86668C12.2666 3.66668 11 4.53335 10.9333 5.06668C10.8666 5.73335 11.7333 5.60001 12.7333 5.13335C13.4666 4.66668 13.4 3.93335 13 3.86668Z" fill="white"/>
<path d="M9.66661 5.86667C9.13327 5.93334 8.79994 6.33334 8.86661 6.66667C8.99994 7.13334 9.46661 7.06667 9.79994 6.66667C10.2666 6.26667 9.99994 5.86667 9.66661 5.86667Z" fill="white"/>
</g>
<defs>
<linearGradient id="paint0_linear_311_244" x1="17.1616" y1="1.23361" x2="14.7953" y2="31.3186" gradientUnits="userSpaceOnUse">
<stop offset="0.00537634" stop-color="#FFF3D2"/>
<stop offset="1" stop-color="white"/>
</linearGradient>
<linearGradient id="paint1_linear_311_244" x1="11.5888" y1="5.38126" x2="11.5888" y2="30.5067" gradientUnits="userSpaceOnUse">
<stop stop-color="#FCD077"/>
<stop offset="0.3376" stop-color="#EBB763"/>
<stop offset="0.7477" stop-color="#DA9F50"/>
<stop offset="1" stop-color="#D49649"/>
</linearGradient>
<linearGradient id="paint2_linear_311_244" x1="19.0099" y1="1.49327" x2="19.0099" y2="28.5583" gradientUnits="userSpaceOnUse">
<stop stop-color="#FCD077"/>
<stop offset="0.3376" stop-color="#EBB763"/>
<stop offset="0.7477" stop-color="#DA9F50"/>
<stop offset="1" stop-color="#D49649"/>
</linearGradient>
<linearGradient id="paint3_linear_311_244" x1="15.073" y1="11.5178" x2="15.2904" y2="15.0396" gradientUnits="userSpaceOnUse">
<stop stop-color="white"/>
<stop offset="1"/>
</linearGradient>
<clipPath id="clip0_311_244">
<rect width="32" height="32" fill="white"/>
</clipPath>
</defs>
</svg>
