<svg width="66" height="66" viewBox="0 0 66 66" fill="none" xmlns="http://www.w3.org/2000/svg">
<g clip-path="url(#clip0_311_155)">
<path d="M7.94995 11.55C7.94995 11.55 7.94995 12.6 8.24995 13.35C8.54995 14.1 11.85 17.1 12.75 16.8C13.5 16.5 14.1 15.3 14.1 15C14.1 14.7 12.75 12.75 12.6 12.3C12 12.15 7.94995 11.55 7.94995 11.55Z" fill="#B15512"/>
<path d="M14.55 5.54999C14.55 5.54999 13.2 6.89999 13.35 7.49999C13.35 8.09999 15.3 12.75 15.6 13.95C16.05 15.15 17.1 13.65 17.4 12.15C17.7 10.65 14.55 5.54999 14.55 5.54999Z" fill="#B15512"/>
<path d="M43.65 56.1C44.7 55.95 47.55 58.35 50.25 61.05C59.7 55.35 66 44.85 66 33C66 14.7 51.3 0 33 0C26.25 0 19.8 2.1 14.55 5.55C15.75 9.6 16.65 13.05 16.05 13.2C15.6 13.35 13.65 12 11.55 10.35C11.25 9.9 9.9 9.45 9 10.35C8.55 10.8 8.25 11.1 7.95 11.55C10.5 13.65 12.3 15.45 12.15 15.6C12 16.05 9.75 15.3 7.5 14.4C7.05 14.25 5.7 14.25 4.8 15.75C2.1 20.85 0 26.7 0 33C0 51.3 14.7 66 33 66C36.15 66 39.15 65.55 42 64.8C43.35 64.35 45.9 63.6 45.3 62.1C43.95 58.8 42.9 56.25 43.65 56.1Z" fill="#B15512"/>
<path d="M62.85 33C62.85 16.5 49.5 3.14999 33 3.14999C26.4 3.14999 20.4 5.24999 15.45 8.84999C15.45 8.99999 15.45 8.99999 15.6 9.14999C15.6 9.14999 15.6 9.14999 15.6 9.29999C15.6 9.44999 15.75 9.59999 15.75 9.89999V10.05C15.75 10.2 15.75 10.35 15.9 10.5V10.65C15.9 10.8 15.9 10.95 16.05 11.1C16.05 11.1 16.05 11.1 16.05 11.25C16.05 11.4 16.05 11.55 16.2 11.7V11.85C16.2 12 16.2 12 16.2 12.15V12.3C16.2 12.45 16.2 12.6 16.2 12.6C16.2 12.75 16.2 12.75 16.2 12.9C16.2 12.9 16.2 12.9 16.2 13.05V13.2V13.35C16.2 13.35 16.2 13.35 16.2 13.5C16.2 13.5 16.2 13.5 16.05 13.5H15.9C15.9 13.5 15.9 13.5 15.75 13.5C15.75 13.5 15.6 13.5 15.45 13.35C15.45 13.35 15.3 13.35 15.3 13.2C15.15 13.2 15.15 13.05 15 13.05C15 13.05 14.85 13.05 14.85 12.9C14.7 12.9 14.55 12.75 14.55 12.75L14.4 12.6C14.25 12.3 14.1 12.15 13.95 12C13.65 11.85 13.35 11.7 13.2 11.55C13.2 11.55 13.2 11.55 13.05 11.55C12.9 11.4 12.75 11.25 12.6 11.1C11.85 11.85 10.95 12.75 10.2 13.65C10.65 14.1 11.1 14.4 11.4 14.7C11.55 14.85 11.55 14.85 11.7 15C11.85 15.15 12 15.3 12 15.45C12 15.45 12 15.45 12 15.6C12 15.6 12 15.6 12 15.75C12 15.75 12 15.75 11.85 15.75H11.7C11.7 15.75 11.55 15.75 11.4 15.75C11.25 15.75 11.25 15.75 11.1 15.75C10.95 15.75 10.8 15.75 10.8 15.6C10.8 15.6 10.8 15.6 10.65 15.6C10.5 15.6 10.35 15.45 10.2 15.45C10.05 15.45 9.9 15.3 9.75 15.3C9.75 15.3 9.75 15.3 9.6 15.3C9.45 15.3 9.3 15.15 9 15.15C5.25 20.1 3 26.4 3 33.15C3.15 49.5 16.5 62.85 33 62.85C37.05 62.85 41.25 62.1 44.7 60.6C43.8 58.35 43.2 56.7 43.5 56.25C43.5 56.25 43.5 56.25 43.65 56.25C43.8 56.25 43.8 56.25 43.95 56.25C43.95 56.25 43.95 56.25 44.1 56.25C44.25 56.25 44.25 56.25 44.4 56.4C44.55 56.4 44.7 56.55 44.85 56.55C44.85 56.55 44.85 56.55 45 56.55C45.15 56.7 45.3 56.7 45.45 56.85C45.45 56.85 45.45 56.85 45.6 56.85C45.75 57 45.9 57.15 46.2 57.3C46.35 57.45 46.5 57.6 46.8 57.75C46.8 57.75 46.8 57.75 46.95 57.9C47.4 58.2 47.7 58.65 48.15 58.95C56.85 53.7 62.85 44.1 62.85 33Z" fill="url(#paint0_linear_311_155)"/>
<path opacity="0.2" d="M44.25 29.1C42.3 22.5 34.2 21 28.95 24.6C24.15 27.9 18.3 34.65 23.25 40.5C27.15 45.15 34.65 45.9 39.9 43.2C40.05 43.05 40.2 42.9 40.2 42.75C44.25 39.9 45.6 33.9 44.25 29.1ZM38.1 42.6C33.75 44.25 28.35 43.5 25.05 40.5C22.65 38.4 22.05 34.65 23.55 31.95C24.75 29.7 27.3 27.75 29.1 26.25C34.2 21.6 42 24.15 43.5 30.75C44.4 35.1 42.3 40.5 38.1 42.6Z" fill="#FCD077"/>
<path opacity="0.2" d="M37.05 32.1C36.3 29.7 33.45 29.25 31.5 30.45C29.7 31.65 27.75 34.05 29.4 36.15C30.75 37.8 33.45 38.1 35.4 37.2L35.55 37.05C37.05 35.85 37.5 33.75 37.05 32.1Z" fill="#FCD077"/>
<path d="M10.2 49.35C0.150001 37.5 5.85 21.75 15 12.75C14.85 12.75 14.85 12.6 14.7 12.6L14.55 12.45C14.25 12.3 14.1 12.15 13.95 12C13.65 11.85 13.35 11.7 13.2 11.55C13.2 11.55 13.2 11.55 13.05 11.55C12.9 11.4 12.75 11.25 12.6 11.1C11.85 11.85 10.95 12.75 10.2 13.65C10.65 14.1 11.1 14.4 11.4 14.7C11.55 14.85 11.55 14.85 11.7 15C11.85 15.15 12 15.3 12 15.45C12 15.45 12 15.45 12 15.6C12 15.6 12 15.6 12 15.75C12 15.75 12 15.75 11.85 15.75H11.7C11.7 15.75 11.55 15.75 11.4 15.75C11.25 15.75 11.25 15.75 11.1 15.75C10.95 15.75 10.8 15.75 10.8 15.6C10.8 15.6 10.8 15.6 10.65 15.6C10.5 15.6 10.35 15.45 10.2 15.45C10.05 15.45 9.9 15.3 9.75 15.3C9.75 15.3 9.75 15.3 9.6 15.3C9.45 15.3 9.3 15.15 9 15.15C5.25 20.1 3 26.4 3 33.15C3.15 49.5 16.5 62.85 33 62.85C37.05 62.85 41.25 62.1 44.7 60.6C44.4 59.85 44.1 59.25 43.95 58.65C32.4 62.1 18 58.8 10.2 49.35Z" fill="url(#paint1_linear_311_155)"/>
<path d="M33 3.14999C26.4 3.14999 20.4 5.24999 15.45 8.84999C15.45 8.99999 15.45 8.99999 15.6 9.14999C15.6 9.14999 15.6 9.14999 15.6 9.29999C15.6 9.44999 15.75 9.59999 15.75 9.89999V10.05C15.75 10.2 15.75 10.35 15.9 10.5V10.65C15.9 10.8 15.9 10.95 16.05 11.1C16.05 11.1 16.05 11.1 16.05 11.25C16.05 11.4 16.05 11.55 16.2 11.7V11.85V12C17.1 11.25 18 10.5 18.9 9.89999C31.05 1.49999 54.4499 7.94999 58.9499 23.4C62.2499 34.65 59.2499 49.35 49.6499 56.4C49.6499 56.7 49.3499 57.15 48.8999 57.3C48.1499 57.6 47.3999 58.05 46.6499 58.35C47.0999 58.65 47.3999 59.1 47.8499 59.4C56.8499 54.3 62.85 44.55 62.85 33.45C62.85 16.5 49.4999 3.14999 33 3.14999Z" fill="url(#paint2_linear_311_155)"/>
<path opacity="0.2" d="M54.2999 23.7C50.5499 10.8 34.6499 7.94999 24.4499 15C14.9999 21.6 3.74992 34.5 13.3499 45.9C20.8499 54.9 35.5499 56.4 45.7499 51.3C46.0499 51.15 46.3499 50.85 46.3499 50.55C54.4499 44.7 56.9999 33.15 54.2999 23.7ZM42.8999 51.15C34.0499 54.6 22.9499 53.1 15.8999 46.8C11.0999 42.6 9.89992 34.65 12.7499 29.1C15.1499 24.6 20.3999 20.55 24.1499 17.25C34.6499 7.64999 50.5499 13.05 53.6999 26.55C55.7999 35.7 51.5999 46.95 42.8999 51.15Z" fill="#FCD077"/>
<path opacity="0.1" d="M24.4499 50.55C19.1999 49.05 17.6999 16.05 23.5499 15.45C30.5999 14.85 51.8999 25.5 52.3499 32.4C52.6499 38.55 29.6999 52.05 24.4499 50.55Z" fill="#D49649"/>
<path opacity="0.25" d="M25.3499 49.05C20.5499 47.7 19.1999 17.4 24.4499 16.95C30.8999 16.35 50.3999 26.1 50.6999 32.55C51.1499 38.1 30.1499 50.4 25.3499 49.05Z" fill="#D49649"/>
<path opacity="0.4" d="M25.95 47.55C21.45 46.2 20.25 18.15 25.2 17.85C31.2 17.25 49.35 26.4 49.65 32.25C49.8 37.5 30.3 48.9 25.95 47.55Z" fill="#D49649"/>
<path d="M26.0999 46.5C21.7499 45.3 20.6999 18.6 25.3499 18.15C31.0499 17.7 48.2999 26.25 48.5999 31.95C48.7499 36.9 30.2999 47.7 26.0999 46.5Z" fill="#B15512"/>
<g style="mix-blend-mode:screen" opacity="0.5">
<path d="M27.2999 44.1C24.7499 43.35 23.6999 25.5 26.5499 25.2C29.9999 24.9 42.5999 30.75 42.8999 34.2C43.1999 37.2 29.8499 44.85 27.2999 44.1Z" fill="url(#paint3_linear_311_155)"/>
</g>
<path opacity="0.3" d="M48.5999 31.8C48.2999 26.1 31.0499 17.55 25.3499 18C20.6999 18.45 21.7499 45.15 26.0999 46.35C30.2999 47.7 48.7499 36.9 48.5999 31.8ZM26.3999 45.9C24.7499 45.45 23.3999 40.35 22.9499 34.35C22.4999 28.05 23.2499 20.1 24.7499 19.8C31.4999 18.75 46.9499 28.8 47.0999 32.4C47.0999 34.35 42.7499 37.8 38.5499 40.65C33.7499 43.8 28.1999 46.35 26.3999 45.9Z" fill="#B15512"/>
<path d="M26.8501 7.95C25.3501 7.65 22.6501 9.3 22.6501 10.35C22.5001 11.7 24.3001 11.4 26.2501 10.5C27.7501 9.6 27.7501 8.1 26.8501 7.95Z" fill="white"/>
<path d="M19.9501 12.15C18.9001 12.3 18.1501 13.05 18.3001 13.8C18.4501 14.7 19.5001 14.55 20.2501 13.8C21.1501 12.9 20.7001 12 19.9501 12.15Z" fill="white"/>
</g>
<defs>
<linearGradient id="paint0_linear_311_155" x1="35.3959" y1="2.54429" x2="30.5155" y2="64.5946" gradientUnits="userSpaceOnUse">
<stop offset="0.00537634" stop-color="#FFF3D2"/>
<stop offset="1" stop-color="white"/>
</linearGradient>
<linearGradient id="paint1_linear_311_155" x1="23.902" y1="11.0988" x2="23.902" y2="62.9202" gradientUnits="userSpaceOnUse">
<stop stop-color="#FCD077"/>
<stop offset="0.3376" stop-color="#EBB763"/>
<stop offset="0.7477" stop-color="#DA9F50"/>
<stop offset="1" stop-color="#D49649"/>
</linearGradient>
<linearGradient id="paint2_linear_311_155" x1="39.2083" y1="3.07979" x2="39.2083" y2="58.9015" gradientUnits="userSpaceOnUse">
<stop stop-color="#FCD077"/>
<stop offset="0.3376" stop-color="#EBB763"/>
<stop offset="0.7477" stop-color="#DA9F50"/>
<stop offset="1" stop-color="#D49649"/>
</linearGradient>
<linearGradient id="paint3_linear_311_155" x1="27.4924" y1="41.5938" x2="33.9623" y2="31.0065" gradientUnits="userSpaceOnUse">
<stop stop-color="white"/>
<stop offset="1"/>
</linearGradient>
<clipPath id="clip0_311_155">
<rect width="66" height="66" fill="white"/>
</clipPath>
</defs>
</svg>
