<svg width="32" height="32" viewBox="0 0 32 32" fill="none" xmlns="http://www.w3.org/2000/svg">
<g clip-path="url(#clip0_311_268)">
<path d="M3.80005 5.60001C3.80005 5.60001 3.80005 6.06667 3.93338 6.46667C4.06672 6.86667 5.73338 8.26667 6.13338 8.13334C6.53338 7.93334 6.73338 7.40001 6.73338 7.26667C6.73338 7.13334 6.13338 6.20001 6.00005 6.00001C5.80005 5.86667 3.80005 5.60001 3.80005 5.60001Z" fill="#B15512"/>
<path d="M7.06655 2.73334C7.06655 2.73334 6.46655 3.4 6.46655 3.73334C6.46655 4.06667 7.39989 6.26667 7.59989 6.8C7.79989 7.33334 8.33322 6.6 8.46655 5.86667C8.53322 5.13334 7.06655 2.73334 7.06655 2.73334Z" fill="#B15512"/>
<path d="M21.2 27.2C21.7333 27.1333 23.1333 28.3333 24.4 29.6C28.9333 26.8 32 21.8 32 16C32 7.13333 24.8667 0 16 0C12.6667 0 9.6 1 7.06667 2.73333C7.6 4.66667 8.13333 6.33333 7.8 6.46667C7.6 6.46667 6.66667 5.8 5.66667 5C5.4 4.8 4.8 4.6 4.33333 5C4.2 5.2 4 5.4 3.8 5.6C5 6.6 5.93333 7.46667 5.86667 7.6C5.8 7.73333 4.73333 7.4 3.6 7C3.4 6.93333 2.73333 6.93333 2.33333 7.66667C1 10.1333 0 12.9333 0 16C0 24.8667 7.13333 32 16 32C17.5333 32 18.9333 31.8 20.3333 31.4C21 31.2 22.2667 30.8 21.9333 30.0667C21.3333 28.4667 20.8 27.2667 21.2 27.2Z" fill="#B15512"/>
<path d="M30.5332 16C30.5332 8.00001 23.9999 1.46667 15.9999 1.46667C12.7999 1.46667 9.86655 2.46668 7.53322 4.20001C7.53322 4.26668 7.53322 4.26667 7.59989 4.33334V4.40001C7.59989 4.46667 7.66655 4.60001 7.66655 4.66668V4.73334C7.66655 4.80001 7.66655 4.86667 7.73322 4.93334V5.00001C7.73322 5.06667 7.73322 5.13334 7.79989 5.20001C7.79989 5.20001 7.79989 5.20001 7.79989 5.26667C7.79989 5.33334 7.79989 5.40001 7.86655 5.46667V5.53334C7.86655 5.60001 7.86655 5.60001 7.86655 5.66668V5.73334C7.86655 5.80001 7.86655 5.86668 7.86655 5.86668C7.86655 5.93334 7.86655 5.93334 7.86655 6.00001C7.86655 6.00001 7.86655 6.00001 7.86655 6.06668C7.86655 6.13334 7.86655 6.13334 7.86655 6.13334C7.86655 6.20001 7.86655 6.20001 7.86655 6.20001V6.26667C7.86655 6.26667 7.86655 6.26667 7.79989 6.26667C7.79989 6.26667 7.73322 6.26667 7.66655 6.26667H7.59989C7.53322 6.26667 7.53322 6.26667 7.46655 6.20001C7.46655 6.20001 7.39989 6.20001 7.39989 6.13334C7.33322 6.13334 7.33322 6.06668 7.26655 6.06668L7.19989 6.00001C7.13322 6.00001 7.06655 5.93334 6.99989 5.86668L6.93322 5.80001C6.86655 5.73334 6.79989 5.66667 6.66655 5.60001C6.66655 5.60001 6.66655 5.60001 6.59989 5.60001C6.59989 5.73334 6.53322 5.66667 6.39989 5.60001C6.39989 5.60001 6.39989 5.60001 6.33322 5.53334C6.26655 5.46668 6.19989 5.46668 6.13322 5.40001C5.73322 5.73334 5.33322 6.20001 4.93322 6.60001C5.13322 6.80001 5.33322 7.00001 5.46655 7.13334C5.53322 7.20001 5.53322 7.20001 5.59989 7.26667C5.66655 7.33334 5.73322 7.40001 5.79989 7.46667V7.53334C5.79989 7.53334 5.79989 7.53334 5.79989 7.60001C5.79989 7.60001 5.79989 7.60001 5.73322 7.60001H5.66655C5.59989 7.60001 5.59989 7.60001 5.53322 7.60001C5.53322 7.60001 5.53322 7.60001 5.46655 7.60001C5.39989 7.60001 5.33322 7.60001 5.33322 7.53334C5.26655 7.53334 5.19989 7.53334 5.13322 7.46667C5.13322 7.46667 5.13322 7.46667 5.06655 7.46667C4.99989 7.46667 4.93322 7.40001 4.86655 7.40001C4.79989 7.40001 4.73322 7.33334 4.66655 7.33334C4.66655 7.33334 4.66655 7.33334 4.59989 7.33334C4.53322 7.33334 4.39989 7.26667 4.33322 7.26667C2.59989 9.73334 1.46655 12.7333 1.46655 16C1.46655 24 7.99989 30.5333 15.9999 30.5333C17.9332 30.5333 19.9999 30.1333 21.6666 29.4C21.1999 28.3333 20.9332 27.4667 21.0666 27.2667C21.0666 27.2667 21.0666 27.2667 21.1332 27.2H21.1999C21.2666 27.2 21.2666 27.2 21.3332 27.2C21.3332 27.2 21.3332 27.2 21.3999 27.2C21.4666 27.2 21.4666 27.2 21.5332 27.2667C21.5999 27.2667 21.6666 27.3333 21.7332 27.4C21.7332 27.4 21.7332 27.4 21.7999 27.4C21.8666 27.4667 21.9332 27.4667 21.9999 27.5333C21.9999 27.5333 22.0666 27.5333 22.0666 27.6C22.1332 27.6667 22.2666 27.7333 22.3332 27.8C22.3999 27.8667 22.5332 27.9333 22.5999 28C22.5999 28 22.6666 28 22.6666 28.0667C22.8666 28.2 23.0666 28.4 23.2666 28.6C27.5999 26.0667 30.5332 21.4 30.5332 16Z" fill="url(#paint0_linear_311_268)"/>
<path opacity="0.2" d="M21.4667 14.0667C20.5334 10.8667 16.6 10.1333 14 11.8667C11.6667 13.4667 8.86669 16.7333 11.2 19.6C13.0667 21.8667 16.7334 22.2667 19.2667 20.9333C19.3334 20.8667 19.4 20.8 19.4 20.7333C21.4667 19.3333 22.1334 16.4667 21.4667 14.0667ZM18.4667 20.6667C16.4 21.4667 13.8 21.1333 12.1334 19.6667C10.9334 18.6667 10.6667 16.8 11.3334 15.4667C11.8667 14.4 13.1334 13.4667 14 12.6667C16.4667 10.4 20.2667 11.6667 20.9334 14.8667C21.4667 17.0667 20.5334 19.6667 18.4667 20.6667Z" fill="#FCD077"/>
<path opacity="0.2" d="M17.9334 15.5333C17.6001 14.4 16.2001 14.1333 15.2667 14.7333C14.4001 15.3333 13.4001 16.4667 14.2667 17.4667C14.9334 18.2667 16.2667 18.4 17.1334 17.9333L17.2001 17.8667C18.0001 17.4 18.2001 16.4 17.9334 15.5333Z" fill="#FCD077"/>
<path d="M4.93322 23.9333C0.0665525 18.1333 2.86655 10.5333 7.26655 6.13333C7.19989 6.13333 7.19989 6.06666 7.13322 6.06666L7.06655 5.99999C6.99989 5.93333 6.93322 5.86666 6.79989 5.79999C6.79989 5.79999 6.79989 5.79999 6.73322 5.79999C6.59989 5.73333 6.53322 5.66666 6.39989 5.59999C6.39989 5.59999 6.39989 5.59999 6.33322 5.53333C6.26655 5.46666 6.19989 5.46666 6.13322 5.39999C5.73322 5.73333 5.33322 6.19999 4.93322 6.59999C5.13322 6.79999 5.33322 6.99999 5.46655 7.13333C5.53322 7.19999 5.53322 7.19999 5.59989 7.26666C5.66655 7.33333 5.73322 7.39999 5.79989 7.46666V7.53333C5.79989 7.53333 5.79989 7.53333 5.79989 7.59999C5.79989 7.59999 5.79989 7.59999 5.73322 7.59999H5.66655C5.59989 7.59999 5.59989 7.59999 5.53322 7.59999C5.53322 7.59999 5.53322 7.59999 5.46655 7.59999C5.39989 7.59999 5.33322 7.59999 5.33322 7.53333C5.26655 7.53333 5.19989 7.53333 5.13322 7.46666C5.13322 7.46666 5.13322 7.46666 5.06655 7.46666C4.99989 7.46666 4.93322 7.39999 4.86655 7.39999C4.79989 7.39999 4.73322 7.33333 4.66655 7.33333C4.66655 7.33333 4.66655 7.33333 4.59989 7.33333C4.53322 7.33333 4.39989 7.26666 4.33322 7.26666C2.59989 9.73333 1.46655 12.7333 1.46655 16C1.46655 24 7.99989 30.5333 15.9999 30.5333C17.9332 30.5333 19.9999 30.1333 21.6666 29.4C21.5332 29.0667 21.3999 28.7333 21.3332 28.4667C15.7332 30.1333 8.73322 28.4667 4.93322 23.9333Z" fill="url(#paint1_linear_311_268)"/>
<path d="M15.9999 1.46667C12.7999 1.46667 9.86654 2.46668 7.5332 4.20001C7.5332 4.26668 7.5332 4.26667 7.59987 4.33334V4.40001C7.59987 4.46667 7.66654 4.60001 7.66654 4.66668V4.73334C7.66654 4.80001 7.66654 4.86667 7.7332 4.93334V5.00001C7.7332 5.06667 7.7332 5.13334 7.79987 5.20001C7.79987 5.20001 7.79987 5.20001 7.79987 5.26667C7.79987 5.33334 7.79987 5.40001 7.86654 5.46667V5.53334V5.60001C8.3332 5.20001 8.7332 4.86668 9.19987 4.53334C15.1332 0.466675 26.3999 3.60001 28.5999 11.0667C30.1999 16.5333 28.7332 23.6667 24.0665 27.0667C23.9999 27.2667 23.9332 27.4 23.7332 27.5333C23.3999 27.7333 23.0665 27.8667 22.6665 28C22.8665 28.1333 23.0665 28.3333 23.2665 28.5333C27.5999 26 30.5332 21.3333 30.5332 16C30.5332 8.00001 23.9999 1.46667 15.9999 1.46667Z" fill="url(#paint2_linear_311_268)"/>
<path opacity="0.2" d="M26.3333 11.5333C24.4666 5.26668 16.8 3.86668 11.8666 7.33335C7.33331 10.4667 1.86664 16.8 6.46664 22.2667C10.1333 26.6667 17.2666 27.4 22.2 24.8667C22.4 24.8 22.4666 24.6667 22.4666 24.5333C26.4 21.6667 27.6666 16.0667 26.3333 11.5333ZM20.8 24.8C16.5333 26.4667 11.1333 25.7333 7.73331 22.7333C5.33331 20.6667 4.79998 16.8667 6.19998 14.1333C7.33331 11.9333 9.93331 10 11.7333 8.40001C16.8666 3.80001 24.6 6.40001 26.0666 12.8667C27.0666 17.3333 25 22.7333 20.8 24.8Z" fill="#FCD077"/>
<path opacity="0.1" d="M21.2667 22.8667C20.7334 22.8667 20.2001 22.6667 19.8001 22.3333L16.0001 19L12.2001 22.3333C11.8001 22.6667 11.2667 22.8667 10.7334 22.8667C10.0667 22.8667 9.46672 22.6 9.06672 22.0667C8.66672 21.6 8.46672 21 8.53339 20.4C8.60005 19.8 8.86672 19.2667 9.26672 18.8667L12.6001 15.9333L9.26672 13C8.80005 12.6 8.53339 12.0667 8.53339 11.4667C8.46672 10.8667 8.66672 10.2667 9.06672 9.79999C9.46672 9.33332 10.0001 9.06666 10.6001 9.06666C11.2001 8.99999 11.8001 9.19999 12.2667 9.59999L16.0667 12.9333L19.8667 9.59999C20.8001 8.79999 22.2001 8.86666 23.0667 9.79999C23.4667 10.2667 23.6667 10.8667 23.6001 11.4667C23.5334 12.0667 23.2667 12.6 22.8667 13L19.5334 15.9333L22.8667 18.8667C23.3334 19.2667 23.6001 19.8 23.6001 20.4C23.6667 21 23.4667 21.6 23.0667 22.0667C22.5334 22.6 21.9334 22.8667 21.2667 22.8667Z" fill="#D49649"/>
<path opacity="0.25" d="M21.2668 22.5333C20.8001 22.5333 20.3335 22.3333 20.0001 22.0667L16.0001 18.5333L12.0001 22.0667C11.6668 22.4 11.2001 22.5333 10.7335 22.5333C10.2001 22.5333 9.66679 22.2667 9.26679 21.8667C8.93346 21.4667 8.73346 21 8.80013 20.4667C8.86679 19.9333 9.06679 19.4667 9.46679 19.1333L13.0668 15.9333L9.46679 12.7333C9.06679 12.4 8.86679 11.9333 8.80013 11.4C8.73346 10.8667 8.93346 10.4 9.26679 10C9.60013 9.6 10.0668 9.4 10.6001 9.33333C11.1335 9.26667 11.6001 9.46667 12.0001 9.8L16.0001 13.3333L20.0001 9.8C20.8001 9.06667 22.0001 9.2 22.7335 10C23.0668 10.4 23.2668 10.8667 23.2001 11.4C23.1335 11.9333 22.9335 12.4 22.5335 12.7333L18.9335 16L22.5335 19.2C22.9335 19.5333 23.1335 20 23.2001 20.5333C23.2668 21.0667 23.0668 21.5333 22.7335 21.9333C22.3335 22.3333 21.8001 22.5333 21.2668 22.5333Z" fill="#D49649"/>
<path opacity="0.4" d="M21.2666 22.2667C20.8666 22.2667 20.4666 22.1333 20.2 21.8667L16 18.1333L11.8 21.8C11.5333 22.0667 11.1333 22.2 10.7333 22.2C10.2666 22.2 9.79997 22 9.5333 21.6667C9.26663 21.3333 9.1333 20.9333 9.1333 20.4667C9.1333 20.0667 9.3333 19.6667 9.66663 19.3333L13.5333 15.9333L9.66663 12.5333C9.3333 12.2667 9.1333 11.8667 9.1333 11.4C9.1333 11 9.26663 10.5333 9.5333 10.2C10.1333 9.53332 11.1333 9.46665 11.8 10.0667L16 13.7333L20.2 10.0667C20.8666 9.46665 21.8666 9.53332 22.4666 10.2C22.7333 10.5333 22.8666 10.9333 22.8666 11.4C22.8666 11.8 22.6666 12.2 22.3333 12.5333L18.4666 16L22.3333 19.4C22.6666 19.6667 22.8666 20.0667 22.8666 20.5333C22.8666 20.9333 22.7333 21.4 22.4666 21.7333C22.2 22.0667 21.7333 22.2667 21.2666 22.2667Z" fill="#D49649"/>
<path d="M22.2002 19.5333L18.2002 16L22.2002 12.4667C22.8002 11.9333 22.8668 11 22.3335 10.4C21.8002 9.8 20.8668 9.73333 20.2668 10.2667L16.0002 14.0667L11.6668 10.2667C11.0668 9.73333 10.1335 9.8 9.60016 10.4C9.06683 11 9.1335 11.9333 9.7335 12.4667L13.7335 16L9.7335 19.5333C9.1335 20.0667 9.06683 21 9.60016 21.6C9.86683 21.9333 10.2668 22.0667 10.6668 22.0667C11.0002 22.0667 11.3335 21.9333 11.6002 21.7333L15.9335 17.9333L20.2668 21.7333C20.5335 22 20.8668 22.0667 21.2002 22.0667C21.6002 22.0667 22.0002 21.8667 22.2668 21.6C22.8668 21 22.8002 20.0667 22.2002 19.5333Z" fill="#B15512"/>
<path opacity="0.3" d="M22.2002 19.5333L18.2002 16L22.2002 12.4667C22.8002 11.9333 22.8668 11 22.3335 10.4C21.8002 9.8 20.8668 9.73333 20.2668 10.2667L16.0002 14.0667L11.6668 10.2667C11.0668 9.73333 10.1335 9.8 9.60016 10.4C9.06683 11 9.1335 11.9333 9.7335 12.4667L13.7335 16L9.7335 19.5333C9.1335 20.0667 9.06683 21 9.60016 21.6C9.86683 21.9333 10.2668 22.0667 10.6668 22.0667C11.0002 22.0667 11.3335 21.9333 11.6002 21.7333L15.9335 17.9333L20.2668 21.7333C20.5335 22 20.8668 22.0667 21.2002 22.0667C21.6002 22.0667 22.0002 21.8667 22.2668 21.6C22.8668 21 22.8002 20.0667 22.2002 19.5333ZM21.8668 21.2C21.6002 21.5333 21.1335 21.8667 20.2668 21.2C17.2668 18.8667 16.2668 17.5333 15.9335 17.5333C15.6002 17.6 11.7335 21.2 11.7335 21.2C10.8002 21.8 10.2668 21.4667 10.0002 21.2C9.5335 20.6667 9.7335 20.0667 10.3335 19.6C10.3335 19.6 14.2668 16.4667 14.2668 16.2C14.2668 15.9333 10.2002 12.6 10.2002 12.6C9.46683 11.8667 9.26683 11.2667 9.86683 10.6C10.4002 10.0667 11.0002 10.2667 11.8668 11.0667C11.8668 11.0667 15.8002 14.7333 16.1335 14.7333C16.4668 14.7333 20.2668 10.8667 20.2668 10.8667C20.9335 10.2667 21.6002 10 22.0668 10.5333C22.5335 11.0667 22.4002 11.6667 21.6002 12.4667C21.6002 12.4667 17.4668 15.8 17.5335 16.0667C17.5335 16.3333 21.5335 19.6 21.5335 19.6C22.2002 20.2 22.3335 20.6667 21.8668 21.2Z" fill="#B15512"/>
<g style="mix-blend-mode:screen" opacity="0.5">
<path d="M14.7333 16.0666C14.7333 16.0666 10.6667 12.6 10.4667 12.4C10.0667 12 9.6 11.5333 10 10.9333C10.2667 10.4666 10.8667 10.5333 11.4 11C11.4 11 15.3333 14.6666 15.6667 14.8666C16 15.0666 16.1333 15.2 16.6 14.8666C17.0667 14.5333 20.5333 11.0666 20.7333 10.9333C20.9333 10.7333 21.5333 10.3333 21.8667 10.7333C22.2 11.0666 22.2 11.4666 21.8667 11.8666C21.5333 12.2666 17.4 15.6666 17.2667 15.9333C17.1333 16.2 18.1333 16.9333 18.3333 17.1333C18.4667 17.4 14.7333 16.0666 14.7333 16.0666Z" fill="url(#paint3_linear_311_268)"/>
</g>
<path d="M13 3.86668C12.2666 3.66668 11 4.53335 10.9333 5.06668C10.8666 5.73335 11.7333 5.60001 12.7333 5.13335C13.5333 4.66668 13.4666 3.93335 13 3.86668Z" fill="white"/>
<path d="M9.73326 5.86667C9.19992 5.93334 8.86659 6.33334 8.93326 6.66667C9.06659 7.13334 9.53326 7.06667 9.86659 6.66667C10.2666 6.26667 10.0666 5.86667 9.73326 5.86667Z" fill="white"/>
</g>
<defs>
<linearGradient id="paint0_linear_311_268" x1="17.1616" y1="1.23361" x2="14.7953" y2="31.3186" gradientUnits="userSpaceOnUse">
<stop offset="0.00537634" stop-color="#FFF3D2"/>
<stop offset="1" stop-color="white"/>
</linearGradient>
<linearGradient id="paint1_linear_311_268" x1="11.5888" y1="5.38126" x2="11.5888" y2="30.5067" gradientUnits="userSpaceOnUse">
<stop stop-color="#FCD077"/>
<stop offset="0.3376" stop-color="#EBB763"/>
<stop offset="0.7477" stop-color="#DA9F50"/>
<stop offset="1" stop-color="#D49649"/>
</linearGradient>
<linearGradient id="paint2_linear_311_268" x1="19.0099" y1="1.49327" x2="19.0099" y2="28.5583" gradientUnits="userSpaceOnUse">
<stop stop-color="#FCD077"/>
<stop offset="0.3376" stop-color="#EBB763"/>
<stop offset="0.7477" stop-color="#DA9F50"/>
<stop offset="1" stop-color="#D49649"/>
</linearGradient>
<linearGradient id="paint3_linear_311_268" x1="15.9641" y1="12.0044" x2="15.7223" y2="15.9213" gradientUnits="userSpaceOnUse">
<stop stop-color="white"/>
<stop offset="1"/>
</linearGradient>
<clipPath id="clip0_311_268">
<rect width="32" height="32" fill="white"/>
</clipPath>
</defs>
</svg>
