<svg width="260" height="44" viewBox="0 0 260 44" fill="none" xmlns="http://www.w3.org/2000/svg">
<rect width="260" height="44" rx="22" fill="#CCCCCC"/>
<path d="M58.4815 28V16.5781H60.9034V26H65.5362V28H58.4815ZM67.5284 28V16.5781H69.9503V28H67.5284ZM81.7862 16.5781L77.9034 28H75.2628L71.3878 16.5781H73.8331L75.9815 23.375C76.018 23.4896 76.0779 23.7057 76.1612 24.0234C76.2446 24.3359 76.3279 24.6693 76.4112 25.0234C76.4998 25.3724 76.5597 25.6615 76.5909 25.8906C76.6222 25.6615 76.6768 25.3724 76.755 25.0234C76.8383 24.6745 76.919 24.3438 76.9972 24.0312C77.0805 23.7135 77.1404 23.4948 77.1768 23.375L79.3409 16.5781H81.7862ZM89.8097 28H83.2315V16.5781H89.8097V18.5625H85.6534V21.0703H89.5206V23.0547H85.6534V26H89.8097V28ZM103.099 24.8281C103.099 25.5052 102.935 26.0938 102.607 26.5938C102.278 27.0938 101.799 27.4792 101.169 27.75C100.544 28.0208 99.7836 28.1562 98.8878 28.1562C98.492 28.1562 98.1039 28.1302 97.7237 28.0781C97.3487 28.026 96.9867 27.9505 96.6378 27.8516C96.294 27.7474 95.9659 27.6198 95.6534 27.4688V25.2188C96.1951 25.4583 96.7576 25.6745 97.3409 25.8672C97.9242 26.0599 98.5024 26.1562 99.0753 26.1562C99.4711 26.1562 99.7888 26.1042 100.028 26C100.273 25.8958 100.45 25.7526 100.56 25.5703C100.669 25.388 100.724 25.1797 100.724 24.9453C100.724 24.6589 100.627 24.4141 100.435 24.2109C100.242 24.0078 99.9763 23.8177 99.6378 23.6406C99.3045 23.4635 98.9268 23.2734 98.505 23.0703C98.2393 22.9453 97.9503 22.7943 97.6378 22.6172C97.3253 22.4349 97.0284 22.2135 96.7472 21.9531C96.4659 21.6927 96.2341 21.3776 96.0518 21.0078C95.8748 20.6328 95.7862 20.1849 95.7862 19.6641C95.7862 18.9818 95.9425 18.3984 96.255 17.9141C96.5675 17.4297 97.0128 17.0599 97.5909 16.8047C98.1742 16.5443 98.8617 16.4141 99.6534 16.4141C100.247 16.4141 100.812 16.4844 101.349 16.625C101.89 16.7604 102.455 16.9583 103.044 17.2188L102.263 19.1016C101.737 18.888 101.265 18.724 100.849 18.6094C100.432 18.4896 100.008 18.4297 99.5753 18.4297C99.2732 18.4297 99.0154 18.4792 98.8018 18.5781C98.5883 18.6719 98.4268 18.8073 98.3175 18.9844C98.2081 19.1562 98.1534 19.3568 98.1534 19.5859C98.1534 19.8568 98.2315 20.0859 98.3878 20.2734C98.5492 20.4557 98.7888 20.6328 99.1065 20.8047C99.4295 20.9766 99.8305 21.1771 100.31 21.4062C100.893 21.6823 101.39 21.9714 101.802 22.2734C102.219 22.5703 102.539 22.9219 102.763 23.3281C102.987 23.7292 103.099 24.2292 103.099 24.8281ZM110.021 18.4297C109.557 18.4297 109.146 18.5208 108.786 18.7031C108.432 18.8802 108.133 19.138 107.888 19.4766C107.648 19.8151 107.466 20.224 107.341 20.7031C107.216 21.1823 107.153 21.7214 107.153 22.3203C107.153 23.1276 107.252 23.8177 107.45 24.3906C107.653 24.9583 107.966 25.3932 108.388 25.6953C108.81 25.9922 109.354 26.1406 110.021 26.1406C110.484 26.1406 110.948 26.0885 111.411 25.9844C111.88 25.8802 112.388 25.7318 112.935 25.5391V27.5703C112.429 27.7786 111.932 27.9271 111.442 28.0156C110.953 28.1094 110.403 28.1562 109.794 28.1562C108.617 28.1562 107.648 27.9141 106.888 27.4297C106.133 26.9401 105.573 26.2578 105.208 25.3828C104.844 24.5026 104.661 23.4766 104.661 22.3047C104.661 21.4401 104.778 20.6484 105.013 19.9297C105.247 19.2109 105.591 18.5885 106.044 18.0625C106.497 17.5365 107.057 17.1302 107.724 16.8438C108.39 16.5573 109.156 16.4141 110.021 16.4141C110.588 16.4141 111.156 16.487 111.724 16.6328C112.297 16.7734 112.844 16.9688 113.364 17.2188L112.583 19.1875C112.156 18.9844 111.726 18.8073 111.294 18.6562C110.862 18.5052 110.437 18.4297 110.021 18.4297ZM125.739 22.2734C125.739 23.1536 125.63 23.9557 125.411 24.6797C125.192 25.3984 124.859 26.0182 124.411 26.5391C123.969 27.0599 123.406 27.4609 122.724 27.7422C122.041 28.0182 121.234 28.1562 120.302 28.1562C119.37 28.1562 118.562 28.0182 117.88 27.7422C117.198 27.4609 116.633 27.0599 116.185 26.5391C115.742 26.0182 115.411 25.3958 115.192 24.6719C114.974 23.9479 114.864 23.1432 114.864 22.2578C114.864 21.0755 115.057 20.0469 115.442 19.1719C115.833 18.2917 116.432 17.6094 117.239 17.125C118.047 16.6406 119.073 16.3984 120.317 16.3984C121.557 16.3984 122.575 16.6406 123.372 17.125C124.174 17.6094 124.768 18.2917 125.153 19.1719C125.544 20.0521 125.739 21.0859 125.739 22.2734ZM117.403 22.2734C117.403 23.0703 117.502 23.7578 117.7 24.3359C117.903 24.9089 118.219 25.3516 118.646 25.6641C119.073 25.9714 119.625 26.125 120.302 26.125C120.989 26.125 121.547 25.9714 121.974 25.6641C122.401 25.3516 122.711 24.9089 122.903 24.3359C123.101 23.7578 123.2 23.0703 123.2 22.2734C123.2 21.0755 122.976 20.1328 122.528 19.4453C122.08 18.7578 121.344 18.4141 120.317 18.4141C119.635 18.4141 119.078 18.5703 118.646 18.8828C118.219 19.1901 117.903 19.6328 117.7 20.2109C117.502 20.7839 117.403 21.4714 117.403 22.2734ZM131.435 16.5781C132.471 16.5781 133.325 16.7031 133.997 16.9531C134.674 17.2031 135.177 17.5807 135.505 18.0859C135.833 18.5911 135.997 19.2292 135.997 20C135.997 20.5208 135.898 20.9766 135.7 21.3672C135.502 21.7578 135.242 22.0885 134.919 22.3594C134.596 22.6302 134.247 22.8516 133.872 23.0234L137.232 28H134.544L131.817 23.6172H130.528V28H128.107V16.5781H131.435ZM131.263 18.5625H130.528V21.6484H131.31C132.112 21.6484 132.685 21.5156 133.028 21.25C133.377 20.9792 133.552 20.5833 133.552 20.0625C133.552 19.5208 133.364 19.1354 132.989 18.9062C132.62 18.6771 132.044 18.5625 131.263 18.5625ZM145.247 28H138.669V16.5781H145.247V18.5625H141.091V21.0703H144.958V23.0547H141.091V26H145.247V28ZM147.638 16.5781H151.192C152.713 16.5781 153.864 16.7917 154.646 17.2188C155.427 17.6458 155.817 18.3958 155.817 19.4688C155.817 19.901 155.747 20.2917 155.607 20.6406C155.471 20.9896 155.273 21.276 155.013 21.5C154.752 21.724 154.435 21.8698 154.06 21.9375V22.0156C154.44 22.0938 154.784 22.2292 155.091 22.4219C155.398 22.6094 155.643 22.8854 155.825 23.25C156.013 23.6094 156.107 24.0885 156.107 24.6875C156.107 25.3802 155.937 25.974 155.599 26.4688C155.26 26.9635 154.776 27.3438 154.146 27.6094C153.521 27.8698 152.776 28 151.911 28H147.638V16.5781ZM150.06 21.1016H151.466C152.169 21.1016 152.656 20.9922 152.927 20.7734C153.198 20.5495 153.333 20.2214 153.333 19.7891C153.333 19.3516 153.172 19.0391 152.849 18.8516C152.531 18.6589 152.026 18.5625 151.333 18.5625H150.06V21.1016ZM150.06 23.0234V26H151.638C152.367 26 152.875 25.8594 153.161 25.5781C153.448 25.2969 153.591 24.9193 153.591 24.4453C153.591 24.1641 153.528 23.9167 153.403 23.7031C153.278 23.4896 153.067 23.3229 152.771 23.2031C152.479 23.0833 152.075 23.0234 151.56 23.0234H150.06ZM168.755 22.2734C168.755 23.1536 168.646 23.9557 168.427 24.6797C168.208 25.3984 167.875 26.0182 167.427 26.5391C166.984 27.0599 166.422 27.4609 165.739 27.7422C165.057 28.0182 164.25 28.1562 163.317 28.1562C162.385 28.1562 161.578 28.0182 160.896 27.7422C160.213 27.4609 159.648 27.0599 159.2 26.5391C158.758 26.0182 158.427 25.3958 158.208 24.6719C157.989 23.9479 157.88 23.1432 157.88 22.2578C157.88 21.0755 158.073 20.0469 158.458 19.1719C158.849 18.2917 159.448 17.6094 160.255 17.125C161.062 16.6406 162.088 16.3984 163.333 16.3984C164.573 16.3984 165.591 16.6406 166.388 17.125C167.19 17.6094 167.784 18.2917 168.169 19.1719C168.56 20.0521 168.755 21.0859 168.755 22.2734ZM160.419 22.2734C160.419 23.0703 160.518 23.7578 160.716 24.3359C160.919 24.9089 161.234 25.3516 161.661 25.6641C162.088 25.9714 162.64 26.125 163.317 26.125C164.005 26.125 164.562 25.9714 164.989 25.6641C165.416 25.3516 165.726 24.9089 165.919 24.3359C166.117 23.7578 166.216 23.0703 166.216 22.2734C166.216 21.0755 165.992 20.1328 165.544 19.4453C165.096 18.7578 164.359 18.4141 163.333 18.4141C162.651 18.4141 162.094 18.5703 161.661 18.8828C161.234 19.1901 160.919 19.6328 160.716 20.2109C160.518 20.7839 160.419 21.4714 160.419 22.2734ZM178.114 28L177.286 25.2812H173.122L172.294 28H169.685L173.716 16.5312H176.677L180.724 28H178.114ZM176.708 23.25L175.88 20.5938C175.828 20.4167 175.758 20.1901 175.669 19.9141C175.586 19.6328 175.5 19.349 175.411 19.0625C175.328 18.7708 175.26 18.5182 175.208 18.3047C175.156 18.5182 175.083 18.7839 174.989 19.1016C174.901 19.4141 174.815 19.7109 174.732 19.9922C174.648 20.2734 174.588 20.474 174.552 20.5938L173.732 23.25H176.708ZM185.497 16.5781C186.534 16.5781 187.388 16.7031 188.06 16.9531C188.737 17.2031 189.239 17.5807 189.567 18.0859C189.896 18.5911 190.06 19.2292 190.06 20C190.06 20.5208 189.961 20.9766 189.763 21.3672C189.565 21.7578 189.304 22.0885 188.982 22.3594C188.659 22.6302 188.31 22.8516 187.935 23.0234L191.294 28H188.607L185.88 23.6172H184.591V28H182.169V16.5781H185.497ZM185.325 18.5625H184.591V21.6484H185.372C186.174 21.6484 186.747 21.5156 187.091 21.25C187.44 20.9792 187.614 20.5833 187.614 20.0625C187.614 19.5208 187.427 19.1354 187.052 18.9062C186.682 18.6771 186.107 18.5625 185.325 18.5625ZM202.208 22.1797C202.208 23.4661 201.961 24.5417 201.466 25.4062C200.976 26.2656 200.265 26.9141 199.333 27.3516C198.401 27.7839 197.278 28 195.966 28H192.732V16.5781H196.317C197.515 16.5781 198.554 16.7917 199.435 17.2188C200.315 17.6406 200.997 18.2682 201.482 19.1016C201.966 19.9297 202.208 20.9557 202.208 22.1797ZM199.692 22.2422C199.692 21.3984 199.567 20.7057 199.317 20.1641C199.073 19.6172 198.708 19.2135 198.224 18.9531C197.745 18.6927 197.151 18.5625 196.442 18.5625H195.153V26H196.192C197.375 26 198.252 25.6849 198.825 25.0547C199.403 24.4245 199.692 23.487 199.692 22.2422Z" fill="black"/>
</svg>
