<svg width="260" height="44" viewBox="0 0 260 44" fill="none" xmlns="http://www.w3.org/2000/svg">
<rect width="260" height="44" rx="22" fill="#EDEDED"/>
<path d="M107.035 14.8672C109.246 14.8672 110.859 15.3438 111.875 16.2969C112.891 17.2422 113.398 18.5469 113.398 20.2109C113.398 20.9609 113.285 21.6797 113.059 22.3672C112.832 23.0469 112.461 23.6523 111.945 24.1836C111.438 24.7148 110.758 25.1367 109.906 25.4492C109.055 25.7539 108.004 25.9062 106.754 25.9062H105.195V32H101.562V14.8672H107.035ZM106.848 17.8438H105.195V22.9297H106.391C107.07 22.9297 107.66 22.8398 108.16 22.6602C108.66 22.4805 109.047 22.1992 109.32 21.8164C109.594 21.4336 109.73 20.9414 109.73 20.3398C109.73 19.4961 109.496 18.8711 109.027 18.4648C108.559 18.0508 107.832 17.8438 106.848 17.8438ZM116.633 32V14.8672H120.266V29H127.215V32H116.633ZM140.691 32L139.449 27.9219H133.203L131.961 32H128.047L134.094 14.7969H138.535L144.605 32H140.691ZM138.582 24.875L137.34 20.8906C137.262 20.625 137.156 20.2852 137.023 19.8711C136.898 19.4492 136.77 19.0234 136.637 18.5938C136.512 18.1562 136.41 17.7773 136.332 17.457C136.254 17.7773 136.145 18.1758 136.004 18.6523C135.871 19.1211 135.742 19.5664 135.617 19.9883C135.492 20.4102 135.402 20.7109 135.348 20.8906L134.117 24.875H138.582ZM152.105 21.9219L155.68 14.8672H159.594L153.91 25.332V32H150.301V25.4492L144.617 14.8672H148.555L152.105 21.9219Z" fill="black"/>
</svg>
