<svg width="640" height="640" viewBox="0 0 640 640" fill="none" xmlns="http://www.w3.org/2000/svg">
<path d="M640 0.259888H0.805664V639.967H640V0.259888Z" fill="url(#paint0_linear_399_2156)"/>
<mask id="mask0_399_2156" style="mask-type:luminance" maskUnits="userSpaceOnUse" x="0" y="0" width="640" height="640">
<path d="M625.796 640H15.01C7.13842 640 0.805664 636.435 0.805664 632.003V8.25664C0.805664 3.82511 7.13842 0.259888 15.01 0.259888H625.796C633.667 0.259888 640 3.82511 640 8.25664V631.97C640 636.401 633.608 640 625.796 640Z" fill="white"/>
</mask>
<g mask="url(#mask0_399_2156)">
<g style="mix-blend-mode:screen" opacity="0.5">
<path fill-rule="evenodd" clip-rule="evenodd" d="M150.543 63.4677C176.229 43.7423 198.423 22.451 221.446 0.593201C217.836 0.62652 214.226 0.69316 210.556 0.7598C176.288 37.6448 149.478 62.0682 119.412 82.26C88.5174 103.052 41.8799 119.212 -7.125 139.737C-7.06582 142.469 -7.00663 145.234 -6.94745 147.967C49.8107 123.077 99.4074 102.752 150.543 63.4677Z" fill="url(#paint1_radial_399_2156)"/>
</g>
<g style="mix-blend-mode:screen" opacity="0.5">
<path fill-rule="evenodd" clip-rule="evenodd" d="M416.814 1.35956C361.95 73.1637 288.443 120.411 211.384 152.631C142.493 181.453 58.2144 198.213 -5.46826 209.775L-5.40908 212.574C44.1877 204.51 106.687 195.114 154.685 180.72C166.759 182.053 175.518 181.153 177.353 179.92C181.259 177.188 183.982 174.089 186.764 170.224C195.582 167.092 204.282 163.76 212.923 160.162C296.965 125.409 366.33 67.566 422.851 1.52616C420.839 1.45952 418.827 1.4262 416.814 1.35956Z" fill="url(#paint2_radial_399_2156)"/>
</g>
<g style="mix-blend-mode:screen" opacity="0.5">
<path fill-rule="evenodd" clip-rule="evenodd" d="M267.137 214.073C177.235 245.527 75.3782 280.346 -4.16602 275.615C-4.10683 278.114 -4.04765 280.613 -4.04765 283.078C60.4636 283.012 105.977 275.981 171.198 253.39C213.219 238.863 254.353 222.303 295.959 206.876C315.372 199.679 334.903 192.682 354.316 185.485C483.634 137.504 538.202 116.379 638.639 39.4774C641.598 37.1783 644.616 34.8792 647.694 32.4802C647.753 29.2149 647.871 25.9829 647.931 22.7175L647.339 22.6176C600.465 61.735 553.354 93.1556 501.33 120.511C425.515 160.395 348.042 185.751 267.137 214.073Z" fill="url(#paint3_radial_399_2156)"/>
</g>
<g style="mix-blend-mode:screen" opacity="0.5">
<path fill-rule="evenodd" clip-rule="evenodd" d="M381.541 244.094C255.773 294.64 117.163 352.384 -2.92285 344.987L-2.86367 350.751C7.07936 351.284 28.9185 351.651 37.737 351.784C42.531 354.449 48.2719 355.815 49.4556 355.749C50.0474 355.716 53.5985 353.883 55.3741 351.717C93.4298 350.818 124.857 344.653 172.205 329.493C262.165 300.705 362.72 254.157 453.273 216.239C429.421 225.102 405.511 234.465 381.541 244.094Z" fill="url(#paint4_radial_399_2156)"/>
</g>
<g style="mix-blend-mode:screen" opacity="0.5">
<path fill-rule="evenodd" clip-rule="evenodd" d="M132.136 401.863C94.8501 410.16 45.9043 414.158 -1.97607 416.391L-1.91689 421.989C107.338 416.491 177.472 398.265 275.837 356.215C229.969 373.908 182.858 390.601 132.136 401.863Z" fill="url(#paint5_radial_399_2156)"/>
</g>
<g style="mix-blend-mode:screen" opacity="0.5">
<path fill-rule="evenodd" clip-rule="evenodd" d="M251.808 422.155C168.417 444.18 85.1438 462.839 -1.44336 464.271L-1.38417 468.67C78.2784 464.271 129.651 455.742 209.432 434.883C233.461 428.619 257.253 422.222 281.104 416.024C320.403 405.829 359.761 396.132 400.125 388.369C484.7 372.076 559.272 369.677 641.539 386.836C641.539 384.337 641.598 381.872 641.598 379.373C609.047 373.742 577.915 370.909 546.725 370.643C457.77 369.843 368.875 391.368 283.117 413.892C272.582 416.657 262.165 419.423 251.808 422.155Z" fill="url(#paint6_radial_399_2156)"/>
</g>
<g style="mix-blend-mode:screen" opacity="0.5">
<path fill-rule="evenodd" clip-rule="evenodd" d="M149.714 550.636C100.709 556.934 40.9919 559.666 -0.79248 558.866C-0.79248 561.565 -0.79248 564.264 -0.733296 566.996C50.4023 566.663 104.083 564.631 145.098 559.166C184.219 553.968 223.281 545.705 270.865 532.844C327.387 517.583 382.251 497.725 439.719 483.064C506.42 466.004 561.107 466.87 618.398 484.463C517.133 443.513 426.343 485.03 308.566 518.383C257.549 532.844 204.578 543.406 153.62 550.17C152.377 550.27 151.016 550.47 149.714 550.636Z" fill="url(#paint7_radial_399_2156)"/>
</g>
<g style="mix-blend-mode:multiply" opacity="0.35">
<path fill-rule="evenodd" clip-rule="evenodd" d="M152.792 544.306C327.978 520.515 487.777 415.225 640.769 485.963C640.828 466.204 640.947 446.412 641.124 426.653C573.417 394.1 483.042 400.897 411.192 410.96C496.891 385.537 576.554 379.239 641.302 401.963C641.361 394.433 641.42 386.903 641.479 379.373C608.928 373.741 577.797 370.909 546.606 370.643C446.762 369.776 347.036 396.965 251.689 422.155C168.298 444.18 85.0252 462.839 -1.56201 464.271C-1.38446 485.629 -1.2069 507.021 -1.02935 528.379C21.8751 537.675 99.8213 547.238 152.792 544.306Z" fill="url(#paint8_radial_399_2156)"/>
</g>
<g style="mix-blend-mode:multiply" opacity="0.35">
<path fill-rule="evenodd" clip-rule="evenodd" d="M-3.10069 332.958C115.032 341.288 253.228 290.842 378.226 240.596C468.483 204.344 558.029 164.96 645.031 149.833C645.918 107.45 646.925 65.1003 648.108 22.7175L647.516 22.6176C600.642 61.735 553.531 93.1556 501.508 120.511C425.515 160.395 348.042 185.751 267.137 214.073C177.235 245.527 75.3782 280.346 -4.16602 275.615C-3.75172 294.707 -3.4558 313.833 -3.10069 332.958ZM155.929 261.987C269.918 224.136 386.808 187.451 498.134 135.238C413.441 204.41 279.269 229.7 155.929 261.987Z" fill="url(#paint9_radial_399_2156)"/>
</g>
<g style="mix-blend-mode:multiply" opacity="0.35">
<path fill-rule="evenodd" clip-rule="evenodd" d="M208.366 148.8C282.347 117.879 352.126 69.0653 405.333 1.12628C372.071 0.393246 340.94 0.026728 309.217 -0.0065918C245.12 69.6651 200.85 90.6233 125.626 111.781C184.693 77.995 217.481 50.5729 256.543 0.193327C241.687 0.326606 226.477 0.493205 210.615 0.726444C176.348 37.6115 149.537 62.0349 119.471 82.2267C88.5174 103.052 41.8799 119.212 -7.125 139.737C-6.59234 160.162 -6.11886 180.62 -5.70457 201.045C57.2087 190.416 140.837 177.021 208.366 148.8Z" fill="url(#paint10_radial_399_2156)"/>
</g>
<path opacity="0.3" fill-rule="evenodd" clip-rule="evenodd" d="M572.352 231.166C550.808 232.932 531.573 235.331 509.261 239.896C463.215 249.325 415.394 271.117 372.367 289.976C341.65 303.403 303.357 322.829 271.871 332.092C327.682 309.101 390.063 273.915 438.535 255.789C479.846 240.362 528.318 228.967 572.352 231.166Z" fill="#B15512"/>
<path opacity="0.3" fill-rule="evenodd" clip-rule="evenodd" d="M147.584 228.634C96.5664 240.096 45.3124 245.727 -4.75781 243.095C-4.69863 245.627 -4.63944 248.159 -4.58026 250.692C45.9635 252.791 97.8092 246.66 149.182 234.431C214.64 218.838 290.751 192.082 351.297 164.227C359.228 160.595 356.801 161.728 364.436 157.663C355.322 160.861 359.583 159.295 350.587 162.861C284.655 188.95 217.421 212.94 147.584 228.634Z" fill="#B15512"/>
<g style="mix-blend-mode:multiply" opacity="0.3">
<path d="M0.628011 610.645C397.58 624.706 396.988 562.798 582.946 570.495C601.53 571.261 619.463 575.66 640.592 581.191C640.592 584.723 640.592 588.288 640.592 591.82C618.516 587.655 599.873 585.356 581.17 584.589C534.119 582.657 483.575 590.354 436.701 595.785C282.051 613.744 141.369 628.638 1.0423 620.441C0.923935 617.209 0.746381 613.944 0.628011 610.645ZM181.556 382.971C169.245 382.938 157.467 381.538 142.79 380.206C94.5541 375.841 40.6368 380.172 -2.39041 385.004C-2.44959 382.238 -2.44959 379.473 -2.50878 376.74C43.892 373.142 94.5541 372.775 143.441 377.207C160.249 378.74 176.702 380.372 191.439 378.84C201.382 377.807 209.668 374.908 219.019 371.909C360.826 326.128 478.485 248.559 642.959 265.319C642.9 268.218 642.9 271.15 642.841 274.082C447.413 253.157 312.472 361.813 132.136 401.863C94.85 410.16 45.9043 414.158 -1.97611 416.391C-2.0353 413.459 -2.0353 410.527 -2.09448 407.628C44.9573 405.362 93.0153 401.264 129.947 394.6C147.584 391.401 164.747 387.469 181.556 382.971ZM644.735 162.761C592.83 170.791 539.623 185.918 485.883 204.544C495.53 205.21 503.283 207.642 510.267 209.342C517.429 211.074 523.939 212.84 531.278 211.874C569.097 206.843 606.087 195.314 644.143 191.782C644.084 195.214 644.025 198.613 643.965 202.045C606.383 205.177 569.393 214.406 532.106 218.405C523.465 219.338 517.547 216.472 509.675 214.54C489.257 209.542 479.787 206.51 459.191 214.04C433.386 223.503 407.463 233.632 381.541 244.061C255.773 294.607 117.163 352.35 -2.92307 344.953C-2.98225 340.955 -3.04144 336.957 -3.10062 332.925C115.032 341.255 253.228 290.809 378.226 240.562C406.398 229.234 434.511 217.605 462.505 206.51C522.696 183.519 580.815 160.895 645.031 149.766C644.912 154.131 644.853 158.462 644.735 162.761ZM-0.851605 545.105C34.8959 549.57 101.183 550.936 148.826 544.805C325.552 522.081 486.653 414.658 640.769 485.963C640.769 488.895 640.769 491.794 640.71 494.726C530.212 437.382 434.866 482.531 308.566 518.316C256.247 533.143 201.856 543.906 149.655 550.603C100.65 556.901 40.9328 559.633 -0.851605 558.833C-0.792421 554.268 -0.792421 549.703 -0.851605 545.105ZM-1.56182 455.542C83.8417 454.575 167.292 439.681 250.032 417.824C398.171 378.706 510.622 342.154 641.598 367.611C641.539 371.542 641.539 375.474 641.48 379.406C608.928 373.775 577.797 370.943 546.607 370.676C446.762 369.81 347.036 396.999 251.689 422.189C168.298 444.213 85.0254 462.872 -1.56182 464.305C-1.50264 461.339 -1.50264 458.44 -1.56182 455.542ZM-4.3435 262.953C73.5435 268.951 176.229 241.095 265.183 209.975C401.841 162.128 533.823 98.8532 640 8.7232C647.161 9.68947 640.533 21.618 647.457 22.6509C600.583 61.7683 553.472 93.1889 501.449 120.544C425.515 160.395 348.042 185.751 267.137 214.073C177.235 245.527 75.3783 280.346 -4.16595 275.615C-4.22513 271.383 -4.28432 267.152 -4.3435 262.953ZM-5.64556 201.045C57.2086 190.416 140.837 177.021 208.425 148.766C282.406 117.846 352.185 69.032 405.392 1.09296C409.18 1.1596 412.968 1.25956 416.815 1.35952C361.95 73.1637 288.443 120.411 211.385 152.631C142.494 181.453 58.2147 198.213 -5.46801 209.775C-5.52719 206.876 -5.58638 203.977 -5.64556 201.045ZM-7.30273 131.74C37.9144 115.347 87.0376 98.5534 116.334 78.8614C144.032 60.2689 172.737 34.546 201.027 0.893045C204.223 0.826405 207.419 0.793085 210.615 0.759766C176.347 37.6448 149.537 62.0682 119.471 82.26C88.5172 103.052 41.8797 119.212 -7.12518 139.737L-7.30273 131.74Z" fill="#B15512"/>
</g>
<g style="mix-blend-mode:screen" opacity="0.5">
<path fill-rule="evenodd" clip-rule="evenodd" d="M436.701 595.818C355.203 605.281 281.104 613.877 208.721 618.709C294.48 615.51 371.065 607.88 458.481 598.684C530.508 591.087 572.411 584.023 640.651 599.45C640.651 596.918 640.651 594.385 640.651 591.853C618.575 587.688 599.932 585.389 581.23 584.623C534.178 582.657 483.634 590.354 436.701 595.818Z" fill="url(#paint11_radial_399_2156)"/>
</g>
<g style="mix-blend-mode:multiply" opacity="0.3">
<path fill-rule="evenodd" clip-rule="evenodd" d="M640.71 528.279C570.221 488.162 515.061 484.563 431.315 505.821C404.327 512.652 378.404 522.015 351.771 529.745C344.669 531.811 346.977 531.178 339.756 532.777C347.036 529.778 343.781 531.011 351.238 528.312C376.806 519.083 403.853 509.053 430.072 501.79C513.286 478.732 570.221 481.631 640.77 519.482C640.71 522.414 640.71 525.347 640.71 528.279Z" fill="#B15512"/>
</g>
<path opacity="0.3" fill-rule="evenodd" clip-rule="evenodd" d="M640.651 612.811C571.405 600.783 496.655 604.081 401.782 620.741C493.222 610.512 564.125 609.512 640.651 619.109V612.811Z" fill="#B15512"/>
<path opacity="0.5" fill-rule="evenodd" clip-rule="evenodd" d="M400.539 279.946C450.135 258.822 492.157 243.261 548.5 233.532C535.717 235.065 523.051 237.064 509.261 239.896C474.224 247.06 438.18 261.421 403.971 276.148C393.2 280.779 382.665 285.444 372.367 289.942C343.603 302.537 308.211 320.363 277.967 330.193C311.88 320.03 338.75 306.835 371.065 292.741C381.245 288.276 391.01 284.011 400.539 279.946Z" fill="url(#paint12_radial_399_2156)"/>
<g style="mix-blend-mode:screen" opacity="0.5">
<path fill-rule="evenodd" clip-rule="evenodd" d="M-4.52089 256.056C31.7001 257.822 88.8133 253.724 138.292 240.362C166.641 232.699 193.57 223.802 220.499 214.406C196.174 222.137 171.968 228.967 149.123 234.431C97.8094 246.693 45.9636 252.824 -4.58008 250.725L-4.52089 256.056Z" fill="url(#paint13_radial_399_2156)"/>
</g>
<g style="mix-blend-mode:screen" opacity="0.5">
<path fill-rule="evenodd" clip-rule="evenodd" d="M429.066 506.388C510.031 488.228 578.034 489.228 640.651 536.942C640.651 534.043 640.651 531.178 640.651 528.279C570.162 488.162 515.002 484.563 431.256 505.821C430.546 506.021 429.835 506.188 429.066 506.388Z" fill="url(#paint14_radial_399_2156)"/>
</g>
</g>
<path opacity="0.8" d="M639.195 0H0V639.74H639.195V0Z" fill="#512507"/>
<defs>
<linearGradient id="paint0_linear_399_2156" x1="320.392" y1="0.276548" x2="320.392" y2="635.992" gradientUnits="userSpaceOnUse">
<stop stop-color="#D49649"/>
<stop offset="0.2211" stop-color="#D08F43"/>
<stop offset="0.5368" stop-color="#C67C33"/>
<stop offset="0.9079" stop-color="#B65E19"/>
<stop offset="1" stop-color="#B15512"/>
</linearGradient>
<radialGradient id="paint1_radial_399_2156" cx="0" cy="0" r="1" gradientUnits="userSpaceOnUse" gradientTransform="translate(67.203 -22.8577) scale(496.584 531.016)">
<stop stop-color="#B15512"/>
<stop offset="1"/>
</radialGradient>
<radialGradient id="paint2_radial_399_2156" cx="0" cy="0" r="1" gradientUnits="userSpaceOnUse" gradientTransform="translate(45.5484 213.554) scale(530.225 566.99)">
<stop stop-color="#B15512"/>
<stop offset="1"/>
</radialGradient>
<radialGradient id="paint3_radial_399_2156" cx="0" cy="0" r="1" gradientUnits="userSpaceOnUse" gradientTransform="translate(137.547 160.591) scale(1500.52 1604.56)">
<stop stop-color="#B15512"/>
<stop offset="1"/>
</radialGradient>
<radialGradient id="paint4_radial_399_2156" cx="0" cy="0" r="1" gradientUnits="userSpaceOnUse" gradientTransform="translate(11.8823 355.646) scale(835.009 892.906)">
<stop stop-color="#B15512"/>
<stop offset="1"/>
</radialGradient>
<radialGradient id="paint5_radial_399_2156" cx="0" cy="0" r="1" gradientUnits="userSpaceOnUse" gradientTransform="translate(-41.1412 435.515) scale(762.139 814.984)">
<stop stop-color="#B15512"/>
<stop offset="1"/>
</radialGradient>
<radialGradient id="paint6_radial_399_2156" cx="0" cy="0" r="1" gradientUnits="userSpaceOnUse" gradientTransform="translate(10.1214 457.034) scale(1029.9 1101.31)">
<stop stop-color="#B15512"/>
<stop offset="1"/>
</radialGradient>
<radialGradient id="paint7_radial_399_2156" cx="0" cy="0" r="1" gradientUnits="userSpaceOnUse" gradientTransform="translate(-2.56879 572.624) scale(874.46 935.092)">
<stop stop-color="#B15512"/>
<stop offset="1"/>
</radialGradient>
<radialGradient id="paint8_radial_399_2156" cx="0" cy="0" r="1" gradientUnits="userSpaceOnUse" gradientTransform="translate(625.052 942.564) scale(1029.21 1100.57)">
<stop stop-color="#B15512"/>
<stop offset="0.9898" stop-color="white"/>
</radialGradient>
<radialGradient id="paint9_radial_399_2156" cx="0" cy="0" r="1" gradientUnits="userSpaceOnUse" gradientTransform="translate(413.778 -320.321) scale(1072.67 1147.05)">
<stop stop-color="#B15512"/>
<stop offset="0.9898" stop-color="white"/>
</radialGradient>
<radialGradient id="paint10_radial_399_2156" cx="0" cy="0" r="1" gradientUnits="userSpaceOnUse" gradientTransform="translate(-64.5325 -386.02) scale(993.158 1062.02)">
<stop stop-color="#B15512"/>
<stop offset="0.9898" stop-color="white"/>
</radialGradient>
<radialGradient id="paint11_radial_399_2156" cx="0" cy="0" r="1" gradientUnits="userSpaceOnUse" gradientTransform="translate(642.925 601.506) scale(899.152 961.497)">
<stop stop-color="#B15512"/>
<stop offset="1"/>
</radialGradient>
<radialGradient id="paint12_radial_399_2156" cx="0" cy="0" r="1" gradientUnits="userSpaceOnUse" gradientTransform="translate(509.695 209.655) scale(665.119 711.236)">
<stop stop-color="#B15512"/>
<stop offset="1"/>
</radialGradient>
<radialGradient id="paint13_radial_399_2156" cx="0" cy="0" r="1" gradientUnits="userSpaceOnUse" gradientTransform="translate(-11.2256 258.648) scale(513.848 549.477)">
<stop stop-color="#B15512"/>
<stop offset="1"/>
</radialGradient>
<radialGradient id="paint14_radial_399_2156" cx="0" cy="0" r="1" gradientUnits="userSpaceOnUse" gradientTransform="translate(644.603 536.896) scale(606.356 648.399)">
<stop stop-color="#B15512"/>
<stop offset="1"/>
</radialGradient>
</defs>
</svg>
