<svg width="360" height="640" viewBox="0 0 360 640" fill="none" xmlns="http://www.w3.org/2000/svg">
<g clip-path="url(#clip0_489_16821)">
<path d="M773.408 0H-364V600.711H773.408V0Z" fill="#E3FCFF"/>
<path opacity="0.2" d="M370.745 517.816C462.445 426.081 462.445 277.35 370.745 185.615C279.045 93.8807 130.37 93.8807 38.6696 185.615C-53.0306 277.35 -53.0305 426.082 38.6696 517.816C130.37 609.551 279.045 609.551 370.745 517.816Z" fill="#F8FFFF"/>
<path opacity="0.2" d="M204.734 539.082C308.18 539.082 392.041 455.19 392.041 351.704C392.041 248.218 308.18 164.326 204.734 164.326C101.287 164.326 17.4265 248.218 17.4265 351.704C17.4265 455.19 101.287 539.082 204.734 539.082Z" fill="#F8FFFF"/>
<path opacity="0.2" d="M305.737 452.784C361.511 396.988 361.511 306.526 305.737 250.731C249.963 194.936 159.535 194.936 103.761 250.731C47.9864 306.526 47.9864 396.988 103.761 452.784C159.535 508.579 249.963 508.579 305.737 452.784Z" fill="#F8FFFF"/>
<path d="M273.15 420.184C310.949 382.37 310.949 321.062 273.15 283.248C235.35 245.434 174.065 245.434 136.265 283.248C98.4652 321.062 98.4652 382.37 136.265 420.184C174.065 457.998 235.35 457.998 273.15 420.184Z" fill="#F8FFFF"/>
<path d="M774 427.437C774 427.437 651.854 265.363 524.317 349.156C524.317 349.156 462.473 390.637 412.122 396.148C361.771 401.659 297.558 363.141 262.549 352.889C227.599 342.637 168.954 379.615 117.774 381.63C66.5931 383.644 45.6825 337.541 1.13635 328.178C-43.4098 318.874 -114.79 381.63 -114.79 381.63C-180.247 353.363 -201.395 325.037 -266.141 336.178C-330.886 347.259 -363.941 381.63 -363.941 381.63V581.689L774 582.756V427.437Z" fill="#CCFAFF"/>
<path d="M755.163 548.563C735.97 553.304 739.998 546.133 730.402 547.674C720.805 549.215 712.038 549.926 701.672 544.415C691.305 538.904 692.905 547.378 686.507 544.356C680.109 541.333 672.942 549.333 664.116 544.711C655.349 540.03 656.119 548.741 648.951 545.837C641.783 542.933 614.594 542.459 611.395 544.652C608.196 546.845 604.997 542.993 599.429 544.296C593.861 545.6 594.631 543.585 581.065 543.585C567.5 543.585 574.668 543.763 565.071 542.993C555.475 542.222 557.075 545.008 551.506 542.756C545.938 540.445 537.112 550.222 531.543 548.326C525.975 546.43 520.348 551.585 505.953 544.119C491.558 536.533 491.559 543.585 478.823 543.111C466.027 542.637 478.823 543.111 462.829 546.015C446.835 548.978 454.062 546.311 448.434 545.659C442.866 545.008 437.238 545.778 432.44 546.133C427.642 546.489 422.844 543.17 414.847 545.6C406.85 548.03 407.679 544.711 398.853 545.067C390.086 545.363 394.055 547.437 382.089 549.156C370.123 550.874 377.705 548.208 368.109 548.622C358.512 548.978 361.297 546.37 354.484 544C347.672 541.63 354.129 548.089 345.303 545.778C336.536 543.467 336.536 545.541 330.908 543.763C325.34 541.985 321.312 543.941 314.144 543.704C306.976 543.467 310.175 542.459 303.778 543.348C297.38 544.237 303.778 543.348 295.01 545.245C286.243 547.2 288.613 545.008 288.613 545.008L275.048 544.593L261.482 545.008C261.482 545.008 263.852 547.141 255.085 545.245C246.318 543.348 252.715 544.237 246.318 543.348C239.92 542.459 243.119 543.467 235.951 543.704C228.784 543.941 224.755 542.045 219.187 543.763C213.619 545.541 213.619 543.408 204.793 545.778C196.026 548.089 202.482 541.63 195.611 544C188.799 546.37 191.583 548.978 181.986 548.622C172.39 548.267 179.972 550.933 168.007 549.156C156.041 547.437 160.01 545.363 151.242 545.067C142.475 544.77 143.246 548.03 135.249 545.6C127.252 543.17 122.453 546.489 117.655 546.133C112.857 545.778 107.289 545.008 101.661 545.659C96.093 546.311 103.261 548.978 87.2667 546.015C71.2727 543.111 84.0679 542.637 71.2727 543.111C58.4775 543.585 58.4775 536.533 44.1422 544.119C29.7477 551.585 24.1794 546.43 18.5519 548.326C12.9836 550.163 4.15729 540.445 -1.41098 542.756C-6.97925 545.008 -5.37982 542.222 -14.9762 542.993C-24.5726 543.763 -17.3457 543.585 -30.9702 543.585C-44.5354 543.585 -43.7653 545.541 -49.3336 544.296C-54.9019 543.052 -58.1007 546.904 -61.2995 544.652C-64.4983 542.459 -91.6288 542.933 -98.8557 545.837C-106.023 548.741 -105.253 540.03 -114.02 544.711C-122.787 549.333 -130.014 541.393 -136.412 544.356C-142.809 547.319 -141.21 538.845 -151.576 544.415C-161.943 549.867 -170.769 549.215 -180.306 547.674C-189.903 546.133 -185.875 553.304 -205.067 548.563C-224.26 543.941 -232.198 548.208 -242.624 546.489C-252.99 544.77 -268.984 539.556 -268.984 539.556C-268.984 539.556 -286.577 549.985 -294.574 548.148C-302.571 546.311 -307.37 550.756 -315.367 548.919C-323.363 547.141 -325.733 551.408 -331.36 549.511C-336.929 547.615 -337.758 551.822 -342.556 549.926C-347.354 548.03 -351.323 550.222 -351.323 550.222L-364 550.696V618.193H275.048H773.408V546.37C768.491 546.311 762.686 546.785 755.163 548.563Z" fill="#A6F2FF"/>
<path d="M93.9603 62.7555L93.9011 62.8148C86.378 56.237 82.5869 64.7111 82.5869 64.7111C78.4995 60.3259 75.5377 64.474 75.5377 64.474C69.851 54.9333 59.7807 62.637 59.7807 62.637C56.3449 57.8963 52.7315 59.3777 51.4283 60.1481C51.0728 59.9111 50.7767 59.674 50.4805 59.437C48.4072 55.4074 42.8389 57.4814 42.8389 57.4814C40.1732 48 28.2074 53.6296 26.4303 56.6518C26.2526 56.9481 26.1341 57.3037 26.0157 57.6C21.7506 57.6592 17.9594 60.5037 17.9594 60.5037C13.6351 54.5777 9.07388 58.4296 9.07388 58.4296C7.47449 52.9777 1.01768 55.4074 1.01768 55.4074C-1.64798 45.9259 -13.6138 51.5555 -15.3909 54.5777C-17.1681 57.6 -14.0877 61.9851 -14.0877 61.9851C-16.6349 64.0592 -21.5516 71.2888 -18.412 77.6889C-16.9311 80.7111 -14.4432 82.4296 -12.2514 83.3777C-14.0285 85.5111 -15.9833 89.0074 -16.1018 92.7407C-19.1229 91.2592 -23.3287 92.2666 -25.9944 94.4592C-30.0817 97.837 -27.8307 101.215 -27.8307 101.215C-32.8658 99.5555 -33.6359 103.822 -33.6359 103.822C-34.169 100.563 -37.9602 97.8963 -42.5807 100.207C-47.2012 102.518 -45.8387 106.963 -45.8387 106.963C-50.5184 108.207 -50.9923 114.37 -50.9923 114.37C-55.1389 111.348 -58.8116 118.993 -58.8116 118.993C-61.3588 110.815 -66.6901 112.474 -70.0074 116.207C-73.3246 119.941 -70.1258 123.733 -70.1258 123.733C-73.2654 127.822 -70.2443 129.659 -70.2443 129.659C-76.8788 134.044 -78.7744 140.444 -79.2483 144.356C-79.7814 144.296 -80.3146 144.356 -80.7885 144.533C-84.1057 145.659 -91.9843 156.326 -83.2172 160.77C-83.2172 160.77 -86.8899 166.637 -81.8548 169.244C-81.8548 169.244 -86.5345 172.978 -81.5586 178.37C-81.5586 178.37 -83.3357 179.911 -84.6981 182.341C-86.8306 183.17 -88.9632 184.474 -91.0365 186.548C-91.0365 186.548 -92.1027 183.526 -96.3678 185.6C-96.3678 185.6 -99.1519 182.044 -103.121 184.356C-107.03 186.667 -109.518 191.111 -102.647 194.844C-102.647 194.844 -105.964 195.733 -107.623 197.57L-60.8849 254.578C-58.5154 254.578 -55.9682 253.63 -54.1911 252.148C-50.1038 248.77 -52.3548 245.393 -52.3548 245.393C-47.3196 247.052 -46.5495 242.785 -46.5495 242.785C-46.0164 246.044 -42.2253 248.711 -37.6048 246.459C-32.9843 244.148 -34.3468 239.704 -34.3468 239.704C-29.667 238.459 -29.1931 232.296 -29.1931 232.296C-25.0466 235.318 -21.3739 227.674 -21.3739 227.674C-18.8267 235.852 -13.4954 234.193 -10.1781 230.459C-6.86084 226.726 -10.0596 222.933 -10.0596 222.933C-6.92007 218.844 -9.94115 217.007 -9.94115 217.007C-3.30662 212.622 -1.41103 206.222 -0.937134 202.311C-0.403999 202.37 0.12912 202.311 0.603012 202.133C3.92028 201.007 11.7988 190.341 3.03172 185.896C3.03172 185.896 6.70441 180.03 1.66927 177.422C1.66927 177.422 6.34898 173.689 1.37309 168.296C1.37309 168.296 3.15018 166.756 4.51263 164.326C6.64516 163.496 8.77769 162.193 10.851 160.118C10.851 160.118 11.9765 163.141 16.1823 161.067C16.1823 161.067 18.9665 164.622 22.9353 162.311C26.845 160 29.3329 155.556 22.4614 151.822C22.4614 151.822 29.9253 149.867 27.9705 145.659C27.9705 145.659 33.598 146.37 35.4936 142.4C35.4936 142.4 39.2254 144.356 42.1281 140.681C44.9714 137.007 43.2536 133.096 40.4694 132.03C40.4694 132.03 44.4383 132.148 43.8459 127.348C43.8459 127.348 46.4524 130.015 50.2435 126.933C53.9754 123.852 55.9895 116.918 49.6512 114.43C49.6512 114.43 54.5678 112.889 53.0277 109.215C53.0277 109.215 55.9303 113.126 62.2686 112.178C62.2686 112.178 61.3801 119.17 66.5337 123.081C71.6873 127.052 79.0327 123.911 81.3429 122.015C81.3429 122.015 84.6602 125.511 87.6812 124.504C90.7023 123.437 97.87 113.778 89.873 109.748C89.873 109.748 93.1903 104.415 88.629 102.044C88.629 102.044 92.8941 98.6666 88.3328 93.6889C88.3328 93.6889 96.9814 86.0444 89.5176 79.2888C89.5176 79.2888 93.7234 77.3925 90.5839 72.9481C90.5839 72.9481 98.8178 71.0518 94.3158 63.2296L94.375 63.1703C94.3158 63.1111 94.1973 63.0518 94.1381 62.9333C94.0789 62.9333 94.0196 62.8148 93.9603 62.7555Z" fill="#A6F2FF"/>
<path d="M-114.79 20.326C-114.79 20.326 -106.912 31.8815 -92.1026 30.4001C-92.1026 30.4001 -93.5242 34.4297 -87.4228 35.9112C-87.4228 35.9112 -87.5413 41.9556 -81.4992 42.9038C-75.457 43.8519 -69.1186 41.363 -73.0875 31.6445C-73.0875 31.6445 -63.6688 35.9704 -62.1287 29.926C-62.1287 29.926 -56.9158 35.4371 -51.5253 32.9482C-51.5253 32.9482 -49.2743 38.163 -43.1729 36.8001C-37.0715 35.4371 -35.5906 29.926 -37.5454 26.4297C-37.5454 26.4297 -33.5173 29.926 -30.0223 24.4149C-30.0223 24.4149 -29.5484 29.3927 -23.0916 29.3927C-16.6348 29.3927 -8.63778 23.8815 -13.1398 15.9408C-13.1398 15.9408 -6.74219 18.5482 -5.20203 13.4519C-5.20203 13.4519 -5.55745 19.9112 1.9064 24.4149C1.9064 24.4149 -4.90585 30.8741 -2.95103 39.3482C-0.936974 47.8223 9.31102 50.8445 13.2799 50.8445C13.2799 50.8445 13.7538 57.3038 17.7819 58.8445C21.81 60.326 37.4485 56.3556 32.6503 45.3927C32.6503 45.3927 40.5881 42.726 37.9224 36.326C37.9224 36.326 45.2086 36.4445 44.7347 27.4371C44.7347 27.4371 60.1955 26.9038 58.1815 13.4519C58.1815 13.4519 64.1644 15.0519 64.6383 7.76303C64.6383 7.76303 75.3009 13.0371 76.9595 0.0593262H-114.79V20.326Z" fill="#A6F2FF"/>
<path d="M306.206 20.326C306.206 20.326 314.085 31.8815 328.894 30.4001C328.894 30.4001 327.472 34.4297 333.574 35.9112C333.574 35.9112 333.455 41.9556 339.497 42.9038C345.54 43.8519 351.878 41.363 347.909 31.6445C347.909 31.6445 357.328 35.9704 358.868 29.926C358.868 29.926 364.081 35.4371 369.471 32.9482C369.471 32.9482 371.722 38.163 377.824 36.8001C383.925 35.4371 385.406 29.926 383.451 26.4297C383.451 26.4297 387.479 29.926 390.974 24.4149C390.974 24.4149 391.448 29.3927 397.905 29.3927C404.362 29.3927 412.359 23.8815 407.857 15.9408C407.857 15.9408 414.254 18.5482 415.795 13.4519C415.795 13.4519 415.439 19.9112 422.903 24.4149C422.903 24.4149 416.091 30.8741 418.046 39.3482C420.06 47.8223 430.308 50.8445 434.276 50.8445C434.276 50.8445 434.75 57.3038 438.778 58.8445C442.807 60.326 458.445 56.3556 453.647 45.3927C453.647 45.3927 461.585 42.726 458.919 36.326C458.919 36.326 466.205 36.4445 465.731 27.4371C465.731 27.4371 481.192 26.9038 479.178 13.4519C479.178 13.4519 485.161 15.0519 485.635 7.76303C485.635 7.76303 496.297 13.0371 497.956 0.0593262H306.206V20.326Z" fill="#A6F2FF"/>
<path d="M242.29 0.711182H136.967H31.6433C33.4797 15.0519 45.1493 9.18526 45.1493 9.18526C45.6824 17.1853 52.2577 15.4075 52.2577 15.4075C50.066 30.1038 67.067 30.7556 67.067 30.7556C66.6523 38.5779 71.569 40.1186 73.6422 40.4149C73.7607 40.9482 73.8792 41.4816 74.0569 41.9556C72.8129 47.9408 80.336 50.489 80.336 50.489C75.0639 62.5779 92.2426 66.9038 96.6262 65.3038C97.1001 65.126 97.5147 64.889 97.8702 64.6519C102.313 68.2667 108.71 68.5038 108.71 68.5038C108.177 78.3408 116.174 78.2816 116.174 78.2816C113.212 85.2741 121.98 88.2371 121.98 88.2371C116.707 100.326 133.886 104.652 138.27 103.052C142.712 101.393 143.186 94.2816 143.186 94.2816C147.57 94.2816 158.884 90.963 161.017 81.6593C162.024 77.2741 160.957 73.4223 159.477 70.5186C163.149 69.8075 168.125 67.8519 171.442 64.0593C173.279 68.2075 178.551 70.6964 183.171 70.6964C190.28 70.6964 190.813 65.2445 190.813 65.2445C194.604 71.289 199.047 67.4371 199.047 67.4371C196.855 71.289 198.514 77.2741 205.207 78.8149C211.901 80.3556 214.389 74.6075 214.389 74.6075C220.313 77.3334 226.059 71.289 226.059 71.289C227.777 77.926 238.084 73.1853 238.084 73.1853C233.76 83.8519 240.69 86.6371 247.325 85.5704C253.959 84.5038 253.841 77.8667 253.841 77.8667C260.594 76.326 258.994 71.8223 258.994 71.8223C269.657 72.889 277.003 67.9112 280.853 64.2371C281.386 64.7112 281.978 65.126 282.63 65.363C287.073 67.0223 304.251 62.6371 298.92 50.5482C298.92 50.5482 307.687 47.5853 304.725 40.5927C304.725 40.5927 312.722 40.7112 312.189 30.8149C312.189 30.8149 329.19 30.2223 326.998 15.4667C326.998 15.4667 333.574 17.2445 334.107 9.24452C334.107 9.24452 345.836 15.0519 347.613 0.770441H242.29V0.711182ZM182.875 35.3778C182.875 35.3778 183.467 35.6741 184.415 35.9704C184.297 36.8001 184.238 37.5704 184.356 38.3408H183.882C183.586 37.4519 183.29 36.4445 182.875 35.3778Z" fill="#A6F2FF"/>
<path d="M438.423 148.859C438.423 148.8 438.423 148.682 438.482 148.622H438.423C437.06 140.445 430.13 143.882 430.13 143.882C429.774 138.963 425.746 140.03 425.746 140.03C427.109 130.963 416.624 130.548 416.624 130.548C416.92 125.689 413.84 124.741 412.536 124.563C412.477 124.208 412.359 123.911 412.299 123.615C413.069 119.941 408.449 118.341 408.449 118.341C411.707 110.874 401.104 108.208 398.379 109.215C398.083 109.333 397.846 109.452 397.609 109.63C394.884 107.437 390.915 107.259 390.915 107.259C391.27 101.156 386.294 101.215 386.294 101.215C388.131 96.889 382.681 95.052 382.681 95.052C385.939 87.5853 375.336 84.9186 372.611 85.926C369.886 86.9334 369.59 91.3186 369.59 91.3186C366.865 91.3186 359.934 93.3334 358.572 99.0816C357.92 101.748 358.631 104.178 359.519 105.956C357.268 106.37 354.188 107.615 352.115 109.926C350.989 107.378 347.731 105.837 344.888 105.837C340.504 105.837 340.149 109.215 340.149 109.215C337.779 105.482 335.054 107.852 335.054 107.852C336.417 105.482 335.41 101.748 331.263 100.8C327.117 99.852 325.577 103.408 325.577 103.408C321.904 101.748 318.409 105.482 318.409 105.482C317.343 101.393 311.004 104.296 311.004 104.296C313.67 97.7186 309.405 96.0001 305.318 96.652C301.23 97.3038 301.289 101.393 301.289 101.393C297.143 102.341 298.091 105.126 298.091 105.126C291.515 104.474 286.954 107.556 284.585 109.808C284.288 109.511 283.874 109.274 283.459 109.096C280.734 108.089 270.131 110.756 273.389 118.222C273.389 118.222 267.998 120.059 269.775 124.385C269.775 124.385 264.799 124.326 265.155 130.43C265.155 130.43 263.2 130.489 261.068 131.319C259.29 130.726 257.217 130.43 254.848 130.667C254.848 130.667 255.736 128.178 251.945 127.289C251.945 127.289 252.004 123.556 248.272 122.963C244.54 122.37 240.631 123.911 243.06 129.896C243.06 129.896 237.254 127.23 236.307 130.963C236.307 130.963 233.108 127.585 229.791 129.067C229.791 129.067 228.428 125.808 224.637 126.696C220.846 127.526 219.957 130.963 221.142 133.096C221.142 133.096 218.654 130.963 216.521 134.341C216.521 134.341 216.225 131.259 212.197 131.259C208.169 131.259 203.252 134.637 206.037 139.556C206.037 139.556 202.127 137.956 201.12 141.096C201.12 141.096 201.298 137.067 196.736 134.341C196.736 134.341 200.942 130.311 199.757 125.096C198.513 119.882 192.175 117.985 189.746 117.985C189.746 117.985 189.45 113.956 186.962 113.067C184.474 112.119 174.819 114.608 177.781 121.363C177.781 121.363 172.864 123.022 174.522 126.993C174.522 126.993 170.02 126.933 170.317 132.504C170.317 132.504 160.78 132.859 162.024 141.156C162.024 141.156 158.351 140.148 157.995 144.652C157.995 144.652 151.716 141.511 150.472 148.919H150.413C150.413 149.037 150.413 149.096 150.472 149.156C150.472 149.215 150.472 149.333 150.413 149.393H150.472C151.835 157.57 158.765 154.133 158.765 154.133C159.121 159.052 163.149 157.985 163.149 157.985C161.787 167.052 172.271 167.467 172.271 167.467C171.975 172.326 175.056 173.274 176.359 173.452C176.418 173.808 176.537 174.104 176.596 174.4C175.826 178.074 180.446 179.674 180.446 179.674C177.188 187.141 187.792 189.808 190.516 188.8C190.813 188.682 191.05 188.563 191.287 188.385C194.011 190.578 197.98 190.756 197.98 190.756C197.625 196.859 202.601 196.8 202.601 196.8C200.764 201.126 206.214 202.963 206.214 202.963C202.956 210.43 213.56 213.096 216.284 212.089C219.009 211.082 219.306 206.696 219.306 206.696C222.03 206.696 228.961 204.682 230.324 198.933C230.975 196.267 230.264 193.837 229.376 192.059C231.627 191.645 234.707 190.4 236.78 188.089C237.906 190.637 241.164 192.178 244.007 192.178C248.391 192.178 248.746 188.8 248.746 188.8C251.116 192.533 253.841 190.163 253.841 190.163C252.478 192.533 253.485 196.267 257.632 197.215C261.778 198.163 263.319 194.608 263.319 194.608C266.991 196.267 270.486 192.533 270.486 192.533C271.553 196.622 277.891 193.719 277.891 193.719C275.225 200.296 279.49 202.015 283.578 201.363C287.665 200.711 287.606 196.622 287.606 196.622C291.752 195.674 290.805 192.889 290.805 192.889C297.38 193.541 301.941 190.459 304.311 188.208C304.607 188.504 305.021 188.741 305.436 188.919C308.161 189.926 318.764 187.259 315.506 179.793C315.506 179.793 320.897 177.956 319.12 173.63C319.12 173.63 324.096 173.689 323.74 167.585C323.74 167.585 325.695 167.526 327.828 166.696C329.605 167.289 331.678 167.585 334.047 167.348C334.047 167.348 333.159 169.837 336.95 170.726C336.95 170.726 336.891 174.459 340.623 175.052C344.355 175.645 348.264 174.104 345.836 168.119C345.836 168.119 351.641 170.785 352.589 167.052C352.589 167.052 355.787 170.43 359.105 168.948C359.105 168.948 360.467 172.208 364.258 171.319C368.049 170.489 368.938 167.052 367.753 164.919C367.753 164.919 370.241 167.052 372.374 163.674C372.374 163.674 372.67 166.756 376.698 166.756C380.726 166.756 385.643 163.378 382.859 158.459C382.859 158.459 386.768 160.059 387.775 156.919C387.775 156.919 387.598 160.948 392.159 163.674C392.159 163.674 387.953 167.704 389.138 172.919C390.382 178.133 396.72 180.03 399.149 180.03C399.149 180.03 399.445 184.059 401.933 184.948C404.421 185.896 414.077 183.408 411.115 176.652C411.115 176.652 416.031 174.993 414.373 171.022C414.373 171.022 418.875 171.082 418.578 165.511C418.578 165.511 428.116 165.156 426.872 156.859C426.872 156.859 430.544 157.867 430.9 153.363C430.9 153.363 437.179 156.504 438.423 149.096H438.482C438.482 149.037 438.423 148.978 438.423 148.859ZM244.777 172.326H244.481C244.363 171.733 244.126 171.141 243.889 170.489C243.889 170.489 244.244 170.667 244.837 170.845C244.718 171.378 244.718 171.852 244.777 172.326Z" fill="#A6F2FF"/>
<path d="M126.541 213.985C126.541 213.867 126.6 213.808 126.6 213.689H126.481C124.882 203.793 116.47 208 116.47 208C116.056 202.015 111.139 203.319 111.139 203.319C112.798 192.296 100.121 191.882 100.121 191.882C100.417 186.015 96.7445 184.889 95.2044 184.652C95.0859 184.237 95.0267 183.882 94.9082 183.526C95.856 179.082 90.2285 177.185 90.2285 177.185C94.1973 168.178 81.3429 164.919 78.0257 166.163C77.6703 166.282 77.3741 166.459 77.0779 166.637C73.7606 163.971 68.9624 163.793 68.9624 163.793C69.3771 156.445 63.3942 156.504 63.3942 156.504C65.5859 151.289 59.0699 149.037 59.0699 149.037C63.0387 140.03 50.1843 136.771 46.867 138.015C43.5498 139.259 43.1944 144.533 43.1944 144.533C39.9364 144.533 31.4655 146.963 29.8661 153.956C29.096 157.215 29.9253 160.119 30.9916 162.252C28.2667 162.785 24.5348 164.267 22.0468 167.052C20.6844 163.971 16.7155 162.074 13.2798 162.074C7.94844 162.074 7.59299 166.163 7.59299 166.163C4.74962 161.659 1.43237 164.504 1.43237 164.504C3.091 161.659 1.847 157.156 -3.18813 155.971C-8.22327 154.845 -10.0596 159.111 -10.0596 159.111C-14.5024 157.096 -18.7674 161.6 -18.7674 161.6C-20.0706 156.622 -27.7714 160.178 -27.7714 160.178C-24.5134 152.237 -29.7262 150.163 -34.7021 150.933C-39.678 151.704 -39.5596 156.682 -39.5596 156.682C-44.5947 157.867 -43.41 161.185 -43.41 161.185C-51.3477 160.356 -56.8568 164.148 -59.7594 166.815C-60.1148 166.459 -60.5887 166.163 -61.1218 165.985C-64.4391 164.741 -77.2342 168 -73.3246 177.008C-73.3246 177.008 -79.8407 179.2 -77.6489 184.474C-77.6489 184.474 -83.6318 184.415 -83.2172 191.763C-83.2172 191.763 -85.5866 191.822 -88.1338 192.83C-90.2663 192.119 -92.8135 191.763 -95.6569 192.059C-95.6569 192.059 -94.5906 189.037 -99.1519 187.971C-99.1519 187.971 -99.0927 183.467 -103.595 182.756C-108.097 182.045 -112.836 183.941 -109.874 191.171C-109.874 191.171 -116.864 187.911 -118.048 192.474C-118.048 192.474 -121.958 188.385 -125.986 190.222C-125.986 190.222 -127.645 186.311 -132.206 187.378C-136.767 188.445 -137.893 192.533 -136.412 195.141C-136.412 195.141 -139.433 192.533 -142.039 196.622C-142.039 196.622 -142.395 192.889 -147.252 192.889C-152.11 192.889 -158.033 196.978 -154.716 202.963C-154.716 202.963 -159.455 201.008 -160.64 204.8C-160.64 204.8 -160.403 199.941 -165.912 196.622C-165.912 196.622 -160.817 191.763 -162.298 185.422C-163.779 179.082 -171.48 176.83 -174.442 176.83C-174.442 176.83 -174.797 171.971 -177.818 170.845C-180.84 169.719 -192.509 172.682 -188.896 180.919C-188.896 180.919 -194.819 182.933 -192.865 187.674C-192.865 187.674 -198.314 187.615 -197.959 194.311C-197.959 194.311 -209.51 194.726 -208.029 204.741C-208.029 204.741 -212.472 203.556 -212.887 209.008C-212.887 209.008 -220.469 205.215 -222.009 214.163H-222.128C-222.128 214.282 -222.068 214.341 -222.068 214.459C-222.068 214.578 -222.128 214.637 -222.128 214.756H-222.009C-220.41 224.652 -211.998 220.445 -211.998 220.445C-211.584 226.43 -206.667 225.126 -206.667 225.126C-208.325 236.148 -195.649 236.563 -195.649 236.563C-195.945 242.43 -192.272 243.556 -190.732 243.793C-190.614 244.208 -190.554 244.563 -190.436 244.919C-191.384 249.363 -185.756 251.259 -185.756 251.259C-189.725 260.267 -176.871 263.526 -173.553 262.282C-173.198 262.163 -172.902 261.985 -172.606 261.808C-169.288 264.474 -164.49 264.652 -164.49 264.652C-164.905 272 -158.922 271.941 -158.922 271.941C-161.114 277.156 -154.598 279.408 -154.598 279.408C-158.566 288.415 -145.712 291.674 -142.395 290.43C-139.078 289.185 -138.722 283.852 -138.722 283.852C-135.464 283.852 -126.993 281.422 -125.394 274.43C-124.624 271.171 -125.453 268.267 -126.519 266.133C-123.794 265.6 -120.063 264.119 -117.575 261.333C-116.212 264.415 -112.243 266.311 -108.808 266.311C-103.476 266.311 -103.121 262.222 -103.121 262.222C-100.277 266.726 -96.9601 263.882 -96.9601 263.882C-98.6188 266.726 -97.3748 271.23 -92.3396 272.415C-87.3045 273.541 -85.4682 269.274 -85.4682 269.274C-81.0254 271.289 -76.7603 266.785 -76.7603 266.785C-75.4571 271.763 -67.7563 268.208 -67.7563 268.208C-71.0144 276.148 -65.8015 278.222 -60.8256 277.452C-55.8497 276.682 -55.9682 271.704 -55.9682 271.704C-50.9331 270.519 -52.1178 267.2 -52.1178 267.2C-44.1801 268.03 -38.671 264.237 -35.7684 261.571C-35.413 261.926 -34.9391 262.222 -34.4059 262.4C-31.0887 263.645 -18.2935 260.385 -22.2032 251.378C-22.2032 251.378 -15.6871 249.185 -17.8789 243.911C-17.8789 243.911 -11.8959 243.971 -12.3106 236.622C-12.3106 236.622 -9.94113 236.563 -7.39394 235.556C-5.26141 236.267 -2.71422 236.622 0.12915 236.326C0.12915 236.326 -0.937134 239.348 3.62411 240.415C3.62411 240.415 3.56488 244.919 8.06688 245.63C12.5689 246.341 17.3079 244.445 14.346 237.215C14.346 237.215 21.336 240.474 22.5207 235.911C22.5207 235.911 26.4303 240 30.4585 238.163C30.4585 238.163 32.1171 242.074 36.6783 241.008C41.2396 239.941 42.3651 235.852 40.8841 233.245C40.8841 233.245 43.9052 235.852 46.5116 231.763C46.5116 231.763 46.8671 235.496 51.7245 235.496C56.5819 235.496 62.5056 231.408 59.1884 225.422C59.1884 225.422 63.9273 227.378 65.112 223.585C65.112 223.585 64.8751 228.445 70.3841 231.763C70.3841 231.763 65.2897 236.622 66.7707 242.963C68.2516 249.304 75.9524 251.556 78.9142 251.556C78.9142 251.556 79.2697 256.415 82.2907 257.541C85.3118 258.667 96.9814 255.704 93.368 247.467C93.368 247.467 99.2917 245.452 97.3369 240.711C97.3369 240.711 102.787 240.771 102.431 234.074C102.431 234.074 113.982 233.659 112.502 223.645C112.502 223.645 116.944 224.83 117.359 219.378C117.359 219.378 124.941 223.171 126.481 214.222H126.6C126.6 214.222 126.6 214.104 126.541 213.985ZM-107.682 242.371H-108.097C-108.274 241.659 -108.511 240.948 -108.808 240.178C-108.808 240.178 -108.334 240.356 -107.682 240.652C-107.741 241.185 -107.8 241.778 -107.682 242.371Z" fill="#A6F2FF"/>
<path d="M447.427 561.185C447.427 561.126 447.427 561.007 447.486 560.948H447.427C446.065 552.77 439.134 556.207 439.134 556.207C438.778 551.289 434.75 552.355 434.75 552.355C436.113 543.289 425.628 542.874 425.628 542.874C425.924 538.015 422.844 537.067 421.54 536.889C421.481 536.533 421.363 536.237 421.304 535.941C422.074 532.267 417.453 530.667 417.453 530.667C420.711 523.2 410.108 520.533 407.383 521.541C407.087 521.659 406.85 521.778 406.613 521.955C403.888 519.763 399.919 519.585 399.919 519.585C400.274 513.481 395.299 513.541 395.299 513.541C397.135 509.215 391.685 507.378 391.685 507.378C394.943 499.911 384.34 497.244 381.615 498.252C378.89 499.259 378.594 503.644 378.594 503.644C375.869 503.644 368.938 505.659 367.576 511.407C366.924 514.074 367.635 516.504 368.523 518.281C366.272 518.696 363.192 519.941 361.119 522.252C359.993 519.704 356.735 518.163 353.892 518.163C349.508 518.163 349.153 521.541 349.153 521.541C346.784 517.807 344.059 520.178 344.059 520.178C345.421 517.807 344.414 514.074 340.268 513.126C336.121 512.178 334.581 515.733 334.581 515.733C330.908 514.074 327.413 517.807 327.413 517.807C326.347 513.718 320.008 516.622 320.008 516.622C322.674 510.044 318.409 508.326 314.322 508.978C310.234 509.63 310.294 513.718 310.294 513.718C306.147 514.667 307.095 517.452 307.095 517.452C300.52 516.8 295.958 519.881 293.589 522.133C293.293 521.837 292.878 521.6 292.463 521.422C289.738 520.415 279.135 523.081 282.393 530.548C282.393 530.548 277.002 532.385 278.78 536.711C278.78 536.711 273.804 536.652 274.159 542.755C274.159 542.755 272.204 542.815 270.072 543.644C268.295 543.052 266.221 542.755 263.852 542.992C263.852 542.992 264.74 540.504 260.949 539.615C260.949 539.615 261.009 535.881 257.277 535.289C253.545 534.696 249.635 536.237 252.064 542.222C252.064 542.222 246.259 539.555 245.311 543.289C245.311 543.289 242.112 539.911 238.795 541.392C238.795 541.392 237.432 538.133 233.641 539.022C229.85 539.852 228.961 543.289 230.146 545.422C230.146 545.422 227.658 543.289 225.526 546.667C225.526 546.667 225.229 543.585 221.201 543.585C217.173 543.585 212.257 546.963 215.041 551.881C215.041 551.881 211.131 550.281 210.124 553.422C210.124 553.422 210.302 549.392 205.74 546.667C205.74 546.667 209.946 542.637 208.762 537.422C207.518 532.207 201.179 530.311 198.751 530.311C198.751 530.311 198.454 526.281 195.966 525.392C193.478 524.444 183.823 526.933 186.785 533.689C186.785 533.689 181.868 535.348 183.527 539.318C183.527 539.318 179.025 539.259 179.321 544.83C179.321 544.83 169.784 545.185 171.028 553.481C171.028 553.481 167.355 552.474 167 556.978C167 556.978 160.72 553.837 159.476 561.244H159.417C159.417 561.363 159.417 561.422 159.476 561.481C159.476 561.541 159.476 561.659 159.417 561.718H159.476C160.839 569.896 167.77 566.459 167.77 566.459C168.125 571.378 172.153 570.311 172.153 570.311C170.791 579.378 181.276 579.792 181.276 579.792C180.979 584.652 184.06 585.6 185.363 585.778C185.422 586.133 185.541 586.429 185.6 586.726C184.83 590.4 189.45 592 189.45 592C186.192 599.467 196.796 602.133 199.521 601.126C199.817 601.007 200.054 600.889 200.291 600.711C203.016 602.904 206.984 603.081 206.984 603.081C206.629 609.185 211.605 609.126 211.605 609.126C209.769 613.452 215.218 615.289 215.218 615.289C211.96 622.755 222.564 625.422 225.289 624.415C228.014 623.407 228.31 619.022 228.31 619.022C231.035 619.022 237.965 617.007 239.328 611.259C239.979 608.592 239.269 606.163 238.38 604.385C240.631 603.97 243.711 602.726 245.785 600.415C246.91 602.963 250.168 604.504 253.012 604.504C257.395 604.504 257.75 601.126 257.75 601.126C260.12 604.859 262.845 602.489 262.845 602.489C261.482 604.859 262.489 608.592 266.636 609.541C270.783 610.489 272.323 606.933 272.323 606.933C275.995 608.592 279.49 604.859 279.49 604.859C280.557 608.948 286.895 606.044 286.895 606.044C284.229 612.622 288.494 614.341 292.582 613.689C296.669 613.037 296.61 608.948 296.61 608.948C300.756 608 299.809 605.215 299.809 605.215C306.384 605.867 310.945 602.785 313.315 600.533C313.611 600.83 314.026 601.067 314.44 601.244C317.165 602.252 327.769 599.585 324.511 592.118C324.511 592.118 329.901 590.281 328.124 585.955C328.124 585.955 333.1 586.015 332.744 579.911C332.744 579.911 334.699 579.852 336.832 579.022C338.609 579.615 340.682 579.911 343.052 579.674C343.052 579.674 342.163 582.163 345.954 583.052C345.954 583.052 345.895 586.785 349.627 587.378C353.359 587.97 357.268 586.43 354.84 580.444C354.84 580.444 360.645 583.111 361.593 579.378C361.593 579.378 364.792 582.755 368.109 581.274C368.109 581.274 369.471 584.533 373.262 583.644C377.054 582.815 377.942 579.378 376.757 577.244C376.757 577.244 379.245 579.378 381.378 576C381.378 576 381.674 579.081 385.702 579.081C389.73 579.081 394.647 575.704 391.863 570.785C391.863 570.785 395.772 572.385 396.78 569.244C396.78 569.244 396.602 573.274 401.163 576C401.163 576 396.957 580.029 398.142 585.244C399.386 590.459 405.724 592.355 408.153 592.355C408.153 592.355 408.449 596.385 410.937 597.274C413.425 598.222 423.081 595.733 420.119 588.978C420.119 588.978 425.035 587.318 423.377 583.348C423.377 583.348 427.879 583.407 427.583 577.837C427.583 577.837 437.12 577.481 435.876 569.185C435.876 569.185 439.549 570.192 439.904 565.689C439.904 565.689 446.183 568.83 447.427 561.422H447.486C447.486 561.304 447.486 561.244 447.427 561.185ZM253.782 584.592H253.485C253.367 584 253.13 583.407 252.893 582.755C252.893 582.755 253.248 582.933 253.841 583.111C253.782 583.644 253.722 584.118 253.782 584.592Z" fill="#A6F2FF"/>
<path d="M233.463 585.126C233.463 585.067 233.523 585.007 233.523 584.889H233.463C233.345 577.481 226.77 579.615 226.77 579.615C227.125 575.17 223.393 575.644 223.393 575.644C225.763 567.763 216.522 566.044 216.522 566.044C217.41 561.778 214.804 560.533 213.678 560.237C213.678 559.941 213.619 559.644 213.56 559.348C214.745 556.207 210.835 554.193 210.835 554.193C214.745 547.97 205.622 544.237 203.075 544.77C202.838 544.83 202.542 544.948 202.364 545.067C200.231 542.755 196.736 542.104 196.736 542.104C197.862 536.77 193.419 536.178 193.419 536.178C195.611 532.563 191.05 530.252 191.05 530.252C194.959 524.03 185.837 520.296 183.29 520.83C180.743 521.363 179.854 525.215 179.854 525.215C177.425 524.859 171.028 525.748 169.073 530.667C168.184 532.978 168.481 535.17 169.014 536.889C166.94 537.007 164.038 537.659 161.905 539.437C161.254 537.007 158.529 535.23 156.041 534.874C152.131 534.281 151.42 537.244 151.42 537.244C149.821 533.63 147.096 535.407 147.096 535.407C148.577 533.452 148.221 530.074 144.608 528.652C141.054 527.289 139.217 530.252 139.217 530.252C136.196 528.296 132.583 531.141 132.583 531.141C132.168 527.348 126.126 529.126 126.126 529.126C129.384 523.615 125.771 521.541 122.039 521.6C118.307 521.659 117.833 525.274 117.833 525.274C114.042 525.57 114.516 528.178 114.516 528.178C108.77 526.696 104.327 528.889 101.957 530.548C101.721 530.252 101.424 529.955 101.069 529.778C98.7587 528.533 88.9846 529.541 90.9394 536.593C90.9394 536.593 85.9043 537.481 86.9705 541.57C86.9705 541.57 82.587 540.859 82.1131 546.311C82.1131 546.311 80.336 546.133 78.3812 546.548C76.9003 545.778 75.0639 545.244 72.9314 545.185C72.9314 545.185 74.0569 543.052 70.7989 541.807C70.7989 541.807 71.332 538.489 68.1332 537.481C64.8752 536.474 61.2025 537.363 62.6242 542.993C62.6242 542.993 57.826 539.852 56.4635 543.052C56.4635 543.052 54.0349 539.615 50.8953 540.563C50.8953 540.563 50.1252 537.541 46.6302 537.778C43.1945 538.074 41.8913 540.918 42.7206 542.993C42.7206 542.993 40.7658 540.741 38.4555 543.467C38.4555 543.467 38.574 540.681 35.0198 540.148C31.4656 539.615 26.6674 541.985 28.4445 546.726C28.4445 546.726 25.1865 544.77 23.8832 547.437C23.8832 547.437 24.5941 543.941 20.8622 540.859C20.8622 540.859 25.1272 537.837 24.7126 533.037C24.2979 528.237 18.9074 525.748 16.7156 525.452C16.7156 525.452 17.0118 521.837 14.8792 520.711C12.8059 519.585 3.92042 520.474 5.63829 526.874C5.63829 526.874 1.07706 527.704 2.02485 531.437C2.02485 531.437 -1.94402 530.785 -2.41792 535.763C-2.41792 535.763 -10.948 534.815 -10.948 542.341C-10.948 542.341 -14.0876 540.978 -14.9761 544.948C-14.9761 544.948 -20.1298 541.333 -22.2031 547.733H-22.2623C-22.2623 547.793 -22.2623 547.911 -22.2623 547.97C-22.2623 548.03 -22.3215 548.089 -22.3215 548.207H-22.2623C-22.1438 555.615 -15.5685 553.481 -15.5685 553.481C-15.9239 557.926 -12.192 557.452 -12.192 557.452C-14.5615 565.333 -5.32054 567.052 -5.32054 567.052C-6.20909 571.318 -3.60267 572.563 -2.47717 572.859C-2.47717 573.155 -2.41793 573.452 -2.35869 573.748C-3.54343 576.889 0.36619 578.904 0.36619 578.904C-3.54344 585.126 5.57906 588.859 8.12625 588.326C8.36319 588.267 8.65939 588.148 8.8371 588.089C10.9696 590.4 14.4646 591.052 14.4646 591.052C13.3391 596.385 17.7819 596.978 17.7819 596.978C15.5901 600.593 20.1513 602.904 20.1513 602.904C16.2417 609.126 25.3642 612.859 27.9113 612.326C30.4585 611.793 31.3471 607.941 31.3471 607.941C33.7758 608.296 40.1734 607.407 42.1282 602.489C43.0168 600.178 42.7206 597.985 42.1875 596.267C44.2607 596.148 47.1634 595.496 49.2959 593.718C49.9475 596.148 52.6724 597.926 55.1603 598.281C59.07 598.874 59.7808 595.911 59.7808 595.911C61.3802 599.526 64.1051 597.807 64.1051 597.807C62.6242 599.704 63.0389 603.141 66.5931 604.563C70.1473 605.926 71.9836 602.963 71.9836 602.963C75.0047 604.918 78.6181 602.074 78.6181 602.074C79.0328 605.867 85.075 604.089 85.075 604.089C81.8169 609.6 85.4304 611.674 89.1623 611.615C92.8942 611.555 93.3681 607.941 93.3681 607.941C97.1593 607.644 96.6854 605.037 96.6854 605.037C102.431 606.459 106.874 604.326 109.244 602.667C109.481 602.963 109.777 603.259 110.132 603.437C112.442 604.681 122.217 603.674 120.262 596.622C120.262 596.622 125.297 595.733 124.231 591.644C124.231 591.644 128.614 592.355 129.088 586.904C129.088 586.904 130.865 587.081 132.82 586.667C134.301 587.437 136.137 587.97 138.27 588.03C138.27 588.03 137.144 590.163 140.402 591.407C140.402 591.407 139.869 594.726 143.068 595.733C146.326 596.741 149.999 595.852 148.577 590.222C148.577 590.222 153.375 593.363 154.738 590.163C154.738 590.163 157.166 593.6 160.306 592.652C160.306 592.652 161.076 595.674 164.571 595.437C168.007 595.141 169.31 592.296 168.481 590.222C168.481 590.222 170.435 592.474 172.746 589.748C172.746 589.748 172.627 592.533 176.181 593.067C179.736 593.6 184.534 591.23 182.757 586.489C182.757 586.489 186.015 588.444 187.318 585.778C187.318 585.778 186.607 589.274 190.339 592.355C190.339 592.355 186.074 595.378 186.489 600.178C186.903 604.978 192.294 607.467 194.486 607.763C194.486 607.763 194.189 611.378 196.322 612.504C198.395 613.63 207.281 612.741 205.563 606.341C205.563 606.341 210.124 605.511 209.176 601.778C209.176 601.778 213.145 602.43 213.619 597.452C213.619 597.452 222.149 598.4 222.149 590.874C222.149 590.874 225.289 592.237 226.177 588.267C226.177 588.267 231.331 591.881 233.404 585.481H233.463C233.463 585.304 233.463 585.185 233.463 585.126ZM58.5368 580.563L58.2406 580.504C58.1814 579.97 58.1222 579.437 57.9445 578.785C57.9445 578.785 58.2406 578.963 58.7145 579.259C58.5961 579.733 58.5368 580.148 58.5368 580.563Z" fill="#A6F2FF"/>
<path d="M37.3892 585.126C37.3892 585.067 37.4484 585.007 37.4484 584.889H37.3892C37.2707 577.481 30.6954 579.615 30.6954 579.615C31.0508 575.17 27.3189 575.644 27.3189 575.644C29.6884 567.763 20.4474 566.044 20.4474 566.044C21.336 561.778 18.7296 560.533 17.604 560.237C17.604 559.941 17.5448 559.644 17.4856 559.348C18.6703 556.207 14.7607 554.193 14.7607 554.193C18.6703 547.97 9.54782 544.237 7.00064 544.77C6.76369 544.83 6.4675 544.948 6.28979 545.067C4.15726 542.755 0.662277 542.104 0.662277 542.104C1.78778 536.77 -2.65497 536.178 -2.65497 536.178C-0.463211 532.563 -5.02444 530.252 -5.02444 530.252C-1.11481 524.03 -10.2373 520.296 -12.7845 520.83C-15.3316 521.363 -16.2202 525.215 -16.2202 525.215C-18.6489 524.859 -25.0465 525.748 -27.0013 530.667C-27.8899 532.978 -27.5937 535.17 -27.0606 536.889C-29.1339 537.007 -32.0365 537.659 -34.169 539.437C-34.8206 537.007 -37.5455 535.23 -40.0334 534.874C-43.9431 534.281 -44.6539 537.244 -44.6539 537.244C-46.2533 533.63 -48.9782 535.407 -48.9782 535.407C-47.4973 533.452 -47.8527 530.074 -51.4662 528.652C-55.0204 527.289 -56.8567 530.252 -56.8567 530.252C-59.8778 528.296 -63.4913 531.141 -63.4913 531.141C-63.9059 527.348 -69.9481 529.126 -69.9481 529.126C-66.6901 523.615 -70.3035 521.541 -74.0354 521.6C-77.7674 521.659 -78.2413 525.274 -78.2413 525.274C-82.0324 525.57 -81.5585 528.178 -81.5585 528.178C-87.3045 526.696 -91.7473 528.889 -94.1167 530.548C-94.3537 530.252 -94.6499 529.955 -95.0053 529.778C-97.3155 528.533 -107.09 529.541 -105.135 536.593C-105.135 536.593 -110.17 537.481 -109.104 541.57C-109.104 541.57 -113.487 540.859 -113.961 546.311C-113.961 546.311 -115.738 546.133 -117.693 546.548C-119.174 545.778 -121.01 545.244 -123.143 545.185C-123.143 545.185 -122.017 543.052 -125.275 541.807C-125.275 541.807 -124.742 538.489 -127.941 537.481C-131.199 536.474 -134.872 537.363 -133.45 542.993C-133.45 542.993 -138.248 539.852 -139.611 543.052C-139.611 543.052 -142.039 539.615 -145.179 540.563C-145.179 540.563 -145.949 537.541 -149.444 537.778C-152.88 538.074 -154.183 540.918 -153.354 542.993C-153.354 542.993 -155.308 540.741 -157.619 543.467C-157.619 543.467 -157.5 540.681 -161.054 540.148C-164.609 539.615 -169.407 541.985 -167.63 546.726C-167.63 546.726 -170.888 544.77 -172.191 547.437C-172.191 547.437 -171.48 543.941 -175.212 540.859C-175.212 540.859 -170.947 537.837 -171.362 533.037C-171.776 528.237 -177.167 525.748 -179.359 525.452C-179.359 525.452 -179.062 521.837 -181.195 520.711C-183.268 519.585 -192.154 520.474 -190.436 526.874C-190.436 526.874 -194.997 527.704 -194.049 531.437C-194.049 531.437 -198.018 530.785 -198.492 535.763C-198.492 535.763 -207.022 534.815 -207.022 542.341C-207.022 542.341 -210.162 540.978 -211.05 544.948C-211.05 544.948 -216.204 541.333 -218.277 547.733H-218.337C-218.337 547.793 -218.337 547.911 -218.337 547.97C-218.337 548.03 -218.396 548.089 -218.396 548.207H-218.337C-218.218 555.615 -211.643 553.481 -211.643 553.481C-211.998 557.926 -208.266 557.452 -208.266 557.452C-210.636 565.333 -201.395 567.052 -201.395 567.052C-202.283 571.318 -199.677 572.563 -198.551 572.859C-198.551 573.155 -198.492 573.452 -198.433 573.748C-199.618 576.889 -195.708 578.904 -195.708 578.904C-199.618 585.126 -190.495 588.859 -187.948 588.326C-187.711 588.267 -187.415 588.148 -187.237 588.089C-185.105 590.4 -181.61 591.052 -181.61 591.052C-182.735 596.385 -178.292 596.978 -178.292 596.978C-180.484 600.593 -175.923 602.904 -175.923 602.904C-179.833 609.126 -170.71 612.859 -168.163 612.326C-165.616 611.793 -164.727 607.941 -164.727 607.941C-162.298 608.296 -155.901 607.407 -153.946 602.489C-153.057 600.178 -153.354 597.985 -153.887 596.267C-151.813 596.148 -148.911 595.496 -146.778 593.718C-146.127 596.148 -143.402 597.926 -140.914 598.281C-137.004 598.874 -136.293 595.911 -136.293 595.911C-134.694 599.526 -131.969 597.807 -131.969 597.807C-133.45 599.704 -133.035 603.141 -129.481 604.563C-125.927 605.926 -124.091 602.963 -124.091 602.963C-121.07 604.918 -117.456 602.074 -117.456 602.074C-117.041 605.867 -110.999 604.089 -110.999 604.089C-114.257 609.6 -110.644 611.674 -106.912 611.615C-103.18 611.555 -102.706 607.941 -102.706 607.941C-98.9149 607.644 -99.3888 605.037 -99.3888 605.037C-93.6428 606.459 -89.2001 604.326 -86.8306 602.667C-86.5937 602.963 -86.2975 603.259 -85.9421 603.437C-83.6318 604.681 -73.8577 603.674 -75.8125 596.622C-75.8125 596.622 -70.7774 595.733 -71.8437 591.644C-71.8437 591.644 -67.4601 592.355 -66.9863 586.904C-66.9863 586.904 -65.2091 587.081 -63.2543 586.667C-61.7734 587.437 -59.937 587.97 -57.8045 588.03C-57.8045 588.03 -58.93 590.163 -55.672 591.407C-55.672 591.407 -56.2051 594.726 -53.0063 595.733C-49.7483 596.741 -46.0756 595.852 -47.4973 590.222C-47.4973 590.222 -42.6991 593.363 -41.3367 590.163C-41.3367 590.163 -38.908 593.6 -35.7684 592.652C-35.7684 592.652 -34.9983 595.674 -31.5033 595.437C-28.0676 595.141 -26.7644 592.296 -27.5937 590.222C-27.5937 590.222 -25.6389 592.474 -23.3287 589.748C-23.3287 589.748 -23.4471 592.533 -19.8929 593.067C-16.3387 593.6 -11.5405 591.23 -13.3176 586.489C-13.3176 586.489 -10.0596 588.444 -8.75636 585.778C-8.75636 585.778 -9.46722 589.274 -5.73529 592.355C-5.73529 592.355 -10.0004 595.378 -9.58569 600.178C-9.17104 604.978 -3.78047 607.467 -1.58871 607.763C-1.58871 607.763 -1.88487 611.378 0.24765 612.504C2.32094 613.63 11.2065 612.741 9.4886 606.341C9.4886 606.341 14.0498 605.511 13.102 601.778C13.102 601.778 17.0709 602.43 17.5448 597.452C17.5448 597.452 26.0749 598.4 26.0749 590.874C26.0749 590.874 29.2145 592.237 30.103 588.267C30.103 588.267 35.2566 591.881 37.3299 585.481H37.3892C37.3892 585.304 37.3892 585.185 37.3892 585.126ZM-137.537 580.563L-137.834 580.504C-137.893 579.97 -137.952 579.437 -138.13 578.785C-138.13 578.785 -137.834 578.963 -137.36 579.259C-137.419 579.733 -137.478 580.148 -137.537 580.563Z" fill="#A6F2FF"/>
<path d="M196.677 548.03C193.182 522.43 194.959 428.03 192.945 369.6C190.991 311.17 186.015 224.77 186.015 189.63C186.015 154.43 188.503 0 188.503 0H182.816C182.816 0 181.335 116.8 180.565 139.97C179.795 163.141 178.847 234.37 180.565 263.941C182.283 293.57 186.489 425.541 185.541 493.57C184.534 561.541 189.747 640 189.747 640H205.385C205.385 640 203.43 624.77 202.423 616.83C201.416 608.77 200.172 573.57 196.677 548.03Z" fill="#A6F2FF"/>
<path d="M124.645 488.948C123.934 474.548 121.032 243.615 120.321 229.215C119.61 214.815 119.847 154.074 120.321 133.333C120.795 112.593 121.743 105.363 121.506 94.1629C121.269 82.9629 121.98 -0.0593262 121.98 -0.0593262H112.324C112.324 -0.0593262 109.184 232.83 109.184 251.378C109.184 269.926 109.421 425.778 109.184 443.318C108.947 460.918 107.23 524.03 107.467 528.83C107.704 533.63 105.512 587.141 105.512 587.141L129.917 572.741C129.68 567.941 127.726 548.741 126.778 534.4C125.83 520.059 125.356 503.348 124.645 488.948Z" fill="#A6F2FF"/>
<path d="M75.0639 481.007C74.6492 466.844 73.0498 239.704 72.6351 225.541C72.2205 211.378 72.3389 151.644 72.6351 131.2C72.9313 110.756 73.4645 103.704 73.2868 92.6815C73.1683 81.6592 73.5829 0 73.5829 0H68.1924C68.1924 0 66.4745 229.096 66.4745 247.348C66.4745 265.6 66.593 418.904 66.4745 436.148C66.356 453.452 65.4082 515.556 65.5267 520.237C65.6452 524.978 64.4604 577.6 64.4604 577.6H78.0257C77.9072 572.859 76.841 539.852 76.3078 525.748C75.7155 511.644 75.4785 495.111 75.0639 481.007Z" fill="#A6F2FF"/>
<path d="M218.062 251.437C215.692 229.689 220.254 0.710938 220.254 0.710938H217.292C217.292 0.710938 213.856 168.533 213.974 221.274C214.093 274.015 223.926 445.807 223.571 484.978C223.215 524.148 218.476 568.296 217.292 572.089L230.324 584.059C230.324 584.059 230.324 531.318 231.331 511.348C232.338 491.378 229.968 453.037 227.836 429.037C225.703 405.037 220.431 273.185 218.062 251.437Z" fill="#A6F2FF"/>
<path d="M19.7366 252.148C19.2627 209.244 18.2557 101.807 19.3219 72.5926C20.6844 35.8519 19.7958 0 19.7958 0H14.4053C14.4053 0 14.346 106.489 14.6422 183.822C8.06693 121.304 -7.15695 0.711111 -7.15695 0.711111H-10.0596C-10.0596 0.711111 12.5097 200.119 15.0569 243.496C15.1161 249.837 15.2346 254.815 15.3531 258.074C16.1232 294.104 21.9876 405.867 22.1061 428.03C22.2245 452.267 23.4685 490.844 26.2526 510.222C29.0368 529.659 33.9534 581.689 33.9534 581.689H52.1984C50.6582 578.311 35.4344 520.533 31.4655 481.956C28.2667 451.733 23.8239 328.652 19.7366 252.148Z" fill="#A6F2FF"/>
<path d="M320.127 0H314.44C314.44 0 316.928 154.37 316.928 189.63C316.928 224.83 311.952 311.23 309.997 369.6C308.043 427.97 309.76 522.43 306.266 548.03C302.771 573.63 301.586 608.83 300.579 616.83C299.572 624.83 297.617 640 297.617 640H313.255C313.255 640 318.468 561.6 317.461 493.57C316.454 425.541 320.66 293.57 322.437 263.941C324.155 234.37 323.207 163.141 322.437 139.97C321.608 116.8 320.127 0 320.127 0Z" fill="#A6F2FF"/>
<path d="M282.689 0.710938C282.689 0.710938 287.251 229.689 284.881 251.437C282.512 273.185 277.24 405.037 275.107 429.037C272.974 453.037 270.605 491.378 271.612 511.348C272.619 531.318 272.619 584.059 272.619 584.059L285.651 572.089C284.466 568.296 279.727 524.148 279.372 484.978C279.017 445.807 288.85 274.015 288.968 221.274C289.087 168.533 285.651 0.710938 285.651 0.710938H282.689Z" fill="#A6F2FF"/>
<path d="M262.549 468.207C261.956 437.037 263.733 328.356 262.549 307.556C261.364 286.756 259.883 259.259 262.43 224.652C264.977 190.044 261.897 133.333 261.008 94.163C260.12 54.9926 264.977 0.651855 264.977 0.651855H251.886H251.116H238.025C238.025 0.651855 242.882 54.9926 241.993 94.163C241.105 133.333 238.025 190.044 240.572 224.652C243.119 259.259 241.638 286.756 240.453 307.556C239.269 328.356 241.046 437.037 240.453 468.207C239.861 499.378 234.056 577.659 234.056 577.659L251.175 586.844V587.259L251.59 587.022L252.004 587.259V586.844L269.124 577.659C268.946 577.659 263.141 499.378 262.549 468.207Z" fill="#A6F2FF"/>
<path d="M308.576 572.859C308.161 568.059 304.725 548.859 303.008 534.518C301.29 520.118 300.46 503.348 299.157 488.948C297.854 474.548 292.76 243.615 291.456 229.215C290.153 214.815 290.627 154.074 291.456 133.333C292.286 112.533 294.003 105.363 293.589 94.1629C293.174 82.9629 294.418 -0.0593262 294.418 -0.0593262H277.358C277.358 -0.0593262 271.79 232.83 271.79 251.378C271.79 269.926 272.204 425.778 271.79 443.318C271.375 460.918 268.354 524.03 268.828 528.83C269.243 533.63 265.392 587.141 265.392 587.141L308.576 572.859Z" fill="#1AC4F6"/>
<path d="M216.699 577.659C216.462 572.919 214.567 539.911 213.619 525.807C212.671 511.644 212.197 495.17 211.486 481.007C210.776 466.844 207.932 239.704 207.221 225.541C206.511 211.378 206.747 151.644 207.221 131.2C207.695 110.756 208.643 103.704 208.406 92.6815C208.169 81.6593 208.88 0 208.88 0H199.402C199.402 0 196.322 229.096 196.322 247.348C196.322 265.6 196.559 418.904 196.322 436.148C196.085 453.452 194.426 515.556 194.663 520.237C194.9 524.978 192.768 577.6 192.768 577.6H216.699V577.659Z" fill="#1AC4F6"/>
<path d="M402.111 165.867C399.09 157.689 399.149 159.407 390.974 148.859C382.74 138.311 384.517 142.4 372.196 130.074C359.875 117.748 358.69 115.378 353.418 110.104C348.146 104.83 342.282 102.459 339.912 105.422C337.543 108.385 345.184 107.2 345.776 108.919C346.369 110.696 355.195 120.059 359.283 123.615C363.37 127.111 377.468 143.585 381.615 150.637C385.702 157.689 390.441 162.963 391.567 165.926C392.692 168.889 402.111 194.133 402.111 194.133V165.867Z" fill="#1AC4F6"/>
<path d="M104.741 288.178C104.741 288.178 109.54 275.674 121.742 263.052C133.945 250.489 152.605 235.259 165.4 229.333C178.254 223.407 167.888 234.43 162.794 236.978C157.699 239.467 133.708 255.17 129.088 262.993C124.467 270.815 108.829 282.37 109.48 303.111L104.741 288.178Z" fill="#1AC4F6"/>
<path d="M-12.4882 572.089C-8.28234 568.296 8.42247 524.148 9.72568 484.978C11.0289 445.807 -23.8024 274.015 -24.1578 221.274C-24.5725 168.533 -12.4289 0.711182 -12.4289 0.711182H-2.06248C-2.06248 0.711182 -18.2341 229.689 -9.82249 251.437C-1.41086 273.185 17.1303 405.037 24.6533 429.037C32.1764 453.037 40.5289 491.378 37.0339 511.348C33.5981 531.319 33.5389 584.059 33.5389 584.059L-12.4882 572.089Z" fill="#1AC4F6"/>
<path d="M153.138 566.104C150.472 562.726 134.952 520.533 127.903 482.015C120.854 443.496 109.954 254.933 101.484 202.904C93.0719 150.815 59.603 0.711182 59.603 0.711182H54.4495C54.4495 0.711182 99.8841 227.911 99.2918 250.015C98.6994 272.178 111.08 403.733 111.317 428.03C111.554 452.267 113.686 490.844 118.662 510.222C123.638 529.659 132.287 581.689 132.287 581.689L153.138 566.104Z" fill="#1AC4F6"/>
<path d="M-15.2133 249.778C-15.2133 249.778 -7.69018 248.889 -0.877939 248.356C5.9343 247.822 5.46041 236.978 21.0397 230.4C36.619 223.881 55.6933 226.37 69.8509 218.785C84.0085 211.2 84.0085 200.237 81.1059 198.163C78.2033 196.089 78.0256 210.252 63.1571 213.511C48.2887 216.711 19.855 220.03 12.2134 227.911C4.57184 235.793 -5.26145 242.37 -24.0396 234.133L-15.2133 249.778Z" fill="#1AC4F6"/>
<path d="M107.526 270.044C107.526 270.044 104.031 109.393 106.459 72.5926C108.888 35.7926 107.289 0 107.289 0H97.6924C97.6924 0 97.3962 223.704 99.4695 258.074L107.526 270.044Z" fill="#1AC4F6"/>
<path d="M277.417 124.563C277.417 124.563 262.252 114.193 257.454 114.963C252.656 115.733 274.218 123.733 277.417 152.533V124.563Z" fill="#1AC4F6"/>
<path d="M287.665 25.126C287.665 25.126 300.934 12.3853 305.792 12.3853C310.649 12.3853 290.686 23.8223 292.226 52.6815L287.665 25.126Z" fill="#1AC4F6"/>
<path d="M366.687 588.918C366.687 588.918 381.2 562.548 393.936 560.533C406.672 558.518 430.663 557.215 434.513 556.563C438.364 555.911 453.528 544.652 454.18 540.563C454.832 536.474 440.674 548.504 436.705 549.511C432.736 550.518 408.686 554.667 402.881 553.481C397.135 552.296 398.083 533.63 401.874 532.918C405.665 532.207 410.345 521.422 410.345 521.422L406.435 520.178C406.435 520.178 402.644 527.17 398.438 531.852C394.292 536.474 395.95 553.896 395.95 553.896C395.95 553.896 366.213 566.637 360.349 583.585C354.484 600.474 366.687 588.918 366.687 588.918Z" fill="#1AC4F6"/>
<path d="M15.59 553.067C15.59 553.067 34.0719 559.407 36.7968 567.289C39.5217 575.17 43.0167 590.4 43.9053 592.77C44.7346 595.141 53.6201 603.615 56.345 603.556C59.0107 603.496 49.7697 595.793 48.7035 593.363C47.6372 590.933 42.2466 576 42.3651 572.207C42.4836 568.356 54.5087 566.933 55.3972 569.304C56.2858 571.674 63.6904 573.452 63.6904 573.452L64.0458 570.785C64.0458 570.785 59.1292 569.126 55.6934 566.993C52.2577 564.859 41.3581 567.882 41.3581 567.882C41.3581 567.882 29.9253 550.282 18.4334 548.445C6.82296 546.548 15.59 553.067 15.59 553.067Z" fill="#1AC4F6"/>
<path d="M-4.72834 573.689C-4.72834 573.689 -12.903 555.97 -9.11188 548.504C-5.26149 541.096 3.26866 528 4.39416 525.748C5.51966 523.496 5.46039 511.23 3.62405 509.333C1.72847 507.437 2.61702 519.467 1.55076 521.896C0.543732 524.326 -6.50544 538.548 -9.34881 541.096C-12.1922 543.645 -21.5516 535.941 -20.4853 533.689C-19.4191 531.437 -23.2103 524.8 -23.2103 524.8L-25.3428 526.4C-25.3428 526.4 -23.151 531.082 -22.3217 535.052C-21.4924 539.022 -11.7775 544.83 -11.7775 544.83C-11.7775 544.83 -16.5757 565.274 -9.94118 574.874C-3.36588 584.533 -4.72834 573.689 -4.72834 573.689Z" fill="#1AC4F6"/>
<path d="M272.856 559.882C272.856 559.882 249.043 565.452 240.927 558.874C232.812 552.296 219.01 538.548 216.522 536.533C214.034 534.578 198.987 531.496 196.203 533.333C193.36 535.17 208.347 537.185 211.072 539.022C213.797 540.859 229.435 553.126 231.864 557.274C234.293 561.422 222.504 570.963 219.957 569.067C217.469 567.17 208.406 570.193 208.406 570.193L209.828 573.215C209.828 573.215 216.107 571.733 221.201 571.733C226.236 571.733 235.833 561.244 235.833 561.244C235.833 561.244 259.646 572.267 273.093 566.637C286.48 561.007 272.856 559.882 272.856 559.882Z" fill="#1AC4F6"/>
<path d="M755.163 570.37C735.97 575.111 739.998 567.941 730.402 569.481C720.805 571.022 712.038 571.733 701.672 566.222C691.305 560.711 692.905 569.185 686.507 566.163C680.109 563.141 672.942 571.141 664.116 566.518C655.349 561.837 656.119 570.548 648.951 567.644C641.783 564.741 614.594 564.267 611.395 566.459C608.196 568.652 604.997 564.8 599.429 566.104C593.861 567.407 594.631 565.392 581.065 565.392C567.5 565.392 574.668 565.57 565.071 564.8C555.475 564.029 557.075 566.815 551.506 564.563C545.938 562.252 537.112 572.029 531.543 570.133C525.975 568.237 520.348 573.392 505.953 565.926C491.558 558.341 491.559 565.392 478.823 564.918C466.027 564.444 478.823 564.918 462.829 567.822C446.835 570.785 454.062 568.118 448.434 567.466C442.866 566.815 437.238 567.585 432.44 567.941C427.642 568.296 422.844 564.978 414.847 567.407C406.85 569.837 407.679 566.518 398.853 566.874C390.086 567.17 394.055 569.244 382.089 570.963C370.123 572.681 377.705 570.015 368.109 570.429C358.512 570.785 361.297 568.178 354.484 565.807C347.672 563.437 354.129 569.896 345.303 567.585C336.536 565.274 336.536 567.348 330.908 565.57C325.34 563.792 321.312 565.748 314.144 565.511C306.976 565.274 310.175 564.267 303.778 565.155C297.38 566.044 303.778 565.155 295.01 567.052C286.243 569.007 288.613 566.815 288.613 566.815L275.048 566.4L261.482 566.815C261.482 566.815 263.852 568.948 255.085 567.052C246.318 565.155 252.715 566.044 246.318 565.155C239.92 564.267 243.119 565.274 235.951 565.511C228.784 565.748 224.755 563.852 219.187 565.57C213.619 567.348 213.619 565.215 204.793 567.585C196.026 569.896 202.482 563.437 195.611 565.807C188.799 568.178 191.583 570.785 181.986 570.429C172.39 570.074 179.972 572.741 168.007 570.963C156.041 569.244 160.01 567.17 151.242 566.874C142.475 566.578 143.246 569.837 135.249 567.407C127.252 564.978 122.453 568.296 117.655 567.941C112.857 567.585 107.289 566.815 101.661 567.466C96.093 568.118 103.261 570.785 87.2667 567.822C71.2727 564.918 84.0679 564.444 71.2727 564.918C58.4775 565.392 58.4775 558.341 44.1422 565.926C29.7477 573.392 24.1794 568.237 18.5519 570.133C12.9836 571.97 4.15729 562.252 -1.41098 564.563C-6.97925 566.815 -5.37982 564.029 -14.9762 564.8C-24.5726 565.57 -17.3457 565.392 -30.9702 565.392C-44.5354 565.392 -43.7653 567.348 -49.3336 566.104C-54.9019 564.859 -58.1007 568.711 -61.2995 566.459C-64.4983 564.267 -91.6288 564.741 -98.8557 567.644C-106.023 570.548 -105.253 561.837 -114.02 566.518C-122.787 571.141 -130.014 563.2 -136.412 566.163C-142.809 569.126 -141.21 560.652 -151.576 566.222C-161.943 571.674 -170.769 571.022 -180.306 569.481C-189.903 567.941 -185.875 575.111 -205.067 570.37C-224.26 565.748 -232.198 570.015 -242.624 568.296C-252.99 566.578 -268.984 561.363 -268.984 561.363C-268.984 561.363 -286.577 571.792 -294.574 569.955C-302.571 568.118 -307.37 572.563 -315.367 570.726C-323.363 568.948 -325.733 573.215 -331.36 571.318C-336.929 569.422 -337.758 573.629 -342.556 571.733C-347.354 569.837 -351.323 572.029 -351.323 572.029L-364 572.504V640H275.048H773.408V568.178C768.491 568.118 762.686 568.592 755.163 570.37Z" fill="#1AC4F6"/>
<rect opacity="0.7" x="-115" width="640" height="640" fill="black"/>
</g>
<defs>
<clipPath id="clip0_489_16821">
<rect width="1138" height="640" fill="white" transform="translate(-364)"/>
</clipPath>
</defs>
</svg>
