<svg width="352" height="460" viewBox="0 0 352 460" fill="none" xmlns="http://www.w3.org/2000/svg">
<g clip-path="url(#clip0_504_28612)">
<path fill-rule="evenodd" clip-rule="evenodd" d="M0 3.47002C153.623 -1.18946 191.955 -2.0817 344.195 6.64244C340.935 154.259 339.75 301.776 340.244 449.392C190.671 445.03 155.006 445.229 5.33483 449.392C5.53242 300.785 3.55655 152.078 0 3.47002Z" fill="url(#paint0_linear_504_28612)"/>
<path fill-rule="evenodd" clip-rule="evenodd" d="M349.629 460L340.244 449.392C190.671 445.03 155.006 445.229 5.33484 449.392L13.0407 460C161.823 454.052 200.451 453.854 349.629 460Z" fill="#601609"/>
<path fill-rule="evenodd" clip-rule="evenodd" d="M344.195 6.64209C340.935 154.258 339.75 301.776 340.244 449.392L349.629 460C353.581 312.582 349.036 171.508 351.901 17.2498L344.195 6.64209Z" fill="#842114"/>
<g style="mix-blend-mode:multiply" opacity="0.3">
<path d="M85.4561 364.034C176.939 348.073 260.32 277.685 340.244 324.974C340.244 311.789 340.342 298.504 340.441 285.319C305.073 263.509 257.949 268.069 220.408 274.81C265.161 257.858 306.753 253.595 340.54 268.763C340.54 263.707 340.639 258.651 340.639 253.694C323.646 249.927 307.346 248.043 291.143 247.845C238.981 247.25 186.917 265.491 137.125 282.246C93.5571 297.017 50.0881 309.509 4.93966 310.5C5.03846 324.776 5.13725 339.052 5.23604 353.328C17.0912 359.573 57.794 366.017 85.4561 364.034ZM4.05052 222.664C65.6975 228.216 137.915 194.509 203.119 160.901C250.243 136.612 296.972 110.341 342.417 100.228C342.911 71.875 343.405 43.5215 343.998 15.2672L343.701 15.1681C319.201 41.3405 294.601 62.3578 267.433 80.5991C227.817 107.267 187.312 124.22 145.127 143.155C98.2004 164.172 45.0497 187.47 3.55656 184.297C3.75414 197.086 3.85294 209.875 4.05052 222.664ZM87.0368 175.177C146.51 149.897 207.564 125.31 265.655 90.4138C221.494 136.711 151.45 153.664 87.0368 175.177ZM114.501 99.5345C153.129 78.8147 189.485 46.1983 217.345 0.793103C199.957 0.297414 183.656 0 167.158 0C133.667 46.5948 110.55 60.5733 71.3287 74.75C102.152 52.1466 119.243 33.806 139.694 0.0991379C131.988 0.198276 123.985 0.297414 115.687 0.49569C97.8052 25.181 83.7766 41.5388 68.0685 55.0215C51.9652 68.9009 27.5633 79.7069 1.97587 93.4871C2.27225 107.168 2.46983 120.849 2.76621 134.53C35.5655 127.392 79.2321 118.371 114.501 99.5345ZM304.48 154.655C293.218 155.845 283.141 157.431 271.484 160.504C247.477 166.849 222.482 181.422 200.056 194.013C184.052 203.034 163.997 216.022 147.597 222.168C176.741 206.802 209.343 183.306 234.634 171.112C256.171 160.802 281.462 153.168 304.48 154.655ZM82.6899 152.97C56.0157 160.603 29.3416 164.371 3.16139 162.586C3.16139 164.272 3.26018 165.957 3.26018 167.642C29.638 169.03 56.7073 164.966 83.579 156.737C117.761 146.328 157.476 128.384 189.09 109.746C193.239 107.267 191.955 108.06 196.006 105.384C191.264 107.565 193.437 106.474 188.794 108.853C154.315 126.401 119.145 142.461 82.6899 152.97ZM340.145 353.328C303.295 326.461 274.546 324.082 230.781 338.259C216.752 342.819 203.119 349.065 189.288 354.22C185.534 355.608 186.818 355.211 183.064 356.203C186.818 354.22 185.138 355.013 189.09 353.228C202.427 347.082 216.555 340.34 230.287 335.483C273.756 320.017 303.493 322 340.244 347.28C340.145 349.362 340.145 351.345 340.145 353.328ZM340.145 409.836C303.987 401.806 264.963 403.987 215.468 415.19C263.185 408.349 300.232 407.655 340.145 414.099V409.836ZM6.02639 408.349C213.294 417.767 212.998 376.328 310.112 381.483C319.793 381.978 329.179 384.953 340.244 388.621C340.244 391 340.244 393.379 340.244 395.759C328.685 392.983 319.003 391.397 309.223 390.901C284.623 389.612 258.245 394.767 233.745 398.435C153.031 410.431 79.5285 420.444 6.32277 414.892C6.12518 412.81 6.12518 410.629 6.02639 408.349ZM100.473 256.172C94.0511 256.172 87.9259 255.181 80.22 254.289C55.0278 251.414 26.8717 254.289 4.4457 257.461C4.4457 255.578 4.4457 253.793 4.3469 251.909C28.5512 249.53 55.0278 249.233 80.5164 252.207C89.309 253.198 97.904 254.289 105.61 253.297C110.846 252.603 115.094 250.72 120.034 248.638C194.03 218.004 255.479 166.155 341.33 177.358C341.33 179.34 341.33 181.224 341.232 183.207C239.178 169.228 168.739 241.897 74.5888 268.664C55.1266 274.216 29.5392 276.892 4.54449 278.379C4.54449 276.397 4.54449 274.513 4.4457 272.53C29.0452 271.043 54.1387 268.267 73.4033 263.806C82.7887 261.724 91.68 259.147 100.473 256.172ZM342.318 108.853C315.249 114.207 287.389 124.319 259.431 136.81C264.469 137.306 268.52 138.892 272.175 139.983C275.929 141.172 279.288 142.362 283.141 141.668C302.9 138.297 322.164 130.565 342.121 128.185C342.121 130.466 342.022 132.746 342.022 135.026C322.362 137.108 303.097 143.254 283.635 145.931C279.091 146.526 276.028 144.642 271.978 143.353C261.308 139.983 256.368 138 245.6 143.056C232.065 149.401 218.629 156.142 205.095 163.082C139.397 196.888 67.0806 235.453 4.3469 230.595C4.3469 227.918 4.24811 225.241 4.24811 222.565C65.895 228.116 138.113 194.409 203.316 160.802C218.036 153.267 232.658 145.435 247.279 138C278.695 122.634 309.025 107.466 342.615 100.03C342.417 103.103 342.318 105.978 342.318 108.853ZM5.23604 364.53C23.9079 367.504 58.4855 368.397 83.3814 364.332C175.654 349.164 259.727 277.289 340.244 324.974C340.244 326.957 340.244 328.841 340.244 330.823C282.548 292.457 232.757 322.694 166.862 346.586C139.496 356.5 111.142 363.737 83.8754 368.198C58.288 372.461 27.1681 374.246 5.33484 373.651C5.23604 370.677 5.23604 367.603 5.23604 364.53ZM4.84087 304.651C49.3966 303.957 92.9644 294.043 136.236 279.47C213.591 253.297 272.274 228.909 340.639 245.862C340.639 248.539 340.639 251.116 340.54 253.793C323.548 250.026 307.247 248.142 291.045 247.944C238.882 247.349 186.818 265.59 137.026 282.345C93.5571 297.017 50.0881 309.509 4.93966 310.5C4.93966 308.517 4.84087 306.634 4.84087 304.651ZM3.35897 175.871C44.0618 179.836 97.6076 161.297 144.04 140.478C215.369 108.457 277.115 73.4612 332.637 13.1853C336.391 13.7802 340.046 14.4741 343.701 15.1681C319.201 41.3405 294.601 62.3578 267.433 80.5991C227.817 107.267 187.312 124.22 145.127 143.155C98.2004 164.172 45.0497 187.47 3.55656 184.297C3.45777 181.522 3.45777 178.647 3.35897 175.871ZM2.76621 134.431C35.5655 127.293 79.2321 118.371 114.501 99.4353C153.129 78.8147 189.485 46.1983 217.345 0.793103C219.321 0.892241 221.297 0.892241 223.273 0.991379C194.623 48.9741 156.291 80.5991 116.082 102.112C80.1212 121.345 36.1583 132.547 2.86501 140.28C2.76621 138.397 2.76621 136.414 2.76621 134.431ZM1.87708 88.1336C25.4886 77.1293 51.1749 65.9267 66.389 52.7414C80.9116 40.3491 95.8294 23.0991 110.648 0.594828C112.328 0.594828 114.007 0.49569 115.687 0.49569C97.8052 25.181 83.7766 41.5388 68.0685 55.0215C51.9652 68.9009 27.5633 79.7069 1.97587 93.4871L1.87708 88.1336Z" fill="#B15512"/>
</g>
<g style="mix-blend-mode:screen">
<path opacity="0.5" fill-rule="evenodd" clip-rule="evenodd" d="M84.2706 42.431C97.7064 29.2456 109.265 14.9698 121.318 0.396484C119.441 0.396484 117.564 0.495622 115.588 0.495622C97.7064 25.181 83.6778 41.5387 67.9697 55.0215C51.8664 68.9008 27.4645 79.7068 1.87708 93.487C1.87708 95.3706 1.97587 97.1551 1.97587 99.0387C31.7126 82.2844 57.5964 68.7025 84.2706 42.431Z" fill="url(#paint1_radial_504_28612)"/>
<path opacity="0.5" fill-rule="evenodd" clip-rule="evenodd" d="M223.273 0.89209C194.623 48.974 156.291 80.599 116.082 102.112C80.1212 121.345 36.1583 132.547 2.86499 140.28V142.164C28.7488 136.81 61.3505 130.465 86.444 120.849C92.7668 121.741 97.3112 121.146 98.2992 120.353C100.374 118.569 101.757 116.487 103.239 113.909C107.882 111.827 112.427 109.547 116.872 107.168C160.736 83.8705 196.994 45.2067 226.434 1.09037C225.347 0.991228 224.359 0.991228 223.273 0.89209Z" fill="url(#paint2_radial_504_28612)"/>
<path opacity="0.5" fill-rule="evenodd" clip-rule="evenodd" d="M145.127 143.155C98.2003 164.172 45.0496 187.47 3.55652 184.297C3.55652 185.983 3.55652 187.668 3.65531 189.254C37.3438 189.155 61.0541 184.496 95.1378 169.427C117.07 159.711 138.508 148.608 160.242 138.297C170.418 133.44 180.594 128.78 190.671 124.021C258.146 91.9007 286.698 77.8232 339.157 26.3706C340.738 24.8835 342.318 23.2973 343.899 21.7111C343.899 19.5301 343.998 17.349 343.998 15.168L343.701 15.0688C319.201 41.2413 294.601 62.2585 267.433 80.4999C227.817 107.267 187.411 124.22 145.127 143.155Z" fill="url(#paint3_radial_504_28612)"/>
<path opacity="0.5" fill-rule="evenodd" clip-rule="evenodd" d="M204.897 163.28C139.2 197.086 66.8829 235.651 4.14929 230.793V234.659C9.38533 235.056 20.7465 235.254 25.3898 235.353C27.8596 237.138 30.9222 238.03 31.515 238.03C31.8114 238.03 33.6884 236.741 34.5776 235.353C54.435 234.758 70.8347 230.595 95.533 220.483C142.46 201.25 195.018 170.121 242.241 144.741C229.892 150.59 217.345 156.836 204.897 163.28Z" fill="url(#paint4_radial_504_28612)"/>
<path opacity="0.5" fill-rule="evenodd" clip-rule="evenodd" d="M74.6877 268.763C55.2254 274.315 29.638 276.991 4.64331 278.479V282.246C61.7458 278.578 98.2992 266.384 149.672 238.229C125.764 250.026 101.164 261.229 74.6877 268.763Z" fill="url(#paint5_radial_504_28612)"/>
<path opacity="0.5" fill-rule="evenodd" clip-rule="evenodd" d="M137.125 282.345C93.5572 297.017 50.0882 309.509 4.9397 310.5V313.474C46.5316 310.5 73.4034 304.849 114.995 290.871C127.542 286.707 139.99 282.444 152.438 278.28C172.987 271.44 193.536 264.996 214.579 259.742C258.739 248.836 297.664 247.25 340.639 258.75C340.639 257.065 340.639 255.379 340.639 253.793C323.646 250.026 307.346 248.142 291.143 247.944C244.711 247.448 198.278 261.823 153.525 276.892C147.992 278.677 142.559 280.461 137.125 282.345Z" fill="url(#paint6_radial_504_28612)"/>
<path opacity="0.5" fill-rule="evenodd" clip-rule="evenodd" d="M83.8754 368.297C58.288 372.56 27.1681 374.345 5.33484 373.75C5.33484 375.534 5.33484 377.418 5.33484 379.202C32.009 379.004 60.0662 377.616 81.5044 373.948C101.955 370.478 122.306 364.927 147.202 356.302C176.741 346.09 205.391 332.806 235.325 322.991C270.101 311.59 298.652 312.185 328.586 323.884C275.732 296.521 228.311 324.28 166.862 346.586C140.188 356.202 112.624 363.34 85.9501 367.802C85.2585 368 84.567 368.099 83.8754 368.297Z" fill="url(#paint7_radial_504_28612)"/>
<path opacity="0.5" fill-rule="evenodd" clip-rule="evenodd" d="M233.646 398.435C191.066 404.78 152.438 410.53 114.6 413.802C159.353 411.621 199.365 406.565 245.007 400.418C282.548 395.362 304.481 390.604 340.145 400.914C340.145 399.229 340.145 397.543 340.145 395.858C328.586 393.082 318.904 391.496 309.124 391C284.524 389.711 258.147 394.866 233.646 398.435Z" fill="url(#paint8_radial_504_28612)"/>
<path opacity="0.5" fill-rule="evenodd" clip-rule="evenodd" d="M214.776 187.271C240.66 173.095 262.592 162.784 292.033 156.241C285.413 157.233 278.794 158.621 271.484 160.504C253.207 165.263 234.337 174.879 216.555 184.793C210.923 187.866 205.391 191.039 200.056 194.013C185.04 202.439 166.565 214.336 150.758 220.879C168.442 214.138 182.471 205.215 199.365 195.797C204.699 192.823 209.837 189.948 214.776 187.271Z" fill="url(#paint9_radial_504_28612)"/>
<path opacity="0.5" fill-rule="evenodd" clip-rule="evenodd" d="M3.35901 171.211C22.2285 172.401 52.064 169.625 77.9478 160.703C92.7668 155.547 106.795 149.599 120.923 143.354C108.179 148.509 95.6318 153.069 83.6778 156.737C56.8061 164.966 29.8356 169.03 3.35901 167.642V171.211Z" fill="url(#paint10_radial_504_28612)"/>
<path opacity="0.5" fill-rule="evenodd" clip-rule="evenodd" d="M229.694 338.655C271.978 326.56 307.444 327.155 340.145 359.078C340.145 357.194 340.145 355.211 340.145 353.328C303.295 326.461 274.546 324.082 230.781 338.259C230.484 338.457 230.089 338.556 229.694 338.655Z" fill="url(#paint11_radial_504_28612)"/>
</g>
<path fill-rule="evenodd" clip-rule="evenodd" d="M2.66742 8.12951C85.7525 3.6683 194.425 1.38813 341.034 10.8062C341.232 10.8062 341.33 10.8062 341.528 10.8062C341.528 47.4873 341.726 84.0692 342.121 120.651C342.713 82.6812 343.405 44.6123 344.195 6.64244C191.955 -2.0817 153.623 -1.18946 0 3.47002C0.987932 44.9097 1.87707 86.3493 2.56862 127.69C3.45776 87.2416 3.75414 49.47 2.66742 8.12951Z" fill="#FFEBAC"/>
<g style="mix-blend-mode:multiply">
<path fill-rule="evenodd" clip-rule="evenodd" d="M332.143 435.414C331.747 426.393 330.661 400.716 330.661 400.716C328.981 356.897 327.104 259.94 327.104 259.94C326.314 196.888 334.711 40.746 327.005 25.7762C323.844 23.8926 74.7864 27.3624 22.3272 30.0391C23.2163 50.3624 26.3777 241.005 24.5006 306.138L23.9079 324.578C23.0188 351.643 20.8453 400.022 19.3634 426.888C37.245 437.793 55.4229 435.811 74.0948 438.091C127.937 444.733 280.968 440.371 332.143 435.414Z" fill="url(#paint12_radial_504_28612)"/>
</g>
<path fill-rule="evenodd" clip-rule="evenodd" d="M328.586 426.095C328.191 417.272 327.203 392.19 327.203 392.19C325.523 349.362 323.745 254.586 323.745 254.586C322.955 192.923 331.253 40.4484 323.646 25.776C320.485 23.8924 77.1574 27.3622 25.9826 29.9398C26.8717 49.7674 29.9343 236.048 28.156 299.694L27.5632 317.638C26.6741 344.009 24.5007 391.298 23.1176 417.668C40.6039 428.276 58.3867 426.392 76.5646 428.573C129.024 435.117 278.597 430.854 328.586 426.095Z" fill="url(#paint13_linear_504_28612)"/>
<g style="mix-blend-mode:screen" opacity="0.75">
<path fill-rule="evenodd" clip-rule="evenodd" d="M82.6898 420.543C76.6634 416.677 65.1046 418.858 61.7456 407.754C52.1627 376.03 46.0375 400.418 36.0594 391.793C29.3415 386.043 30.033 340.935 42.3822 317.44C53.7434 295.828 33.0956 271.836 33.7872 226.53C34.2811 197.483 45.5436 151.681 47.3218 138.198C49.0013 125.707 51.1748 119.065 42.5798 101.319C39.2208 94.4784 42.9749 91.306 34.8739 73.8577C30.6258 64.737 32.0089 58.293 36.1582 53.6336C49.1989 38.9612 73.0081 35.0948 96.422 38.9612C162.021 49.7672 166.071 56.3103 221.692 41.4396C236.412 37.4741 241.648 38.6637 251.132 37.1767C258.443 35.987 266.149 34.3017 272.471 36.9784C285.611 42.431 288.377 44.7112 299.738 55.7155C316.039 71.5775 327.203 42.7284 319.102 88.8275C315.051 112.026 307.839 161.297 315.446 190.047C317.62 198.375 317.62 219.194 315.15 226.828C305.271 257.362 296.083 252.603 309.223 270.052C319.991 284.228 304.876 295.927 312.581 311.888C320.09 327.254 316.533 342.323 308.235 373.75C307.148 378.013 312.68 383.267 302.307 391.694C294.996 397.543 320.781 414.297 262.592 414.297C246.094 414.297 240.956 422.724 224.26 422.03C209.639 421.435 199.463 422.427 188.003 423.517C167.059 425.401 145.917 418.56 142.954 418.759C118.947 419.75 102.251 433.034 82.6898 420.543Z" fill="url(#paint14_radial_504_28612)"/>
</g>
<g style="mix-blend-mode:screen" opacity="0.75">
<path fill-rule="evenodd" clip-rule="evenodd" d="M50.4832 371.47C42.481 361.556 45.1484 342.621 50.582 314.862C58.7818 273.621 42.6785 263.211 40.9991 237.535C38.7268 204.621 40.6039 220.78 49.1989 197.483C54.5337 183.108 40.3075 178.647 56.806 151.681C69.0563 131.655 66.0925 115.298 54.9289 96.9571C45.9387 82.0864 44.852 61.7631 54.5337 51.8493C69.6491 36.4829 86.9379 53.8321 98.7931 54.8234C102.35 55.1209 106.894 53.9312 114.402 49.9657C122.997 45.4053 144.732 58.1941 161.329 62.2588C180.297 66.9183 196.697 66.4226 221.395 48.6769C242.932 33.1122 272.768 54.3278 278.893 69.8924C280.572 74.1553 301.517 60.5735 301.023 85.0605C300.529 109.548 313.668 111.927 302.505 140.379C300.43 145.634 299.047 175.673 302.702 184.694C306.95 195.004 306.95 218.104 302.505 227.125C290.057 252.504 307.839 273.224 298.652 291.664C289.365 310.302 297.268 325.173 297.268 339.448C297.268 369.388 289.563 351.246 293.91 380.392C297.664 405.871 282.45 409.341 266.346 404.285C255.677 400.914 240.364 413.703 223.964 414.793C204.205 416.181 199.76 402.698 182.866 406.862C157.18 413.306 147.399 392.686 129.617 408.746C115.884 421.138 102.646 417.966 96.7184 409.638C89.1113 398.931 89.8029 421.832 77.9477 399.427C66.4877 377.914 50.4832 371.47 50.4832 371.47Z" fill="url(#paint15_radial_504_28612)"/>
</g>
</g>
<defs>
<linearGradient id="paint0_linear_504_28612" x1="172.109" y1="0.000196042" x2="172.109" y2="449.381" gradientUnits="userSpaceOnUse">
<stop stop-color="#D49649"/>
<stop offset="0.2211" stop-color="#D08F43"/>
<stop offset="0.5368" stop-color="#C67C33"/>
<stop offset="0.9079" stop-color="#B65E19"/>
<stop offset="1" stop-color="#B15512"/>
</linearGradient>
<radialGradient id="paint1_radial_504_28612" cx="0" cy="0" r="1" gradientUnits="userSpaceOnUse" gradientTransform="translate(40.7603 -15.2881) scale(259.267 355.113)">
<stop stop-color="#B15512"/>
<stop offset="1"/>
</radialGradient>
<radialGradient id="paint2_radial_504_28612" cx="0" cy="0" r="1" gradientUnits="userSpaceOnUse" gradientTransform="translate(29.4545 142.81) scale(276.831 379.171)">
<stop stop-color="#B15512"/>
<stop offset="1"/>
</radialGradient>
<radialGradient id="paint3_radial_504_28612" cx="0" cy="0" r="1" gradientUnits="userSpaceOnUse" gradientTransform="translate(77.4871 107.392) scale(783.421 1073.04)">
<stop stop-color="#B15512"/>
<stop offset="1"/>
</radialGradient>
<radialGradient id="paint4_radial_504_28612" cx="0" cy="0" r="1" gradientUnits="userSpaceOnUse" gradientTransform="translate(11.8772 237.833) scale(435.959 597.125)">
<stop stop-color="#B15512"/>
<stop offset="1"/>
</radialGradient>
<radialGradient id="paint5_radial_504_28612" cx="0" cy="0" r="1" gradientUnits="userSpaceOnUse" gradientTransform="translate(-15.8063 291.245) scale(397.914 545.015)">
<stop stop-color="#B15512"/>
<stop offset="1"/>
</radialGradient>
<radialGradient id="paint6_radial_504_28612" cx="0" cy="0" r="1" gradientUnits="userSpaceOnUse" gradientTransform="translate(10.9579 305.636) scale(537.71 736.491)">
<stop stop-color="#B15512"/>
<stop offset="1"/>
</radialGradient>
<radialGradient id="paint7_radial_504_28612" cx="0" cy="0" r="1" gradientUnits="userSpaceOnUse" gradientTransform="translate(4.33242 382.936) scale(456.557 625.336)">
<stop stop-color="#B15512"/>
<stop offset="1"/>
</radialGradient>
<radialGradient id="paint8_radial_504_28612" cx="0" cy="0" r="1" gradientUnits="userSpaceOnUse" gradientTransform="translate(341.345 402.251) scale(469.448 642.994)">
<stop stop-color="#B15512"/>
<stop offset="1"/>
</radialGradient>
<radialGradient id="paint9_radial_504_28612" cx="0" cy="0" r="1" gradientUnits="userSpaceOnUse" gradientTransform="translate(271.786 140.203) scale(347.26 475.635)">
<stop stop-color="#B15512"/>
<stop offset="1"/>
</radialGradient>
<radialGradient id="paint10_radial_504_28612" cx="0" cy="0" r="1" gradientUnits="userSpaceOnUse" gradientTransform="translate(-0.187332 172.967) scale(268.281 367.459)">
<stop stop-color="#B15512"/>
<stop offset="1"/>
</radialGradient>
<radialGradient id="paint11_radial_504_28612" cx="0" cy="0" r="1" gradientUnits="userSpaceOnUse" gradientTransform="translate(342.222 359.043) scale(316.579 433.613)">
<stop stop-color="#B15512"/>
<stop offset="1"/>
</radialGradient>
<radialGradient id="paint12_radial_504_28612" cx="0" cy="0" r="1" gradientUnits="userSpaceOnUse" gradientTransform="translate(175.82 233.361) scale(284.071 575.188)">
<stop offset="0.00558659" stop-color="#D62B1F" stop-opacity="0.75"/>
<stop offset="1" stop-color="white"/>
</radialGradient>
<linearGradient id="paint13_linear_504_28612" x1="175.826" y1="25.2706" x2="175.826" y2="431.91" gradientUnits="userSpaceOnUse">
<stop offset="0.00537634" stop-color="#FFF4EE"/>
<stop offset="0.4917" stop-color="#FFF4EC"/>
<stop offset="0.6668" stop-color="#FFF3E5"/>
<stop offset="0.7916" stop-color="#FFF1DA"/>
<stop offset="0.8926" stop-color="#FFEFC9"/>
<stop offset="0.978" stop-color="#FFECB3"/>
<stop offset="1" stop-color="#FFEBAC"/>
</linearGradient>
<radialGradient id="paint14_radial_504_28612" cx="0" cy="0" r="1" gradientUnits="userSpaceOnUse" gradientTransform="translate(176.855 230.659) scale(289.367 399.201)">
<stop stop-color="#CA9E67"/>
<stop offset="1"/>
</radialGradient>
<radialGradient id="paint15_radial_504_28612" cx="0" cy="0" r="1" gradientUnits="userSpaceOnUse" gradientTransform="translate(173.545 230.32) scale(236.465 326.219)">
<stop stop-color="#CA9E67"/>
<stop offset="1"/>
</radialGradient>
<clipPath id="clip0_504_28612">
<rect width="352" height="460" fill="white"/>
</clipPath>
</defs>
</svg>
