<svg width="32" height="32" viewBox="0 0 32 32" fill="none" xmlns="http://www.w3.org/2000/svg">
<g clip-path="url(#clip0_311_291)">
<path d="M3.80005 5.60001C3.80005 5.60001 3.80005 6.06667 3.93338 6.46667C4.06672 6.86667 5.73338 8.26667 6.13338 8.13334C6.53338 7.93334 6.73338 7.40001 6.73338 7.26667C6.73338 7.13334 6.13338 6.20001 6.00005 6.00001C5.80005 5.86667 3.80005 5.60001 3.80005 5.60001Z" fill="#B15512"/>
<path d="M7.06655 2.73334C7.06655 2.73334 6.46655 3.4 6.46655 3.73334C6.46655 4.06667 7.39989 6.26667 7.59989 6.8C7.79989 7.33334 8.33322 6.6 8.46655 5.86667C8.53322 5.13334 7.06655 2.73334 7.06655 2.73334Z" fill="#B15512"/>
<path d="M21.2 27.2C21.7333 27.1333 23.1333 28.3333 24.4 29.6C28.9333 26.8 32 21.8 32 16C32 7.13333 24.8667 0 16 0C12.6667 0 9.6 1 7.06667 2.73333C7.6 4.66667 8.13333 6.33333 7.8 6.46667C7.6 6.46667 6.66667 5.8 5.66667 5C5.4 4.8 4.8 4.6 4.33333 5C4.2 5.2 4 5.4 3.8 5.6C5 6.6 5.93333 7.46667 5.86667 7.6C5.8 7.73333 4.73333 7.4 3.6 7C3.4 6.93333 2.73333 6.93333 2.33333 7.66667C1 10.1333 0 12.9333 0 16C0 24.8667 7.13333 32 16 32C17.5333 32 18.9333 31.8 20.3333 31.4C21 31.2 22.2667 30.8 21.9333 30.0667C21.3333 28.4667 20.8 27.2667 21.2 27.2Z" fill="#B15512"/>
<path d="M30.5332 16C30.5332 8.00001 23.9999 1.46667 15.9999 1.46667C12.7999 1.46667 9.86655 2.46668 7.53322 4.20001C7.53322 4.26668 7.53322 4.26667 7.59989 4.33334V4.40001C7.59989 4.46667 7.66655 4.60001 7.66655 4.66668V4.73334C7.66655 4.80001 7.66655 4.86667 7.73322 4.93334V5.00001C7.73322 5.06667 7.73322 5.13334 7.79989 5.20001C7.79989 5.20001 7.79989 5.20001 7.79989 5.26667C7.79989 5.33334 7.79989 5.40001 7.86655 5.46667V5.53334C7.86655 5.60001 7.86655 5.60001 7.86655 5.66668V5.73334C7.86655 5.80001 7.86655 5.86668 7.86655 5.86668C7.86655 5.93334 7.86655 5.93334 7.86655 6.00001C7.86655 6.00001 7.86655 6.00001 7.86655 6.06668C7.86655 6.13334 7.86655 6.13334 7.86655 6.13334C7.86655 6.20001 7.86655 6.20001 7.86655 6.20001V6.26667C7.86655 6.26667 7.86655 6.26667 7.79989 6.26667C7.79989 6.26667 7.73322 6.26667 7.66655 6.26667H7.59989C7.53322 6.26667 7.53322 6.26667 7.46655 6.20001C7.46655 6.20001 7.39989 6.20001 7.39989 6.13334C7.33322 6.13334 7.33322 6.06668 7.26655 6.06668L7.19989 6.00001C7.13322 6.00001 7.06655 5.93334 6.99989 5.86668L6.93322 5.80001C6.86655 5.73334 6.79989 5.66667 6.66655 5.60001C6.66655 5.60001 6.66655 5.60001 6.59989 5.60001C6.59989 5.73334 6.53322 5.66667 6.39989 5.60001C6.39989 5.60001 6.39989 5.60001 6.33322 5.53334C6.26655 5.46668 6.19989 5.46668 6.13322 5.40001C5.73322 5.73334 5.33322 6.20001 4.93322 6.60001C5.13322 6.80001 5.33322 7.00001 5.46655 7.13334C5.53322 7.20001 5.53322 7.20001 5.59989 7.26667C5.66655 7.33334 5.73322 7.40001 5.79989 7.46667V7.53334C5.79989 7.53334 5.79989 7.53334 5.79989 7.60001C5.79989 7.60001 5.79989 7.60001 5.73322 7.60001H5.66655C5.59989 7.60001 5.59989 7.60001 5.53322 7.60001C5.53322 7.60001 5.53322 7.60001 5.46655 7.60001C5.39989 7.60001 5.33322 7.60001 5.33322 7.53334C5.26655 7.53334 5.19989 7.53334 5.13322 7.46667C5.13322 7.46667 5.13322 7.46667 5.06655 7.46667C4.99989 7.46667 4.93322 7.40001 4.86655 7.40001C4.79989 7.40001 4.73322 7.33334 4.66655 7.33334C4.66655 7.33334 4.66655 7.33334 4.59989 7.33334C4.53322 7.33334 4.39989 7.26667 4.33322 7.26667C2.59989 9.73334 1.46655 12.7333 1.46655 16C1.46655 24 7.99989 30.5333 15.9999 30.5333C17.9332 30.5333 19.9999 30.1333 21.6666 29.4C21.1999 28.3333 20.9332 27.4667 21.0666 27.2667C21.0666 27.2667 21.0666 27.2667 21.1332 27.2H21.1999C21.2666 27.2 21.2666 27.2 21.3332 27.2C21.3332 27.2 21.3332 27.2 21.3999 27.2C21.4666 27.2 21.4666 27.2 21.5332 27.2667C21.5999 27.2667 21.6666 27.3333 21.7332 27.4C21.7332 27.4 21.7332 27.4 21.7999 27.4C21.8666 27.4667 21.9332 27.4667 21.9999 27.5333C21.9999 27.5333 22.0666 27.5333 22.0666 27.6C22.1332 27.6667 22.2666 27.7333 22.3332 27.8C22.3999 27.8667 22.5332 27.9333 22.5999 28C22.5999 28 22.6666 28 22.6666 28.0667C22.8666 28.2 23.0666 28.4 23.2666 28.6C27.5999 26.0667 30.5332 21.4 30.5332 16Z" fill="url(#paint0_linear_311_291)"/>
<path opacity="0.2" d="M21.4667 14.0667C20.5334 10.8667 16.6 10.1333 14 11.8667C11.6667 13.4667 8.86669 16.7333 11.2 19.6C13.0667 21.8667 16.7334 22.2667 19.2667 20.9333C19.3334 20.8667 19.4 20.8 19.4 20.7333C21.4667 19.3333 22.1334 16.4667 21.4667 14.0667ZM18.4667 20.6667C16.4 21.4667 13.8 21.1333 12.1334 19.6667C10.9334 18.6667 10.6667 16.8 11.3334 15.4667C11.8667 14.4 13.1334 13.4667 14 12.6667C16.4667 10.4 20.2667 11.6667 20.9334 14.8667C21.4667 17.0667 20.5334 19.6667 18.4667 20.6667Z" fill="#FCD077"/>
<path opacity="0.2" d="M17.9334 15.5333C17.6001 14.4 16.2001 14.1333 15.2667 14.7333C14.4001 15.3333 13.4001 16.4667 14.2667 17.4667C14.9334 18.2667 16.2667 18.4 17.1334 17.9333L17.2001 17.8667C18.0001 17.4 18.2001 16.4 17.9334 15.5333Z" fill="#FCD077"/>
<path d="M4.93322 23.9333C0.0665525 18.1333 2.86655 10.5333 7.26655 6.13333C7.19989 6.13333 7.19989 6.06666 7.13322 6.06666L7.06655 5.99999C6.99989 5.93333 6.93322 5.86666 6.79989 5.79999C6.79989 5.79999 6.79989 5.79999 6.73322 5.79999C6.59989 5.73333 6.53322 5.66666 6.39989 5.59999C6.39989 5.59999 6.39989 5.59999 6.33322 5.53333C6.26655 5.46666 6.19989 5.46666 6.13322 5.39999C5.73322 5.73333 5.33322 6.19999 4.93322 6.59999C5.13322 6.79999 5.33322 6.99999 5.46655 7.13333C5.53322 7.19999 5.53322 7.19999 5.59989 7.26666C5.66655 7.33333 5.73322 7.39999 5.79989 7.46666V7.53333C5.79989 7.53333 5.79989 7.53333 5.79989 7.59999C5.79989 7.59999 5.79989 7.59999 5.73322 7.59999H5.66655C5.59989 7.59999 5.59989 7.59999 5.53322 7.59999C5.53322 7.59999 5.53322 7.59999 5.46655 7.59999C5.39989 7.59999 5.33322 7.59999 5.33322 7.53333C5.26655 7.53333 5.19989 7.53333 5.13322 7.46666C5.13322 7.46666 5.13322 7.46666 5.06655 7.46666C4.99989 7.46666 4.93322 7.39999 4.86655 7.39999C4.79989 7.39999 4.73322 7.33333 4.66655 7.33333C4.66655 7.33333 4.66655 7.33333 4.59989 7.33333C4.53322 7.33333 4.39989 7.26666 4.33322 7.26666C2.59989 9.73333 1.46655 12.7333 1.46655 16C1.46655 24 7.99989 30.5333 15.9999 30.5333C17.9332 30.5333 19.9999 30.1333 21.6666 29.4C21.5332 29.0667 21.3999 28.7333 21.3332 28.4667C15.7332 30.1333 8.73322 28.4667 4.93322 23.9333Z" fill="url(#paint1_linear_311_291)"/>
<path d="M15.9999 1.46667C12.7999 1.46667 9.86654 2.46668 7.5332 4.20001C7.5332 4.26668 7.5332 4.26667 7.59987 4.33334V4.40001C7.59987 4.46667 7.66654 4.60001 7.66654 4.66668V4.73334C7.66654 4.80001 7.66654 4.86667 7.7332 4.93334V5.00001C7.7332 5.06667 7.7332 5.13334 7.79987 5.20001C7.79987 5.20001 7.79987 5.20001 7.79987 5.26667C7.79987 5.33334 7.79987 5.40001 7.86654 5.46667V5.53334V5.60001C8.3332 5.20001 8.7332 4.86668 9.19987 4.53334C15.1332 0.466675 26.3999 3.60001 28.5999 11.0667C30.1999 16.5333 28.7332 23.6667 24.0665 27.0667C23.9999 27.2667 23.9332 27.4 23.7332 27.5333C23.3999 27.7333 23.0665 27.8667 22.6665 28C22.8665 28.1333 23.0665 28.3333 23.2665 28.5333C27.5999 26 30.5332 21.3333 30.5332 16C30.5332 8.00001 23.9999 1.46667 15.9999 1.46667Z" fill="url(#paint2_linear_311_291)"/>
<path opacity="0.2" d="M26.3333 11.5333C24.4666 5.26668 16.8 3.86668 11.8666 7.33335C7.33331 10.4667 1.86664 16.8 6.46664 22.2667C10.1333 26.6667 17.2666 27.4 22.2 24.8667C22.4 24.8 22.4666 24.6667 22.4666 24.5333C26.4 21.6667 27.6666 16.0667 26.3333 11.5333ZM20.8 24.8C16.5333 26.4667 11.1333 25.7333 7.73331 22.7333C5.33331 20.6667 4.79998 16.8667 6.19998 14.1333C7.33331 11.9333 9.93331 10 11.7333 8.40001C16.8666 3.80001 24.6 6.40001 26.0666 12.8667C27.0666 17.3333 25 22.7333 20.8 24.8Z" fill="#FCD077"/>
<path opacity="0.1" d="M11.6 24C9.73332 24 8.46665 22.8667 7.93332 21.9333C7.33332 20.8667 7.39999 19.6667 8.13332 18.8C8.59999 18.2667 9.26665 18 10.1333 18C9.86665 11.0667 10.1333 10.6667 10.2667 10.4C10.4667 10.0667 10.8667 9.86665 11.9333 9.53332C12.6 9.33332 13.4667 9.13332 14.4667 8.86665C16.6 8.39999 18.8 7.99999 19.9333 7.93332C20.8 7.86665 21.4 7.93332 21.7333 8.33332C21.9333 8.59999 22.0667 8.73332 22.1333 10.7333C22.2 11.8 22.2 13.2667 22.2 14.6C22.1333 20.4667 21.8 20.8667 21.5333 21.1333C21.2 21.4667 20.8 21.9333 19.8667 22.1333C19.6 22.2 19.3333 22.2 19.0667 22.2C17.2 22.2 15.9333 21.0667 15.4 20.1333C14.8 19.0667 14.8667 17.8667 15.6 17C16.0667 16.4667 16.8667 16.2 17.8 16.2C17.8 14.8 17.8 13.8 17.7333 13.2667C17.4 13.3333 17 13.4 16.3333 13.6C15.6 13.8 15 14 14.6667 14.1333C14.6667 14.7333 14.6667 15.8 14.6667 16.5333C14.7333 20.5333 14.7333 22.0667 14.3333 22.7333C13.9333 23.3333 13.3333 23.7333 12.5333 23.8667C12.1333 24 11.8667 24 11.6 24Z" fill="#D49649"/>
<path opacity="0.25" d="M11.6 23.6666C9.86668 23.6666 8.73335 22.6666 8.20002 21.8C7.66668 20.8666 7.73335 19.8 8.33335 19.0666C8.86668 18.4666 9.66668 18.3333 10.4 18.4666C10.1333 11.2666 10.4 10.8666 10.4667 10.6666C10.6 10.4666 10.8667 10.2666 11.9333 9.93331C12.6 9.73331 13.4667 9.53331 14.4667 9.26664C16.6 8.79998 18.7333 8.39998 19.9333 8.33331C20.8 8.26664 21.2 8.33331 21.4 8.59998C21.5333 8.73331 21.6 8.86664 21.6667 10.8C21.7333 11.8666 21.7333 13.2666 21.7333 14.6666C21.6667 20.4 21.3333 20.7333 21.1333 20.9333C20.8667 21.2666 20.4667 21.6666 19.6667 21.8C19.4 21.8666 19.1333 21.8666 18.9333 21.8666C17.3333 21.8666 16.1333 21 15.5333 20C15 19.0666 15.0667 18 15.6667 17.2666C16.1333 16.6666 17.1333 16.5333 17.9333 16.6666C17.9333 14.8666 17.9333 13.4666 17.8667 12.8666C17.6 12.8666 17.0667 13 16 13.2666C15 13.5333 14.3333 13.8 14.0667 13.9333C14.0667 14.4 14.0667 15.6666 14.0667 16.6C14.1333 20.2666 14.1333 22 13.7333 22.6C13.4 23.1333 12.9333 23.4666 12.2 23.5333C12.0667 23.6666 11.8667 23.6666 11.6 23.6666Z" fill="#D49649"/>
<path opacity="0.4" d="M11.5999 23.2667C10.1333 23.2667 9.0666 22.4667 8.53327 21.6C8.0666 20.8 8.13327 19.9333 8.6666 19.2667C9.13327 18.6667 10.0666 18.6667 10.8666 18.8667C10.7999 16.8 10.5999 11.2667 10.8666 10.8C10.9333 10.6667 11.0666 10.5333 12.1333 10.2667C12.7999 10.0667 13.6666 9.86666 14.6666 9.59999C16.7999 9.13332 18.9333 8.73332 20.0666 8.66666C20.9333 8.59999 21.1999 8.66666 21.2666 8.79999C21.3333 8.86666 21.3999 8.93332 21.4666 10.7333C21.5333 11.8 21.5333 13.2 21.5333 14.6C21.5333 17.1333 21.3999 20.2667 21.0666 20.6667C20.7999 20.9333 20.4666 21.3333 19.7999 21.4C17.9999 21.7333 16.5999 20.8 16.0666 19.8C15.5999 19 15.6666 18.1333 16.1999 17.4667C16.6666 16.8667 17.7333 16.8667 18.5333 17.0667C18.5333 15 18.5333 12.8667 18.3999 12.4667C18.2666 12.4667 17.5999 12.4667 16.1333 12.9333C14.9999 13.2667 14.1333 13.6 13.9333 13.6667C13.8666 13.9333 13.8666 15.3333 13.9333 16.5333C13.9999 19.4667 13.9999 21.8 13.6666 22.3333C13.3999 22.7333 12.9999 23 12.3999 23.1333C12.0666 23.2667 11.7999 23.2667 11.5999 23.2667Z" fill="#D49649"/>
<path d="M21.0666 8.99999C20.6 8.46666 11.3333 10.4667 11 10.9333C10.7333 11.4 11 19.1333 11 19.1333C10.2 18.8667 9.19995 18.8667 8.73329 19.4C7.46662 20.9333 9.46662 23.5333 12.2 23.0667C12.8 22.9333 13.1333 22.6667 13.3333 22.3333C13.8666 21.4 13.3333 13.8667 13.6 13.6C13.8666 13.3333 18.0666 12 18.3333 12.4C18.5333 12.8 18.4666 17.3333 18.4666 17.3333C17.6666 17.0667 16.5333 17.0667 16.0666 17.6C14.8 19.1333 16.8 21.7333 19.5333 21.2667C20.1333 21.1333 20.4 20.8667 20.6666 20.5333C21.4 19.9333 21.3333 9.26666 21.0666 8.99999Z" fill="#B15512"/>
<path opacity="0.3" d="M20.9334 14.7333C21 18.5333 20.7334 19.8666 20.4001 20.6666C19.2001 21.6666 17.0667 20.8666 16.4001 19.6C16.2 19.1333 16.2667 18.4666 16.6 18.0666C17.3334 17.4666 19.1334 18.3333 19.2667 18.2666C19.4 18.2 18.8667 12.6 18.7334 12.4666C18.4667 12.0666 17 12.3333 15.9334 12.6666C14.0667 13.2666 13.6667 13.4666 13.6 13.5333C13.2667 13.8666 13.4667 15.8666 13.3334 17.4C13.3334 18.4666 13.3334 21.8 13.0667 22.2666C12.8667 22.4666 12.4667 22.9333 11.6 22.8666C10.3334 22.9333 9.33338 22.3333 8.73338 21.3333C8.53338 20.9333 8.60005 19.9333 9.66672 19.8C10.4667 19.6666 11.0667 20.2 11.2 19.8666C11.2667 19.7333 11.0667 11.8666 11.2 11.5333C11.8667 11.2666 13.3334 10.9333 15.3334 10.4666C17.4667 9.99997 19.9334 9.5333 20.2 9.7333C20.6 9.79997 20.8 9.93331 20.9334 14.7333ZM20.3334 8.86664C18 8.9333 11.2667 10.4666 11 10.9333C10.7334 11.4 11 19.1333 11 19.1333C10.6 19 10.2 18.9333 9.86672 18.9333C9.40005 18.9333 9.00005 19.0666 8.73338 19.4C7.53338 20.8 9.20005 23.2 11.7334 23.1333C11.8667 23.1333 12.0667 23.1333 12.2 23.0666C12.8 22.9333 13.1334 22.6666 13.3334 22.3333C13.8667 21.4 13.3334 13.8666 13.6 13.6C13.8667 13.4 17 12.3333 18 12.3333C18.2001 12.3333 18.2667 12.3333 18.3334 12.4C18.5334 12.8 18.4667 17.3333 18.4667 17.3333C18.0667 17.2 17.6667 17.1333 17.2 17.1333C16.7334 17.1333 16.2667 17.2666 16.0667 17.6C14.8667 19 16.5334 21.4 19.0667 21.3333C19.2001 21.3333 19.4 21.3333 19.5334 21.2666C20.1334 21.1333 20.4001 20.8666 20.6667 20.5333C21.2667 19.9333 21.2 9.26664 20.9334 8.9333C21 8.86664 20.7334 8.86664 20.3334 8.86664Z" fill="#B15512"/>
<g style="mix-blend-mode:screen" opacity="0.5">
<path d="M11.6001 17.4667C11.6001 17.4667 11.4001 11.9333 11.6667 11.6667C11.9334 11.4 19.2001 9.79999 19.8667 9.79999C20.5334 9.86665 19.1334 11.6667 19.1334 11.6667C19.1334 11.6667 16.8001 11.8667 15.0667 12.4C13.3334 12.8667 13.2001 13.1333 13.0001 13.4C12.8001 13.7333 12.8667 16.2667 12.8667 16.6667C12.8667 17.2 11.6001 17.4667 11.6001 17.4667Z" fill="url(#paint3_linear_311_291)"/>
</g>
<path d="M12.8 3.86668C12.0667 3.66668 10.8 4.53335 10.7333 5.06668C10.6667 5.73335 11.5333 5.60001 12.5333 5.13335C13.2667 4.66668 13.2667 3.93335 12.8 3.86668Z" fill="white"/>
<path d="M9.53331 5.86667C8.99997 5.93334 8.66664 6.33334 8.73331 6.66667C8.86664 7.13334 9.33331 7.06667 9.66664 6.66667C10.0666 6.26667 9.79997 5.86667 9.53331 5.86667Z" fill="white"/>
</g>
<defs>
<linearGradient id="paint0_linear_311_291" x1="17.1616" y1="1.23361" x2="14.7953" y2="31.3186" gradientUnits="userSpaceOnUse">
<stop offset="0.00537634" stop-color="#FFF3D2"/>
<stop offset="1" stop-color="white"/>
</linearGradient>
<linearGradient id="paint1_linear_311_291" x1="11.5888" y1="5.38126" x2="11.5888" y2="30.5067" gradientUnits="userSpaceOnUse">
<stop stop-color="#FCD077"/>
<stop offset="0.3376" stop-color="#EBB763"/>
<stop offset="0.7477" stop-color="#DA9F50"/>
<stop offset="1" stop-color="#D49649"/>
</linearGradient>
<linearGradient id="paint2_linear_311_291" x1="19.0099" y1="1.49327" x2="19.0099" y2="28.5583" gradientUnits="userSpaceOnUse">
<stop stop-color="#FCD077"/>
<stop offset="0.3376" stop-color="#EBB763"/>
<stop offset="0.7477" stop-color="#DA9F50"/>
<stop offset="1" stop-color="#D49649"/>
</linearGradient>
<linearGradient id="paint3_linear_311_291" x1="13.5054" y1="11.1165" x2="15.9331" y2="13.8679" gradientUnits="userSpaceOnUse">
<stop stop-color="white"/>
<stop offset="1"/>
</linearGradient>
<clipPath id="clip0_311_291">
<rect width="32" height="32" fill="white"/>
</clipPath>
</defs>
</svg>
