<svg width="328" height="54" viewBox="0 0 328 54" fill="none" xmlns="http://www.w3.org/2000/svg">
<path fill-rule="evenodd" clip-rule="evenodd" d="M25.2144 6.75007C62.0052 5.7368 275.884 6.82245 305.049 7.69096C307.759 7.76334 311.193 7.76334 313.506 8.74042C317.77 11.3098 321.818 16.1228 323.336 21.551C323.842 23.3242 324.059 25.2422 323.986 27.1963C323.697 34.2892 322.902 39.1384 317.337 44.4219C313.723 47.8597 309.097 50.1034 303.82 49.9948C268.764 49.1263 62.981 48.9454 26.6239 49.9948C23.5519 50.0672 20.6607 49.3796 18.0225 48.113C13.5772 45.9779 8.80669 41.6716 6.24072 36.4605C6.38528 33.4569 6.52985 30.1638 6.38528 26.2554C6.16844 20.9358 8.12002 16.0504 11.5172 12.504C14.9144 8.95754 19.7572 6.89482 25.2144 6.75007Z" fill="#5B3D29"/>
<path fill-rule="evenodd" clip-rule="evenodd" d="M26.4434 4.32546C62.4753 3.45695 274.438 4.5064 302.664 5.37491C308.049 5.55586 312.892 7.61858 316.325 11.165C319.758 14.7114 321.818 19.5606 321.601 24.8441C321.312 31.937 320.77 36.7862 315.205 42.0696C311.591 45.5075 306.712 47.6788 301.435 47.6426C265.801 47.2083 60.5237 47.2807 24.2388 47.6426C18.9262 47.6788 14.0472 45.5437 10.4694 42.142C4.75918 36.75 4.3255 31.1408 4.03637 23.9032C3.81953 18.5836 5.77111 13.6982 9.1683 10.1517C11.6981 7.5462 14.9869 5.7368 18.7455 4.90447C20.2995 5.37491 23.5521 5.55586 24.3111 5.4111C24.7809 5.30254 25.4314 5.01303 26.4434 4.32546Z" fill="url(#paint0_linear_399_2202)"/>
<path opacity="0.5" d="M14.3361 6.42436C38.8754 12.6125 227.456 17.9322 246.176 18.294C249.465 18.3664 252.754 18.2579 256.079 18.0407C261.753 17.6427 263.957 17.8236 268.692 14.0962C272.45 11.165 276.1 7.29287 280.726 4.7597C281.738 4.79589 282.714 4.79589 283.726 4.83208C279.715 6.38817 276.137 8.95752 272.812 11.6716C270.752 13.3363 268.692 15.3266 266.415 16.8827C278.233 15.0371 290.629 11.3459 304.507 5.48347C305.699 5.62822 306.82 5.84535 307.94 6.17104C284.051 16.3761 265.042 19.633 246.032 19.3073C226.624 18.9816 37.2491 14.3857 11.6256 8.01663C12.493 7.43762 13.3603 6.8948 14.3361 6.42436ZM6.49367 13.7343C37.2491 23.2518 230.13 29.0419 252.32 30.2723C273.968 31.4665 294.749 27.9201 321.059 19.633C321.24 20.393 321.384 21.1891 321.493 21.9852C294.966 30.0914 273.932 32.516 252.176 31.3218C229.769 30.0552 36.5986 25.1336 5.55403 15.5799C5.84315 14.9286 6.13227 14.3134 6.49367 13.7343ZM4.18069 20.4653C28.7923 30.5618 223.589 35.3024 241.55 38.6679C272.161 44.3856 289.075 43.2638 318.891 37.5461C318.385 38.4146 317.806 39.2469 317.084 40.1155C287.846 45.3989 271.33 45.616 241.297 40.0069C223.372 36.6414 28.4309 32.335 4.03613 22.3833C4.03613 21.7319 4.10841 21.0805 4.18069 20.4653ZM4.25297 27.7753C13.0351 31.3218 19.3235 34.5787 25.3951 37.9442C30.2379 40.6221 34.7554 43.6257 39.9596 47.4978C39.0561 47.4978 38.1526 47.4978 37.2491 47.534C32.9845 44.06 29.2259 41.3458 24.9252 38.9212C19.1428 35.7005 12.746 33.095 4.43368 29.8019C4.3614 29.1505 4.28912 28.4629 4.25297 27.7753Z" fill="#B15512"/>
<path opacity="0.5" fill-rule="evenodd" clip-rule="evenodd" d="M246.032 19.3073C226.624 18.9816 37.2491 14.3857 11.6256 8.01662C10.7221 8.668 9.92698 9.35558 9.16804 10.1517C8.11997 11.2374 7.21646 12.4316 6.49365 13.7343C37.2491 23.2518 230.13 29.0419 252.32 30.2723C273.968 31.4665 294.749 27.9201 321.059 19.633C320.553 17.6426 319.722 15.7609 318.638 14.0962C304.398 18.3664 288.966 21.0081 272.92 21.4424C288.786 18.6197 300.025 15.0733 314.192 9.31939C312.349 7.94424 310.217 6.89479 307.94 6.20721C284.051 16.3761 265.042 19.6692 246.032 19.3073Z" fill="url(#paint1_radial_399_2202)"/>
<path opacity="0.5" fill-rule="evenodd" clip-rule="evenodd" d="M37.2851 47.534C33.0206 44.06 29.262 41.3459 24.9613 38.9213C19.1788 35.7005 12.782 33.095 4.46973 29.8019C5.04797 34.3616 6.4213 38.3061 10.469 42.142C14.0469 45.5437 18.9259 47.715 24.2385 47.6426C28.5753 47.6064 32.9483 47.5702 37.2851 47.534Z" fill="url(#paint2_radial_399_2202)"/>
<path opacity="0.5" fill-rule="evenodd" clip-rule="evenodd" d="M9.85498 9.46414C25.0701 11.9249 221.673 15.7247 237.033 18.0045C252.031 20.1758 256.224 20.7186 271.186 18.4026C284.774 16.2675 297.243 11.8526 309.928 6.89479C309.278 6.64147 308.591 6.38815 307.904 6.20721C284.015 16.4123 265.006 19.6692 245.996 19.3435C226.625 18.9816 37.2493 14.3857 11.6259 8.01662C11.0115 8.48706 10.4332 8.95751 9.85498 9.46414Z" fill="url(#paint3_radial_399_2202)"/>
<path opacity="0.5" fill-rule="evenodd" clip-rule="evenodd" d="M321.493 21.9853C294.966 30.0914 273.932 32.516 252.175 31.3218C230.491 30.1276 38.1163 25.4593 8.58962 16.5209C7.61383 16.1952 6.6019 15.8695 5.55383 15.58C5.84295 14.9648 6.13208 14.3496 6.45734 13.7344C5.87909 14.7838 5.37313 15.8695 4.97559 17.0275C5.98751 17.2808 6.9633 17.4979 7.93909 17.7513C17.0103 19.9225 26.0815 22.0938 35.225 24.0842C60.5233 29.6209 247.622 32.8055 273.823 31.756C283.184 31.3942 291.243 30.1638 300.423 28.3182C307.904 26.8345 314.409 25.0974 321.565 22.9261C321.565 22.6366 321.529 22.3109 321.493 21.9853Z" fill="url(#paint4_radial_399_2202)"/>
<path opacity="0.5" fill-rule="evenodd" clip-rule="evenodd" d="M317.12 39.8984C287.882 45.218 271.402 45.4713 241.334 39.8984C223.372 36.5329 28.4309 32.516 4 22.5643C4 23.0709 4 23.5775 4 24.0842C4 24.2289 4 24.3375 4 24.4822C14.047 27.522 23.3712 30.9961 33.2737 34.253C50.6572 39.9707 238.695 42.8296 256.874 44.2771C277.149 45.8694 296.592 44.2409 315.927 41.0926C316.397 40.6945 316.758 40.2964 317.12 39.8984Z" fill="url(#paint5_radial_399_2202)"/>
<path fill-rule="evenodd" clip-rule="evenodd" d="M18.7451 4.9045C21.5641 6.09871 24.5276 6.85866 25.0697 6.60534C25.4672 6.4244 26.0093 5.66445 26.443 4.28931C25.4311 4.97688 24.7806 5.26638 24.3107 5.37495C23.5518 5.55589 20.2992 5.37495 18.7451 4.9045Z" fill="#842114"/>
<path opacity="0.5" fill-rule="evenodd" clip-rule="evenodd" d="M270.065 13.9877C274.004 10.9479 276.715 8.84897 280.329 7.03956C281.811 6.27962 283.473 5.59204 285.461 4.86828C284.882 4.86828 284.304 4.83209 283.726 4.83209C282.172 5.4111 280.69 6.17105 279.281 7.00338C277.004 8.37852 274.872 9.9708 272.812 11.6716C271.908 12.3954 270.968 13.1915 270.065 13.9877Z" fill="url(#paint6_radial_399_2202)"/>
<path fill-rule="evenodd" clip-rule="evenodd" d="M315.927 45.616L313.686 43.3724C310.253 46.0503 305.988 47.7149 301.398 47.6426C270.932 47.2807 70.7871 47.2807 39.9594 47.4978C39.0559 47.4978 38.1524 47.4978 37.2488 47.534C32.912 47.5702 28.5752 47.6064 24.2022 47.6426C18.8896 47.6788 14.0106 45.5437 10.4327 42.142C9.27624 41.0202 8.33659 39.9345 7.5415 38.7765C10.252 42.9381 14.2275 46.2674 17.9499 48.0768C20.552 49.3434 23.4794 50.0672 26.5513 49.9586C62.9085 48.9092 268.691 49.0901 303.748 49.9586C308.41 50.1034 312.566 48.3663 315.927 45.616Z" fill="#601609"/>
<path fill-rule="evenodd" clip-rule="evenodd" d="M313.722 43.3724L315.963 45.6161C316.433 45.2542 316.867 44.8561 317.3 44.4219C322.902 39.1384 323.697 34.253 323.95 27.1963C324.022 25.2422 323.806 23.3604 323.3 21.551C321.782 16.1228 317.77 11.3098 313.469 8.74042C313.722 8.92136 313.939 9.06611 314.192 9.24705C314.951 9.82606 315.674 10.4413 316.325 11.1288C317.192 12.0335 317.951 12.9744 318.638 14.0239C319.722 15.7247 320.553 17.5703 321.059 19.5607C321.24 20.3206 321.384 21.1167 321.493 21.9129C321.529 22.2386 321.565 22.5643 321.565 22.89C321.601 23.5052 321.601 24.1565 321.601 24.8079C321.348 30.9961 320.914 35.4834 317.084 40.0431C316.758 40.4412 316.361 40.8754 315.963 41.2735C315.71 41.5268 315.457 41.7801 315.168 42.0696C314.734 42.5401 314.228 42.9743 313.722 43.3724Z" fill="#842114"/>
<path fill-rule="evenodd" clip-rule="evenodd" d="M22.9738 9.21086C19.1068 9.31942 15.3482 10.6584 12.6016 13.4811C9.99947 16.1952 8.62614 19.9225 8.80684 23.6861C9.05982 29.6933 9.16824 34.3254 13.7581 38.668C16.577 41.3459 20.2995 42.902 24.2026 42.8658C60.0538 42.5401 265.656 42.4315 301.507 42.8658C305.41 42.902 309.097 41.2735 311.916 38.6318C316.397 34.3978 316.578 30.598 316.831 24.6994C316.975 20.8634 315.53 17.2084 312.892 14.4943C310.181 11.6716 306.422 10.2603 302.519 10.1517C278.486 9.42799 266.74 8.84898 242.671 8.81279C230.166 8.7766 35.5145 8.84898 22.9738 9.21086Z" fill="#601609"/>
<path fill-rule="evenodd" clip-rule="evenodd" d="M14.1195 14.9648C16.83 12.1421 20.6247 10.8031 24.4917 10.6946C37.0324 10.3327 231.684 10.2603 244.189 10.2965C268.222 10.3689 279.968 10.9117 304.037 11.6355C307.507 11.744 310.868 12.8659 313.47 15.1095C313.289 14.8924 313.108 14.6753 312.892 14.4943C310.181 11.6717 306.422 10.2603 302.519 10.1518C278.486 9.428 266.74 8.84899 242.671 8.8128C230.13 8.77661 35.4784 8.88518 22.9738 9.21087C19.1068 9.31944 15.3482 10.6584 12.6016 13.4811C9.99947 16.1952 8.62614 19.9225 8.80684 23.6861C9.05982 29.6933 9.16824 34.3254 13.7581 38.668C13.9026 38.8127 14.0472 38.9213 14.1917 39.066C10.65 35.013 10.5416 30.6704 10.3247 25.206C10.144 21.4424 11.4812 17.6789 14.1195 14.9648Z" fill="#842114"/>
<path fill-rule="evenodd" clip-rule="evenodd" d="M301.471 42.8658C265.62 42.4315 60.0174 42.5401 24.1662 42.8658C20.2631 42.9019 16.5406 41.3459 13.7217 38.6679C10.4329 35.5558 9.45711 32.2988 9.05957 28.5353C9.7101 35.8091 13.794 43.5533 24.3469 43.7705C28.6115 43.879 32.876 43.481 37.1767 43.4448C50.368 43.3 233.31 43.3 246.501 43.2638C254.416 43.2276 262.331 43.1914 270.246 43.2638C278.594 43.3362 286.943 43.5171 295.327 43.6619C304.579 43.8066 310.578 42.9743 314.626 35.3386C313.975 36.4243 313.072 37.5099 311.915 38.6317C309.097 41.2735 305.374 42.9019 301.471 42.8658Z" fill="#FFEBAC"/>
<path fill-rule="evenodd" clip-rule="evenodd" d="M21.5281 5.95392C20.6607 5.66442 19.6849 5.33873 18.7452 4.94066C14.9867 5.7368 11.6979 7.5462 9.16806 10.1517C6.16841 13.3001 4.28912 17.4979 4.03613 22.13C5.62631 15.0733 8.22841 9.57273 15.4926 6.38818C16.4323 5.99011 18.4923 5.4111 19.5403 5.51967C20.1186 5.62823 20.8414 5.77298 21.5281 5.95392ZM26.4431 4.32546C26.2986 4.79591 26.1179 5.19397 25.9733 5.51967C26.4431 5.01303 26.4793 4.86828 27.4189 4.86828C63.4147 4.68734 269.198 5.04922 305.193 6.56912C313.289 6.89481 317.409 12.0697 320.698 18.3664C319.794 15.6523 318.276 13.1915 316.325 11.165C312.891 7.61858 308.049 5.51967 302.664 5.37491C274.438 4.5064 62.475 3.45695 26.4431 4.32546Z" fill="#FFEBAC"/>
<path fill-rule="evenodd" clip-rule="evenodd" d="M23.0461 10.8755C19.6128 10.9841 16.2517 12.1421 13.8665 14.6391C11.5535 17.0275 10.3608 20.3568 10.5054 23.6499C10.7222 29.0781 10.7223 33.4569 14.9145 37.4737C17.4082 39.8621 20.7331 41.2373 24.1664 41.2011C60.0176 40.8754 265.656 40.7669 301.507 41.2011C304.941 41.2373 308.266 39.7536 310.759 37.4014C314.879 33.493 314.915 29.9828 315.132 24.627C315.277 21.3339 313.976 18.0769 311.663 15.6885C309.241 13.1915 305.88 11.9611 302.447 11.8526C278.414 11.1288 266.704 10.5498 242.671 10.5136C230.166 10.4412 35.5507 10.5498 23.0461 10.8755Z" fill="url(#paint7_linear_399_2202)"/>
<g style="mix-blend-mode:screen" opacity="0.25">
<path fill-rule="evenodd" clip-rule="evenodd" d="M247.73 12.2506C273.426 12.3954 290.918 12.5039 299.664 13.0468C307.904 13.5534 315.566 17.715 305.41 24.3736C299.013 28.5715 283.545 32.4436 247.73 32.4436C219.071 32.4436 33.635 30.0552 25.1421 27.1601C12.9266 22.9623 11.6256 14.7838 22.1785 13.083C30.5992 11.744 219.541 12.1059 247.73 12.2506Z" fill="url(#paint8_radial_399_2202)"/>
</g>
<g style="mix-blend-mode:screen">
<path fill-rule="evenodd" clip-rule="evenodd" d="M20.8052 12.1783C18.3838 13.0106 14.5529 15.4714 13.9024 17.8236C13.3242 19.8502 15.348 19.9225 17.155 19.235C19.215 18.4388 21.6364 17.0275 23.1905 15.5438C25.1059 13.7344 23.8771 11.1288 20.8052 12.1783Z" fill="url(#paint9_radial_399_2202)"/>
</g>
<g style="mix-blend-mode:screen" opacity="0.75">
<path fill-rule="evenodd" clip-rule="evenodd" d="M302.917 37.2566C266.126 38.6317 59.5477 38.8127 22.7568 37.2566C19.2151 37.1119 15.8179 35.8815 13.2519 33.4207C12.3845 32.6245 11.734 31.7922 11.1558 30.9237C11.6979 33.2397 12.7459 35.3748 14.8782 37.4375C17.3719 39.826 20.6968 41.2011 24.1301 41.1649C59.9813 40.8392 265.62 40.7307 301.471 41.1649C304.904 41.2011 308.229 39.7174 310.723 37.3652C313.036 35.1939 314.048 33.1312 314.554 30.8151C313.976 31.6475 313.289 32.516 312.349 33.3483C309.856 35.7729 306.458 37.1119 302.917 37.2566Z" fill="url(#paint10_radial_399_2202)"/>
</g>
<g style="mix-blend-mode:screen">
<path fill-rule="evenodd" clip-rule="evenodd" d="M306.965 38.0889C308.88 37.2566 310.94 35.3748 311.121 33.5292C311.265 32.0455 309.675 31.8646 308.519 32.5521C307.181 33.3121 305.627 34.5425 304.688 35.7005C303.531 37.1118 304.868 38.9574 306.965 38.0889Z" fill="url(#paint11_radial_399_2202)"/>
</g>
<defs>
<linearGradient id="paint0_linear_399_2202" x1="162.818" y1="3.99977" x2="162.818" y2="47.6588" gradientUnits="userSpaceOnUse">
<stop stop-color="#D49649"/>
<stop offset="0.2211" stop-color="#D08F43"/>
<stop offset="0.5368" stop-color="#C67C33"/>
<stop offset="0.9079" stop-color="#B65E19"/>
<stop offset="1" stop-color="#B15512"/>
</linearGradient>
<radialGradient id="paint1_radial_399_2202" cx="0" cy="0" r="1" gradientUnits="userSpaceOnUse" gradientTransform="translate(16.4016 -194.42) scale(420.787 421.343)">
<stop stop-color="#5B3D29"/>
<stop offset="0.9898" stop-color="white"/>
</radialGradient>
<radialGradient id="paint2_radial_399_2202" cx="0" cy="0" r="1" gradientUnits="userSpaceOnUse" gradientTransform="translate(-18.2208 67.0712) scale(263.461 263.809)">
<stop stop-color="#B15512"/>
<stop offset="0.9898" stop-color="white"/>
</radialGradient>
<radialGradient id="paint3_radial_399_2202" cx="0" cy="0" r="1" gradientUnits="userSpaceOnUse" gradientTransform="translate(16.4343 -2.55344) scale(547.172 547.895)">
<stop stop-color="#B15512"/>
<stop offset="1"/>
</radialGradient>
<radialGradient id="paint4_radial_399_2202" cx="0" cy="0" r="1" gradientUnits="userSpaceOnUse" gradientTransform="translate(37.3519 -0.986563) scale(646.576 647.43)">
<stop stop-color="#B15512"/>
<stop offset="1"/>
</radialGradient>
<radialGradient id="paint5_radial_399_2202" cx="0" cy="0" r="1" gradientUnits="userSpaceOnUse" gradientTransform="translate(7.42644 12.9107) rotate(-0.0695076) scale(934.787 936.022)">
<stop stop-color="#B15512"/>
<stop offset="1"/>
</radialGradient>
<radialGradient id="paint6_radial_399_2202" cx="0" cy="0" r="1" gradientUnits="userSpaceOnUse" gradientTransform="translate(285.953 3.33919) scale(38.1557 38.2061)">
<stop stop-color="#B15512"/>
<stop offset="1"/>
</radialGradient>
<linearGradient id="paint7_linear_399_2202" x1="162.818" y1="10.4922" x2="162.818" y2="41.2018" gradientUnits="userSpaceOnUse">
<stop stop-color="white"/>
<stop offset="0.00537634" stop-color="white"/>
<stop offset="1" stop-color="#FFF4EE"/>
</linearGradient>
<radialGradient id="paint8_radial_399_2202" cx="0" cy="0" r="1" gradientUnits="userSpaceOnUse" gradientTransform="translate(68.1915 -109.215) scale(291.023 291.408)">
<stop stop-color="white"/>
<stop offset="1"/>
</radialGradient>
<radialGradient id="paint9_radial_399_2202" cx="0" cy="0" r="1" gradientUnits="userSpaceOnUse" gradientTransform="translate(18.2099 11.1193) scale(34.8902 34.9363)">
<stop stop-color="#FFFBD9"/>
<stop offset="1"/>
</radialGradient>
<radialGradient id="paint10_radial_399_2202" cx="0" cy="0" r="1" gradientUnits="userSpaceOnUse" gradientTransform="translate(148.601 -231.634) scale(386.777 387.288)">
<stop stop-color="#CA9E67"/>
<stop offset="1"/>
</radialGradient>
<radialGradient id="paint11_radial_399_2202" cx="0" cy="0" r="1" gradientUnits="userSpaceOnUse" gradientTransform="translate(319.229 40.6315) scale(45.5443 45.6045)">
<stop stop-color="#FFFBD9"/>
<stop offset="1"/>
</radialGradient>
</defs>
</svg>
