<svg width="831" height="977" viewBox="0 0 831 977" fill="none" xmlns="http://www.w3.org/2000/svg">
<mask id="mask0_322_1194" style="mask-type:luminance" maskUnits="userSpaceOnUse" x="156" y="55" width="518" height="922">
<path d="M673.784 55.5874H156.131V976.916H673.784V55.5874Z" fill="white"/>
</mask>
<g mask="url(#mask0_322_1194)">
<g opacity="0.24">
<path d="M197.96 0C197.96 0 210.317 24.2411 216.663 36.2781C243.13 87.0172 269.764 137.673 296.231 188.328C332.3 257.206 368.285 326.168 404.354 395.046C407.526 401.148 410.699 407.334 413.204 413.854C410.95 411.514 408.695 409.257 406.608 406.916C367.367 363.617 328.209 320.233 289.051 276.934C248.139 231.711 207.145 186.406 166.15 141.184C139.349 111.509 112.464 81.9182 85.6632 52.2438C84.9117 51.575 197.96 0 197.96 0Z" fill="url(#paint0_radial_322_1194)"/>
<path d="M831 194.18C831 194.18 774.893 224.69 746.84 239.903C672.949 279.943 599.058 319.899 525.167 359.938C495.527 375.988 465.971 391.953 436.331 408.003C431.489 410.678 426.563 413.269 421.219 415.275C423.808 412.767 426.312 410.26 428.984 407.836C437.166 400.312 445.349 392.873 453.447 385.266C469.728 370.053 485.926 354.84 502.207 339.626C561.153 284.708 620.098 229.705 679.044 174.787C710.353 145.614 773.056 87.1843 773.056 87.1843L831 194.18Z" fill="url(#paint1_radial_322_1194)"/>
<path d="M0 630.185C0 630.185 23.9623 618.399 35.8182 612.297C83.4924 588.139 131.167 563.898 178.757 539.741C204.389 526.784 229.938 513.744 255.57 500.788C269.764 493.599 284.125 486.661 298.318 479.389C334.888 460.748 371.458 442.024 408.027 423.383C409.363 422.715 410.616 422.046 412.453 422.046C411.033 423.383 409.53 424.804 408.111 426.058C369.704 459.996 331.298 493.85 292.891 527.787C253.65 562.477 214.492 597.167 175.251 631.773C132.92 669.305 48.0916 744.202 48.0916 744.202L0 630.185Z" fill="url(#paint2_radial_322_1194)"/>
<path d="M648.903 834.145C648.903 834.145 635.711 810.906 629.199 799.204C607.407 760.167 585.616 721.131 563.908 682.094C536.188 632.358 508.552 582.622 480.833 532.803C460.628 496.608 440.422 460.33 420.301 424.136C420.05 423.718 419.883 423.3 419.132 421.879C420.635 423.133 421.386 423.55 421.971 424.219C472.4 477.048 522.746 529.877 573.175 582.706C617.677 629.349 662.262 675.909 706.763 722.552C719.371 735.759 731.978 749.05 744.669 762.341C745.838 763.678 648.903 834.145 648.903 834.145Z" fill="url(#paint3_radial_322_1194)"/>
<path d="M188.025 767.691C192.617 760.418 197.126 753.062 201.885 745.79C239.707 688.28 277.529 630.854 315.351 573.344C347.662 524.277 379.974 475.126 412.286 426.058C413.037 424.888 413.955 423.718 415.375 422.798C413.705 428.9 412.035 435.086 410.282 441.188C393.082 502.209 375.883 563.146 358.6 624.167C343.488 677.497 328.376 730.911 313.264 784.242C313.097 784.743 313.013 785.245 312.93 785.663C271.35 779.728 229.688 773.709 188.025 767.691Z" fill="url(#paint4_radial_322_1194)"/>
<path d="M62.9532 192.341C90.5057 209.894 117.975 227.532 145.527 245.086C191.198 274.342 236.784 303.515 282.371 332.772C321.78 358.016 361.105 383.26 400.513 408.504C404.354 410.928 408.111 413.436 411.534 416.613C399.01 412.517 386.403 408.504 373.879 404.408C327.958 389.362 281.954 374.316 236.033 359.353C195.706 346.146 155.379 333.023 115.052 319.899C93.6784 312.877 72.3043 305.939 50.9303 298.918C49.8449 298.583 48.9265 298.082 47.8411 297.58C52.9341 262.473 57.9436 227.448 62.9532 192.341Z" fill="url(#paint5_radial_322_1194)"/>
<path d="M636.713 63.2776C633.874 68.2095 631.119 73.1413 628.113 77.9895C592.88 134.831 557.646 191.588 522.328 248.346C492.438 296.494 462.548 344.725 432.658 392.873C428.4 399.727 423.974 406.582 419.048 413.185C420.635 407.836 422.138 402.486 423.807 397.22C441.257 341.047 458.791 284.958 476.241 228.786C490.017 184.483 503.877 140.18 517.736 95.7942C522.662 79.9956 527.505 64.1135 532.348 48.2314C567.164 53.2468 601.98 58.2622 636.713 63.2776Z" fill="url(#paint6_radial_322_1194)"/>
<path d="M430.904 33.6033C430.236 51.1572 429.485 68.7111 428.817 86.3485C427.982 108.834 427.231 131.404 426.396 153.889C424.976 192.759 423.557 231.628 422.138 270.497C420.802 306.859 419.382 343.221 418.047 379.666C417.629 390.783 417.212 401.901 416.21 413.102C415.959 412.35 415.625 411.514 415.458 410.761C402.767 353.335 390.16 295.909 377.469 238.482C364.778 180.722 352.004 122.877 339.313 65.1167C336.057 50.4884 332.884 35.8602 329.628 21.2319C329.461 20.5632 329.545 19.8109 329.545 19.0586C363.359 23.8232 397.173 28.755 430.904 33.6033Z" fill="url(#paint7_radial_322_1194)"/>
<path d="M768.214 630.519C729.724 607.365 691.317 584.127 652.827 560.889C578.519 516.085 504.127 471.197 429.819 426.309C427.147 424.637 424.475 422.966 422.138 420.625C431.238 423.3 440.339 425.975 449.44 428.65C488.18 440.185 527.004 451.637 565.745 463.256C606.99 475.544 648.235 487.831 689.48 500.203C719.371 509.147 749.261 518.007 779.068 526.868C780.32 527.286 781.74 527.369 783.075 527.62C778.066 561.892 773.14 596.248 768.214 630.519Z" fill="url(#paint8_radial_322_1194)"/>
<path d="M33.1466 399.895C53.5187 400.814 73.8909 401.734 94.263 402.737C128.077 404.408 161.975 406.08 195.79 407.836C221.255 409.089 246.637 410.51 272.102 411.764C299.905 413.185 327.708 414.523 355.427 415.944C374.046 416.863 392.748 417.866 411.367 418.786C411.534 418.786 411.785 419.037 412.536 419.455C404.27 421.21 396.506 422.798 388.657 424.386C295.814 443.612 202.97 462.838 110.127 481.98C80.9877 487.998 51.8489 494.017 22.6265 500.119C21.2907 500.37 19.9548 500.537 18.6189 500.704C23.4615 467.101 28.304 433.498 33.1466 399.895Z" fill="url(#paint9_radial_322_1194)"/>
<path d="M412.954 800.124C413.204 785.746 413.455 771.369 413.622 757.075C413.872 738.769 414.206 720.462 414.373 702.156C414.623 678.667 414.707 655.095 414.874 631.606C415.208 593.489 415.625 555.372 416.043 517.171C416.377 486.577 416.711 455.984 416.961 425.39C416.961 424.804 416.961 424.219 417.462 423.467C417.713 424.136 418.047 424.804 418.214 425.557C445.015 533.555 471.816 641.637 498.7 749.635C504.127 771.369 509.554 793.102 514.981 814.835C481.083 809.987 447.019 805.055 412.954 800.124Z" fill="url(#paint10_radial_322_1194)"/>
<path d="M797.436 427.479C756.608 426.56 715.864 425.64 675.036 424.637C642.641 423.885 610.246 423.049 577.851 422.213C544.371 421.377 510.89 420.709 477.326 419.956C459.876 419.538 442.51 419.12 425.06 418.702C424.225 418.702 423.39 418.535 422.305 417.783C423.724 417.365 425.06 416.947 426.479 416.613C500.37 399.226 574.261 381.923 648.235 364.62C701.42 352.165 754.604 339.626 807.873 327.171C809.209 326.837 810.544 326.837 811.88 326.586C807.121 360.273 802.279 393.876 797.436 427.479Z" fill="url(#paint11_radial_322_1194)"/>
</g>
</g>
<mask id="mask1_322_1194" style="mask-type:luminance" maskUnits="userSpaceOnUse" x="156" y="55" width="518" height="922">
<path d="M673.784 55.5874H156.131V976.916H673.784V55.5874Z" fill="white"/>
</mask>
<g mask="url(#mask1_322_1194)">
<g opacity="0.24">
<path d="M140.935 35.1914C140.935 35.1914 156.632 57.4263 164.647 68.4602C198.128 114.853 231.608 161.245 265.088 207.638C310.592 270.664 356.012 333.775 401.515 396.802C405.523 402.402 409.53 408.003 413.037 414.188C410.532 412.182 407.944 410.343 405.439 408.254C360.437 370.972 315.518 333.691 270.515 296.41C223.509 257.457 176.586 218.504 129.58 179.551C98.7716 154.056 68.0463 128.478 37.2376 102.983C36.4027 102.398 140.935 35.1914 140.935 35.1914Z" fill="url(#paint12_radial_322_1194)"/>
<path d="M795.182 137.088C795.182 137.088 744.001 175.288 718.369 194.347C650.907 244.501 583.445 294.655 516.067 344.725C489.015 364.787 462.047 384.848 434.995 404.994C430.57 408.337 426.062 411.597 421.052 414.356C423.223 411.514 425.394 408.672 427.648 405.913C434.662 397.303 441.758 388.777 448.688 380.084C462.632 362.781 476.491 345.31 490.434 328.007C540.947 265.231 591.46 202.455 641.973 139.595C668.858 106.243 722.543 39.5381 722.543 39.5381L795.182 137.088Z" fill="url(#paint13_radial_322_1194)"/>
<path d="M34.7329 687.193C34.7329 687.193 56.7749 672.064 67.7124 664.373C111.462 633.696 155.212 602.935 198.879 572.174C222.34 555.706 245.802 539.156 269.347 522.688C282.371 513.577 295.563 504.633 308.588 495.438C342.152 471.782 375.632 448.042 409.196 424.386C410.365 423.551 411.618 422.715 413.371 422.464C412.119 423.968 410.866 425.557 409.614 427.061C376.467 466.098 343.237 505.134 310.091 544.171C276.193 584.043 242.379 623.999 208.481 663.872C171.911 707.004 98.6046 793.186 98.6046 793.186L34.7329 687.193Z" fill="url(#paint14_radial_322_1194)"/>
<path d="M706.095 796.529C706.095 796.529 689.731 775.381 681.632 764.765C654.497 729.239 627.445 693.714 600.31 658.188C565.828 612.882 531.346 567.576 496.863 522.27C471.732 489.252 446.601 456.318 421.47 423.383C421.136 422.966 420.885 422.631 419.967 421.294C421.637 422.297 422.472 422.631 423.139 423.216C480.582 468.271 537.942 513.41 595.384 558.465C646.064 598.254 696.828 638.043 747.508 677.831C761.952 689.116 776.312 700.484 790.673 711.769C792.009 712.856 706.095 796.529 706.095 796.529Z" fill="url(#paint15_radial_322_1194)"/>
<path d="M240.458 796.529C243.965 788.672 247.388 780.731 251.062 772.873C280.284 710.599 309.59 648.324 338.812 586.05C363.777 532.803 388.741 479.64 413.789 426.393C414.373 425.055 415.124 423.885 416.377 422.798C415.542 429.068 414.79 435.42 413.955 441.69C405.606 504.549 397.257 567.326 388.824 630.185C381.477 685.187 374.13 740.106 366.782 795.108C366.699 795.61 366.699 796.111 366.615 796.613C324.619 796.529 282.538 796.529 240.458 796.529Z" fill="url(#paint16_radial_322_1194)"/>
<path d="M34.7329 244.835C64.4562 258.293 94.263 271.751 123.986 285.293C173.33 307.695 222.591 330.181 271.935 352.583C314.516 371.976 357.097 391.285 399.595 410.678C403.686 412.517 407.777 414.523 411.618 417.198C398.593 414.941 385.652 412.684 372.627 410.427C325.036 402.152 277.362 393.793 229.771 385.517C188.025 378.245 146.195 370.973 104.449 363.7C82.3236 359.855 60.1146 355.926 37.9891 352.081C36.9037 351.914 35.8183 351.496 34.8164 351.245C34.7329 315.72 34.7329 280.277 34.7329 244.835Z" fill="url(#paint17_radial_322_1194)"/>
<path d="M584.28 35.1914C582.109 40.4576 580.105 45.7237 577.851 50.9063C551.05 112.178 524.249 173.366 497.448 234.637C474.738 286.547 451.945 338.54 429.235 390.449C425.978 397.888 422.555 405.244 418.715 412.517C419.55 407 420.301 401.483 421.136 396.049C430.404 337.954 439.755 279.943 449.106 221.848C456.453 176.041 463.884 130.15 471.231 84.3423C473.82 67.9587 476.324 51.575 478.913 35.1914C513.979 35.1914 549.13 35.1914 584.28 35.1914Z" fill="url(#paint18_radial_322_1194)"/>
<path d="M376.384 35.1914C378.221 52.6617 379.974 70.2156 381.811 87.6859C384.149 110.088 386.653 132.49 389.075 154.892C393.249 193.594 397.34 232.213 401.432 270.915C405.272 307.11 409.113 343.304 412.87 379.499C414.039 390.532 415.208 401.566 415.792 412.935C415.458 412.182 414.957 411.514 414.707 410.678C394.001 355.675 373.295 300.59 352.589 245.587C331.799 190.167 310.926 134.831 290.136 79.4105C284.876 65.3674 279.533 51.4079 274.273 37.3647C274.022 36.696 274.022 35.9437 273.855 35.1914C308.004 35.1914 342.152 35.1914 376.384 35.1914Z" fill="url(#paint19_radial_322_1194)"/>
<path d="M795.182 577.941C753.853 560.471 712.441 543.001 671.112 525.53C591.126 491.676 511.141 457.906 431.155 424.052C428.233 422.798 425.394 421.461 422.722 419.455C432.073 420.792 441.508 422.129 450.859 423.551C490.852 429.402 530.845 435.253 570.921 441.188C613.502 447.457 656.083 453.81 698.665 460.079C729.473 464.593 760.365 469.191 791.174 473.705C792.51 473.872 793.846 473.872 795.265 473.872C795.182 508.562 795.182 543.251 795.182 577.941Z" fill="url(#paint20_radial_322_1194)"/>
<path d="M34.7329 454.562C55.0216 452.556 75.3102 450.55 95.6824 448.628C129.413 445.451 163.144 442.275 196.875 439.182C222.257 436.841 247.639 434.501 272.937 432.16C300.656 429.569 328.292 426.978 356.012 424.386C374.63 422.631 393.166 420.959 411.785 419.204C411.952 419.204 412.202 419.371 413.037 419.705C405.105 422.547 397.591 425.306 390.16 427.981C300.99 460.247 211.82 492.512 122.65 524.778C94.597 534.892 66.627 545.09 38.6571 555.205C37.4047 555.706 36.0688 555.957 34.7329 556.375C34.7329 522.437 34.7329 488.5 34.7329 454.562Z" fill="url(#paint21_radial_322_1194)"/>
<path d="M467.725 796.529C465.888 782.319 464.135 768.025 462.298 753.815C459.96 735.676 457.622 717.453 455.201 699.314C452.112 675.992 448.772 652.671 445.683 629.433C440.59 591.65 435.58 553.867 430.571 516.001C426.563 485.658 422.472 455.398 418.464 425.055C418.381 424.47 418.297 423.885 418.715 423.049C419.049 423.718 419.466 424.303 419.8 424.972C461.713 528.038 503.626 631.188 545.623 734.255C554.056 754.985 562.572 775.715 571.088 796.446C536.522 796.529 502.124 796.529 467.725 796.529Z" fill="url(#paint22_radial_322_1194)"/>
<path d="M795.182 372.728C754.688 377.66 714.194 382.508 673.617 387.44C641.472 391.285 609.244 395.046 577.1 398.975C543.87 402.987 510.556 407 477.326 411.012C460.043 413.102 442.677 415.192 425.394 417.281C424.559 417.365 423.724 417.365 422.555 416.78C423.891 416.195 425.227 415.61 426.563 415.024C497.281 387.273 567.915 359.604 638.634 331.852C689.48 311.874 740.411 291.98 791.258 272.002C792.51 271.5 793.846 271.25 795.098 270.915C795.182 304.853 795.182 338.79 795.182 372.728Z" fill="url(#paint23_radial_322_1194)"/>
</g>
</g>
<defs>
<radialGradient id="paint0_radial_322_1194" cx="0" cy="0" r="1" gradientUnits="userSpaceOnUse" gradientTransform="translate(414.381 421.557) rotate(8.20762) scale(388.611 389.047)">
<stop stop-color="white"/>
<stop offset="1" stop-color="white" stop-opacity="0"/>
</radialGradient>
<radialGradient id="paint1_radial_322_1194" cx="0" cy="0" r="1" gradientUnits="userSpaceOnUse" gradientTransform="translate(414.382 421.556) rotate(8.20762) scale(388.611 389.047)">
<stop stop-color="white"/>
<stop offset="1" stop-color="white" stop-opacity="0"/>
</radialGradient>
<radialGradient id="paint2_radial_322_1194" cx="0" cy="0" r="1" gradientUnits="userSpaceOnUse" gradientTransform="translate(414.382 421.556) rotate(8.20762) scale(388.611 389.047)">
<stop stop-color="white"/>
<stop offset="1" stop-color="white" stop-opacity="0"/>
</radialGradient>
<radialGradient id="paint3_radial_322_1194" cx="0" cy="0" r="1" gradientUnits="userSpaceOnUse" gradientTransform="translate(414.381 421.556) rotate(8.20762) scale(388.611 389.047)">
<stop stop-color="white"/>
<stop offset="1" stop-color="white" stop-opacity="0"/>
</radialGradient>
<radialGradient id="paint4_radial_322_1194" cx="0" cy="0" r="1" gradientUnits="userSpaceOnUse" gradientTransform="translate(414.382 421.557) rotate(8.20762) scale(388.611 389.047)">
<stop stop-color="white"/>
<stop offset="1" stop-color="white" stop-opacity="0"/>
</radialGradient>
<radialGradient id="paint5_radial_322_1194" cx="0" cy="0" r="1" gradientUnits="userSpaceOnUse" gradientTransform="translate(414.381 421.556) rotate(8.20762) scale(388.611 389.047)">
<stop stop-color="white"/>
<stop offset="1" stop-color="white" stop-opacity="0"/>
</radialGradient>
<radialGradient id="paint6_radial_322_1194" cx="0" cy="0" r="1" gradientUnits="userSpaceOnUse" gradientTransform="translate(414.381 421.556) rotate(8.20762) scale(388.611 389.047)">
<stop stop-color="white"/>
<stop offset="1" stop-color="white" stop-opacity="0"/>
</radialGradient>
<radialGradient id="paint7_radial_322_1194" cx="0" cy="0" r="1" gradientUnits="userSpaceOnUse" gradientTransform="translate(414.382 421.557) rotate(8.20762) scale(388.611 389.047)">
<stop stop-color="white"/>
<stop offset="1" stop-color="white" stop-opacity="0"/>
</radialGradient>
<radialGradient id="paint8_radial_322_1194" cx="0" cy="0" r="1" gradientUnits="userSpaceOnUse" gradientTransform="translate(414.382 421.557) rotate(8.20762) scale(388.611 389.047)">
<stop stop-color="white"/>
<stop offset="1" stop-color="white" stop-opacity="0"/>
</radialGradient>
<radialGradient id="paint9_radial_322_1194" cx="0" cy="0" r="1" gradientUnits="userSpaceOnUse" gradientTransform="translate(414.382 421.556) rotate(8.20762) scale(388.611 389.047)">
<stop stop-color="white"/>
<stop offset="1" stop-color="white" stop-opacity="0"/>
</radialGradient>
<radialGradient id="paint10_radial_322_1194" cx="0" cy="0" r="1" gradientUnits="userSpaceOnUse" gradientTransform="translate(414.382 421.557) rotate(8.20762) scale(388.611 389.047)">
<stop stop-color="white"/>
<stop offset="1" stop-color="white" stop-opacity="0"/>
</radialGradient>
<radialGradient id="paint11_radial_322_1194" cx="0" cy="0" r="1" gradientUnits="userSpaceOnUse" gradientTransform="translate(414.382 421.557) rotate(8.20761) scale(388.611 389.047)">
<stop stop-color="white"/>
<stop offset="1" stop-color="white" stop-opacity="0"/>
</radialGradient>
<radialGradient id="paint12_radial_322_1194" cx="0" cy="0" r="1" gradientUnits="userSpaceOnUse" gradientTransform="translate(415.206 421.556) scale(388.594 389.049)">
<stop stop-color="white"/>
<stop offset="1" stop-color="white" stop-opacity="0"/>
</radialGradient>
<radialGradient id="paint13_radial_322_1194" cx="0" cy="0" r="1" gradientUnits="userSpaceOnUse" gradientTransform="translate(415.206 421.556) scale(388.594 389.049)">
<stop stop-color="white"/>
<stop offset="1" stop-color="white" stop-opacity="0"/>
</radialGradient>
<radialGradient id="paint14_radial_322_1194" cx="0" cy="0" r="1" gradientUnits="userSpaceOnUse" gradientTransform="translate(415.206 421.556) scale(388.594 389.049)">
<stop stop-color="white"/>
<stop offset="1" stop-color="white" stop-opacity="0"/>
</radialGradient>
<radialGradient id="paint15_radial_322_1194" cx="0" cy="0" r="1" gradientUnits="userSpaceOnUse" gradientTransform="translate(415.206 421.556) scale(388.594 389.049)">
<stop stop-color="white"/>
<stop offset="1" stop-color="white" stop-opacity="0"/>
</radialGradient>
<radialGradient id="paint16_radial_322_1194" cx="0" cy="0" r="1" gradientUnits="userSpaceOnUse" gradientTransform="translate(415.206 421.556) scale(388.594 389.049)">
<stop stop-color="white"/>
<stop offset="1" stop-color="white" stop-opacity="0"/>
</radialGradient>
<radialGradient id="paint17_radial_322_1194" cx="0" cy="0" r="1" gradientUnits="userSpaceOnUse" gradientTransform="translate(415.206 421.556) scale(388.594 389.049)">
<stop stop-color="white"/>
<stop offset="1" stop-color="white" stop-opacity="0"/>
</radialGradient>
<radialGradient id="paint18_radial_322_1194" cx="0" cy="0" r="1" gradientUnits="userSpaceOnUse" gradientTransform="translate(415.206 421.556) scale(388.594 389.049)">
<stop stop-color="white"/>
<stop offset="1" stop-color="white" stop-opacity="0"/>
</radialGradient>
<radialGradient id="paint19_radial_322_1194" cx="0" cy="0" r="1" gradientUnits="userSpaceOnUse" gradientTransform="translate(415.206 421.556) scale(388.594 389.048)">
<stop stop-color="white"/>
<stop offset="1" stop-color="white" stop-opacity="0"/>
</radialGradient>
<radialGradient id="paint20_radial_322_1194" cx="0" cy="0" r="1" gradientUnits="userSpaceOnUse" gradientTransform="translate(415.206 421.556) scale(388.594 389.049)">
<stop stop-color="white"/>
<stop offset="1" stop-color="white" stop-opacity="0"/>
</radialGradient>
<radialGradient id="paint21_radial_322_1194" cx="0" cy="0" r="1" gradientUnits="userSpaceOnUse" gradientTransform="translate(415.206 421.556) scale(388.594 389.048)">
<stop stop-color="white"/>
<stop offset="1" stop-color="white" stop-opacity="0"/>
</radialGradient>
<radialGradient id="paint22_radial_322_1194" cx="0" cy="0" r="1" gradientUnits="userSpaceOnUse" gradientTransform="translate(415.206 421.556) scale(388.594 389.049)">
<stop stop-color="white"/>
<stop offset="1" stop-color="white" stop-opacity="0"/>
</radialGradient>
<radialGradient id="paint23_radial_322_1194" cx="0" cy="0" r="1" gradientUnits="userSpaceOnUse" gradientTransform="translate(415.206 421.556) scale(388.594 389.049)">
<stop stop-color="white"/>
<stop offset="1" stop-color="white" stop-opacity="0"/>
</radialGradient>
</defs>
</svg>
