<svg width="33" height="36" viewBox="0 0 33 36" fill="none" xmlns="http://www.w3.org/2000/svg">
<path opacity="0.05" d="M27.9029 35.1243C33.1529 33.6243 34.6529 0.624292 28.8029 0.0242923C21.7529 -0.575708 0.452877 10.0743 0.00287628 16.9743C-0.297123 23.1243 22.6529 36.6243 27.9029 35.1243Z" fill="white"/>
<path opacity="0.15" d="M27.0029 33.6242C31.8029 32.2742 33.1529 1.97423 27.9029 1.52423C21.4529 0.924232 1.95288 10.6742 1.65287 17.1242C1.20288 22.6742 22.2029 34.9742 27.0029 33.6242Z" fill="white"/>
<path opacity="0.25" d="M26.4028 32.1243C30.9028 30.7743 32.1028 2.72432 27.1528 2.42432C21.1528 1.82432 3.0028 10.9743 2.7028 16.8243C2.5528 22.0743 22.0528 33.4743 26.4028 32.1243Z" fill="white"/>
<path d="M26.2529 31.0743C30.6029 29.8743 31.6529 3.17434 27.0029 2.72434C21.3029 2.27434 4.05291 10.8243 3.75291 16.5243C3.60291 21.4743 22.0529 32.2743 26.2529 31.0743Z" fill="url(#paint0_linear_749_4860)"/>
<g style="mix-blend-mode:screen">
<path d="M25.0529 28.6743C27.6029 27.9243 28.6529 10.0743 25.8029 9.77429C22.3529 9.47429 9.75288 15.3243 9.45288 18.7743C9.15288 21.7743 22.5029 29.4243 25.0529 28.6743Z" fill="url(#paint1_linear_749_4860)"/>
</g>
<path opacity="0.3" d="M3.75292 16.3742C4.05292 10.6742 21.3029 2.12419 27.0029 2.57419C31.6529 3.02419 30.6029 29.7242 26.2529 30.9242C22.0529 32.2742 3.60292 21.4742 3.75292 16.3742ZM25.9529 30.4742C27.6029 30.0242 28.9529 24.9242 29.4029 18.9242C29.8529 12.6242 29.1029 4.67419 27.6029 4.37419C20.8529 3.32419 5.40292 13.3742 5.25292 16.9742C5.25292 18.9242 9.60292 22.3742 13.8029 25.2242C18.6029 28.3742 24.1529 30.9242 25.9529 30.4742Z" fill="#FFF8E3"/>
<defs>
<linearGradient id="paint0_linear_749_4860" x1="16.8942" y1="2.70728" x2="16.8942" y2="31.1667" gradientUnits="userSpaceOnUse">
<stop stop-color="#FFF3D2"/>
<stop offset="1" stop-color="#FFDA9B"/>
</linearGradient>
<linearGradient id="paint1_linear_749_4860" x1="24.8604" y1="26.1681" x2="18.3905" y2="15.5808" gradientUnits="userSpaceOnUse">
<stop stop-color="white"/>
<stop offset="1"/>
</linearGradient>
</defs>
</svg>
