<svg width="33" height="36" viewBox="0 0 33 36" fill="none" xmlns="http://www.w3.org/2000/svg">
<path opacity="0.05" d="M4.66059 35.1243C-0.589406 33.6243 -2.08941 0.624292 3.7606 0.0242923C10.8106 -0.575708 32.1106 10.0743 32.5606 16.9743C32.8606 23.1243 9.91059 36.6243 4.66059 35.1243Z" fill="white"/>
<path opacity="0.15" d="M5.5606 33.6242C0.760603 32.2742 -0.589398 1.97423 4.6606 1.52423C11.1106 0.924232 30.6106 10.6742 30.9106 17.1242C31.3606 22.6742 10.3606 34.9742 5.5606 33.6242Z" fill="white"/>
<path opacity="0.25" d="M6.16056 32.1243C1.66056 30.7743 0.460559 2.72432 5.41056 2.42432C11.4106 1.82432 29.5606 10.9743 29.8606 16.8243C30.0106 22.0743 10.5106 33.4743 6.16056 32.1243Z" fill="white"/>
<path d="M6.31056 31.0743C1.96056 29.8743 0.910556 3.17434 5.56056 2.72434C11.2606 2.27434 28.5106 10.8243 28.8106 16.5243C28.9606 21.4743 10.5106 32.2743 6.31056 31.0743Z" fill="url(#paint0_linear_749_4851)"/>
<g style="mix-blend-mode:screen">
<path d="M7.5106 28.6743C4.9606 27.9243 3.9106 10.0743 6.7606 9.77429C10.2106 9.47429 22.8106 15.3243 23.1106 18.7743C23.4106 21.7743 10.0606 29.4243 7.5106 28.6743Z" fill="url(#paint1_linear_749_4851)"/>
</g>
<path opacity="0.3" d="M28.8106 16.3742C28.5106 10.6742 11.2606 2.12419 5.56056 2.57419C0.910555 3.02419 1.96056 29.7242 6.31056 30.9242C10.5106 32.2742 28.9606 21.4742 28.8106 16.3742ZM6.61056 30.4742C4.96056 30.0242 3.61056 24.9242 3.16056 18.9242C2.71056 12.6242 3.46056 4.67419 4.96056 4.37419C11.7106 3.32419 27.1606 13.3742 27.3106 16.9742C27.3106 18.9242 22.9606 22.3742 18.7606 25.2242C13.9606 28.3742 8.41056 30.9242 6.61056 30.4742Z" fill="#FFF8E3"/>
<defs>
<linearGradient id="paint0_linear_749_4851" x1="15.6693" y1="2.70728" x2="15.6693" y2="31.1667" gradientUnits="userSpaceOnUse">
<stop stop-color="#FFF3D2"/>
<stop offset="1" stop-color="#FFDA9B"/>
</linearGradient>
<linearGradient id="paint1_linear_749_4851" x1="7.70305" y1="26.1681" x2="14.173" y2="15.5808" gradientUnits="userSpaceOnUse">
<stop stop-color="white"/>
<stop offset="1"/>
</linearGradient>
</defs>
</svg>
