<svg width="1920" height="1080" viewBox="0 0 1920 1080" fill="none" xmlns="http://www.w3.org/2000/svg">
<g clip-path="url(#clip0_788_5577)">
<path d="M1948.97 0.0438232H-30V1045.22H1948.97V0.0438232Z" fill="#E3FCFF"/>
<path opacity="0.2" d="M1248.38 900.989C1407.93 741.38 1407.93 482.604 1248.38 322.995C1088.83 163.386 830.151 163.386 670.603 322.995C511.054 482.604 511.054 741.38 670.603 900.989C830.151 1060.6 1088.83 1060.6 1248.38 900.989Z" fill="#F8FFFF"/>
<path opacity="0.2" d="M959.537 937.989C1139.52 937.989 1285.43 792.026 1285.43 611.971C1285.43 431.917 1139.52 285.954 959.537 285.954C779.55 285.954 633.642 431.917 633.642 611.971C633.642 792.026 779.55 937.989 959.537 937.989Z" fill="#F8FFFF"/>
<path opacity="0.2" d="M1135.27 787.839C1232.31 690.762 1232.31 533.367 1135.27 436.289C1038.23 339.212 880.895 339.211 783.854 436.289C686.813 533.367 686.813 690.762 783.854 787.839C880.895 884.917 1038.23 884.917 1135.27 787.839Z" fill="#F8FFFF"/>
<path d="M1078.57 731.12C1144.34 665.327 1144.34 558.657 1078.57 492.865C1012.81 427.072 906.175 427.072 840.408 492.865C774.64 558.657 774.64 665.327 840.408 731.12C906.175 796.912 1012.81 796.912 1078.57 731.12Z" fill="#F8FFFF"/>
<path d="M1950 743.739C1950 743.739 1737.48 461.747 1515.58 607.538C1515.58 607.538 1407.98 679.711 1320.37 689.3C1232.76 698.889 1121.04 631.87 1060.13 614.033C999.32 596.196 897.284 660.534 808.235 664.039C719.186 667.545 682.804 587.329 605.299 571.039C527.793 554.851 403.598 664.039 403.598 664.039C289.711 614.858 252.916 565.574 140.265 584.958C27.6138 604.238 -29.897 664.039 -29.897 664.039V1012.12L1950 1013.98V743.739Z" fill="#CCFAFF"/>
<path d="M1917.22 954.486C1883.83 962.734 1890.84 950.258 1874.14 952.939C1857.45 955.62 1842.19 956.857 1824.16 947.268C1806.12 937.68 1808.9 952.423 1797.77 947.165C1786.64 941.907 1774.17 955.826 1758.81 947.784C1743.56 939.639 1744.9 954.795 1732.43 949.743C1719.96 944.691 1672.65 943.866 1667.08 947.681C1661.52 951.496 1655.95 944.794 1646.26 947.062C1636.58 949.33 1637.92 945.825 1614.31 945.825C1590.71 945.825 1603.18 946.134 1586.49 944.794C1569.79 943.453 1572.57 948.299 1562.88 944.381C1553.2 940.36 1537.84 957.373 1528.15 954.073C1518.46 950.774 1508.67 959.744 1483.63 946.753C1458.58 933.555 1458.58 945.825 1436.42 945C1414.16 944.175 1436.42 945 1408.59 950.052C1380.77 955.207 1393.34 950.568 1383.55 949.433C1373.86 948.299 1364.07 949.64 1355.72 950.258C1347.37 950.877 1339.03 945.103 1325.11 949.33C1311.2 953.558 1312.64 947.784 1297.28 948.402C1282.03 948.918 1288.93 952.527 1268.12 955.517C1247.3 958.507 1260.49 953.867 1243.79 954.589C1227.1 955.207 1231.94 950.671 1220.09 946.547C1208.23 942.422 1219.47 953.661 1204.11 949.64C1188.86 945.619 1188.86 949.227 1179.07 946.134C1169.38 943.041 1162.37 946.443 1149.9 946.031C1137.43 945.619 1142.99 943.866 1131.86 945.412C1120.73 946.959 1131.86 945.412 1116.61 948.712C1101.35 952.114 1105.48 948.299 1105.48 948.299L1081.88 947.578L1058.27 948.299C1058.27 948.299 1062.4 952.011 1047.14 948.712C1031.89 945.412 1043.02 946.959 1031.89 945.412C1020.76 943.866 1026.32 945.619 1013.85 946.031C1001.38 946.443 994.372 943.144 984.684 946.134C974.996 949.227 974.996 945.515 959.639 949.64C944.385 953.661 955.62 942.422 943.664 946.547C931.811 950.671 936.656 955.207 919.959 954.589C903.262 953.97 916.455 958.61 895.635 955.517C874.816 952.527 881.721 948.918 866.468 948.402C851.214 947.887 852.554 953.558 838.64 949.33C824.726 945.103 816.378 950.877 808.029 950.258C799.681 949.64 789.993 948.299 780.201 949.433C770.513 950.568 782.984 955.207 755.156 950.052C727.329 945 749.591 944.175 727.329 945C705.066 945.825 705.066 933.555 680.124 946.753C655.079 959.744 645.391 950.774 635.6 954.073C625.912 957.269 610.555 940.36 600.867 944.381C591.178 948.299 593.961 943.453 577.265 944.794C560.568 946.134 573.142 945.825 549.437 945.825C525.835 945.825 527.174 949.227 517.486 947.062C507.798 944.897 502.233 951.599 496.667 947.681C491.101 943.866 443.897 944.691 431.323 949.743C418.852 954.795 420.192 939.639 404.938 947.784C389.685 955.826 377.111 942.01 365.979 947.165C354.848 952.32 357.631 937.576 339.594 947.268C321.558 956.754 306.201 955.62 289.607 952.939C272.911 950.258 279.919 962.734 246.526 954.486C213.133 946.443 199.322 953.867 181.182 950.877C163.146 947.887 135.318 938.814 135.318 938.814C135.318 938.814 104.707 956.96 90.7933 953.764C76.8794 950.568 68.531 958.3 54.6171 955.104C40.7032 952.011 36.5806 959.435 26.7893 956.135C17.1011 952.836 15.6582 960.156 7.30987 956.857C-1.03847 953.558 -7.94389 957.373 -7.94389 957.373L-30 958.197V1075.63H1081.88H1948.97V950.671C1940.41 950.568 1930.31 951.392 1917.22 954.486Z" fill="#A6F2FF"/>
<path d="M766.803 109.232L766.7 109.335C753.61 97.8904 747.014 112.634 747.014 112.634C739.903 105.005 734.749 112.222 734.749 112.222C724.855 95.6221 707.334 109.026 707.334 109.026C701.356 100.777 695.069 103.355 692.802 104.695C692.183 104.283 691.668 103.87 691.153 103.458C687.545 96.4469 677.857 100.056 677.857 100.056C673.219 83.5588 652.4 93.3538 649.308 98.6121C648.999 99.1277 648.792 99.7463 648.586 100.262C641.166 100.365 634.569 105.314 634.569 105.314C627.045 95.0035 619.109 101.705 619.109 101.705C616.327 92.2196 605.092 96.4469 605.092 96.4469C600.454 79.9502 579.635 89.7451 576.543 95.0035C573.451 100.262 578.811 107.892 578.811 107.892C574.379 111.5 565.824 124.079 571.287 135.214C573.863 140.473 578.192 143.463 582.006 145.112C578.914 148.824 575.512 154.907 575.306 161.403C570.05 158.825 562.732 160.578 558.094 164.393C550.983 170.27 554.899 176.147 554.899 176.147C546.139 173.26 544.799 180.684 544.799 180.684C543.871 175.013 537.275 170.373 529.236 174.394C521.197 178.415 523.567 186.148 523.567 186.148C515.425 188.313 514.601 199.036 514.601 199.036C507.386 193.778 500.996 207.078 500.996 207.078C496.564 192.85 487.288 195.737 481.516 202.233C475.745 208.728 481.31 215.327 481.31 215.327C475.848 222.441 481.104 225.637 481.104 225.637C469.561 233.267 466.263 244.402 465.438 251.207C464.51 251.104 463.583 251.207 462.758 251.517C456.987 253.476 443.279 272.034 458.533 279.767C458.533 279.767 452.143 289.975 460.903 294.511C460.903 294.511 452.761 301.007 461.418 310.389C461.418 310.389 458.327 313.07 455.956 317.298C452.246 318.741 448.535 321.009 444.928 324.618C444.928 324.618 443.073 319.36 435.652 322.968C435.652 322.968 430.808 316.782 423.902 320.803C417.1 324.824 412.771 332.557 424.727 339.053C424.727 339.053 418.955 340.599 416.069 343.795L497.389 442.982C501.511 442.982 505.943 441.333 509.035 438.755C516.147 432.878 512.23 427.001 512.23 427.001C520.991 429.888 522.33 422.465 522.33 422.465C523.258 428.135 529.854 432.775 537.893 428.857C545.933 424.836 543.562 417.103 543.562 417.103C551.704 414.938 552.529 404.215 552.529 404.215C559.743 409.473 566.134 396.173 566.134 396.173C570.565 410.401 579.841 407.514 585.613 401.019C591.385 394.523 585.819 387.924 585.819 387.924C591.282 380.81 586.025 377.614 586.025 377.614C597.569 369.984 600.867 358.849 601.691 352.044C602.619 352.147 603.546 352.044 604.371 351.735C610.143 349.776 623.85 331.217 608.597 323.484C608.597 323.484 614.987 313.276 606.226 308.74C606.226 308.74 614.368 302.244 605.711 292.862C605.711 292.862 608.803 290.181 611.173 285.954C614.884 284.51 618.594 282.242 622.201 278.633C622.201 278.633 624.16 283.892 631.477 280.283C631.477 280.283 636.321 286.469 643.227 282.448C650.029 278.427 654.358 270.694 642.402 264.199C642.402 264.199 655.389 260.796 651.987 253.476C651.987 253.476 661.779 254.713 665.077 247.805C665.077 247.805 671.57 251.207 676.62 244.815C681.567 238.422 678.578 231.617 673.734 229.762C673.734 229.762 680.64 229.968 679.609 221.616C679.609 221.616 684.144 226.256 690.74 220.894C697.233 215.533 700.738 203.47 689.71 199.139C689.71 199.139 698.264 196.459 695.584 190.066C695.584 190.066 700.635 196.871 711.663 195.221C711.663 195.221 710.117 207.388 719.083 214.193C728.05 221.101 740.83 215.636 744.85 212.337C744.85 212.337 750.622 218.42 755.878 216.667C761.134 214.811 773.605 198.005 759.691 190.994C759.691 190.994 765.463 181.715 757.527 177.59C757.527 177.59 764.948 171.713 757.012 163.053C757.012 163.053 772.059 149.752 759.073 137.998C759.073 137.998 766.391 134.699 760.928 126.966C760.928 126.966 775.254 123.667 767.421 110.057L767.524 109.954C767.421 109.851 767.215 109.747 767.112 109.541C767.009 109.541 766.906 109.335 766.803 109.232Z" fill="#A6F2FF"/>
<path d="M1949.48 240.175C1947.84 241.309 1946.5 242.443 1945.36 243.474C1944.74 242.856 1943.92 242.34 1943.09 242.031C1937.43 239.866 1915.06 245.227 1921.76 261.002C1921.76 261.002 1910.42 264.714 1914.13 273.89C1914.13 273.89 1903.72 273.684 1904.34 286.469C1904.34 286.469 1900.22 286.572 1895.79 288.222C1892.08 286.985 1887.65 286.263 1882.7 286.779C1882.7 286.779 1884.55 281.52 1876.72 279.561C1876.72 279.561 1876.93 271.725 1869.09 270.385C1861.26 269.044 1853.01 272.241 1857.96 284.923C1857.96 284.923 1845.8 279.149 1843.74 286.985C1843.74 286.985 1837.04 279.767 1830.03 282.861C1830.03 282.861 1827.25 276.056 1819.31 277.705C1811.38 279.458 1809.31 286.469 1811.89 291.109C1811.89 291.109 1806.74 286.572 1802.1 293.583C1802.1 293.583 1801.58 287.088 1793.13 286.985C1784.68 286.882 1774.27 293.893 1780.04 304.306C1780.04 304.306 1771.8 300.801 1769.74 307.399C1769.74 307.399 1770.25 298.945 1760.67 293.068C1760.67 293.068 1769.63 284.716 1767.16 273.684C1764.69 262.652 1751.39 258.631 1746.24 258.528C1746.24 258.528 1745.72 250.073 1740.57 248.114C1735.42 246.155 1715.01 251.001 1721.09 265.333C1721.09 265.333 1710.68 268.735 1714.08 276.984C1714.08 276.984 1704.6 276.777 1705.12 288.428C1705.12 288.428 1685.02 288.944 1687.49 306.368C1687.49 306.368 1679.76 304.203 1679.04 313.586C1679.04 313.586 1665.95 306.884 1663.17 322.35H1662.96C1662.96 322.556 1663.06 322.659 1663.06 322.865C1663.06 323.071 1662.96 323.175 1662.96 323.381H1663.17C1665.74 340.599 1680.38 333.485 1680.38 333.485C1681 343.899 1689.55 341.63 1689.55 341.63C1686.46 360.705 1708.52 361.736 1708.52 361.736C1707.79 371.84 1714.29 374.005 1716.97 374.418C1717.07 375.139 1717.28 375.758 1717.48 376.377C1715.73 384.109 1725.52 387.512 1725.52 387.512C1718.51 403.081 1740.67 408.958 1746.44 406.896C1747.06 406.689 1747.58 406.38 1748.09 406.071C1753.76 410.814 1762.11 411.226 1762.11 411.226C1761.29 424.011 1771.7 424.011 1771.7 424.011C1767.78 433.084 1779.12 437.002 1779.12 437.002C1772.11 452.571 1794.27 458.448 1800.04 456.386C1805.81 454.324 1806.53 445.044 1806.53 445.044C1812.2 445.148 1826.94 441.023 1829.82 428.96C1831.16 423.289 1829.82 418.237 1827.97 414.525C1832.71 413.701 1839.2 411.123 1843.64 406.38C1846.01 411.742 1852.81 415.041 1858.68 415.144C1867.96 415.247 1868.68 408.133 1868.68 408.133C1873.52 415.969 1879.3 411.123 1879.3 411.123C1876.41 416.072 1878.47 423.908 1887.13 425.97C1895.79 428.032 1899.09 420.609 1899.09 420.609C1906.71 424.217 1914.24 416.484 1914.24 416.484C1916.4 425.145 1929.8 419.062 1929.8 419.062C1924.03 432.878 1932.99 436.487 1941.65 435.25C1947.11 434.425 1949.07 430.713 1949.79 428.032V240.175H1949.48Z" fill="#A6F2FF"/>
<path d="M1679.35 200.48C1662.03 188.004 1655.23 200.48 1655.23 200.48C1648.94 178.621 1612.05 175.425 1612.05 175.425C1612.66 161.3 1591.54 169.239 1591.54 169.239C1592.36 141.298 1562.88 150.577 1562.88 150.577C1557.32 128.822 1522.28 134.183 1513.41 135.936C1504.55 134.183 1469.51 128.822 1463.94 150.577C1463.94 150.577 1434.36 141.298 1435.29 169.239C1435.29 169.239 1414.06 161.403 1414.78 175.425C1414.78 175.425 1377.88 178.518 1371.59 200.48C1371.59 200.48 1364.79 188.004 1347.48 200.48C1330.16 212.955 1331.09 240.897 1354.48 251.207C1354.48 251.207 1356.44 272.241 1377.88 272.344C1377.88 272.344 1377.26 294.099 1398.7 297.398C1398.7 297.398 1403.24 308.74 1414.78 311.73C1426.32 314.72 1436.83 300.594 1436.83 300.594C1436.83 300.594 1443.84 316.782 1453.53 320.906C1453.53 320.906 1453.12 341.218 1474.97 345.961C1492.49 349.776 1508.05 343.074 1513.52 340.393C1518.98 343.177 1534.54 349.776 1552.06 345.961C1573.81 341.218 1573.5 320.906 1573.5 320.906C1583.19 316.782 1590.2 300.594 1590.2 300.594C1590.2 300.594 1600.71 314.72 1612.25 311.73C1623.8 308.74 1628.33 297.398 1628.33 297.398C1649.77 294.202 1649.15 272.344 1649.15 272.344C1670.59 272.241 1672.55 251.207 1672.55 251.207C1695.74 240.897 1696.66 213.058 1679.35 200.48Z" fill="#A6F2FF"/>
<path d="M1372.52 265.539C1372.52 265.539 1395.61 244.609 1384.27 231.514C1384.27 231.514 1400.66 218.626 1384.89 208.419C1384.89 208.419 1397.36 199.655 1389.32 194.706C1389.32 194.706 1401.69 173.054 1391.9 161.197C1391.9 161.197 1401.38 162.228 1401.07 147.793C1400.76 133.462 1384.89 123.254 1370.36 132.327C1370.36 132.327 1357.89 125.419 1349.74 137.276C1349.74 137.276 1337.89 128.616 1328 139.235C1328 139.235 1319.96 137.38 1313.88 142.741C1307.8 147.999 1311.61 159.238 1311.61 159.238C1311.61 159.238 1299.96 156.969 1293.99 160.784C1293.99 160.784 1282.85 152.845 1271.93 163.156C1261 173.466 1260.18 188.21 1260.18 188.21L1372.52 265.539Z" fill="#A6F2FF"/>
<path d="M403.599 35.4088C403.599 35.4088 417.306 55.5143 443.073 52.9367C443.073 52.9367 440.599 59.9478 451.215 62.5254C451.215 62.5254 451.009 73.0421 461.522 74.6918C472.034 76.3415 483.062 72.0111 476.157 55.1019C476.157 55.1019 492.545 62.6285 495.224 52.1118C495.224 52.1118 504.294 61.7006 513.673 57.3702C513.673 57.3702 517.59 66.4434 528.205 64.072C538.821 61.7006 541.398 52.1118 537.997 46.0286C537.997 46.0286 545.005 52.1118 551.086 42.5231C551.086 42.5231 551.911 51.1839 563.145 51.1839C574.379 51.1839 588.293 41.5951 580.46 27.7791C580.46 27.7791 591.591 32.3157 594.271 23.4487C594.271 23.4487 593.652 34.6871 606.639 42.5231C606.639 42.5231 594.786 53.7615 598.187 68.5055C601.691 83.2495 619.522 88.5078 626.427 88.5078C626.427 88.5078 627.252 99.7463 634.26 102.427C641.269 105.005 668.478 98.0966 660.13 79.0222C660.13 79.0222 673.941 74.3825 669.303 63.2471C669.303 63.2471 681.98 63.4534 681.155 47.7814C681.155 47.7814 708.055 46.8535 704.551 23.4487C704.551 23.4487 714.961 26.2325 715.785 13.5506C715.785 13.5506 734.337 22.7269 737.223 0.146973H403.599V35.4088Z" fill="#A6F2FF"/>
<path d="M1136.09 35.4088C1136.09 35.4088 1149.8 55.5143 1175.56 52.9367C1175.56 52.9367 1173.09 59.9478 1183.7 62.5254C1183.7 62.5254 1183.5 73.0421 1194.01 74.6918C1204.52 76.3415 1215.55 72.0111 1208.65 55.1019C1208.65 55.1019 1225.03 62.6285 1227.71 52.1118C1227.71 52.1118 1236.78 61.7006 1246.16 57.3702C1246.16 57.3702 1250.08 66.4434 1260.7 64.072C1271.31 61.7006 1273.89 52.1118 1270.49 46.0286C1270.49 46.0286 1277.49 52.1118 1283.58 42.5231C1283.58 42.5231 1284.4 51.1839 1295.63 51.1839C1306.87 51.1839 1320.78 41.5951 1312.95 27.7791C1312.95 27.7791 1324.08 32.3157 1326.76 23.4487C1326.76 23.4487 1326.14 34.6871 1339.13 42.5231C1339.13 42.5231 1327.28 53.7615 1330.68 68.5055C1334.18 83.2495 1352.01 88.5078 1358.92 88.5078C1358.92 88.5078 1359.74 99.7463 1366.75 102.427C1373.76 105.005 1400.97 98.0966 1392.62 79.0222C1392.62 79.0222 1406.43 74.3825 1401.79 63.2471C1401.79 63.2471 1414.47 63.4534 1413.64 47.7814C1413.64 47.7814 1440.55 46.8535 1437.04 23.4487C1437.04 23.4487 1447.45 26.2325 1448.28 13.5506C1448.28 13.5506 1466.83 22.7269 1469.71 0.146973H1136.09V35.4088Z" fill="#A6F2FF"/>
<path d="M1024.88 1.28113H841.629H658.378C661.573 26.2325 681.877 16.0251 681.877 16.0251C682.804 29.9443 694.245 26.8511 694.245 26.8511C690.431 52.4211 720.011 53.5553 720.011 53.5553C719.29 67.1651 727.844 69.8459 731.451 70.3614C731.658 71.2893 731.864 72.2173 732.173 73.0421C730.008 83.4557 743.098 87.8892 743.098 87.8892C733.925 108.923 763.814 116.449 771.441 113.665C772.266 113.356 772.987 112.944 773.605 112.531C781.335 118.821 792.466 119.233 792.466 119.233C791.539 136.348 805.453 136.245 805.453 136.245C800.299 148.412 815.553 153.567 815.553 153.567C806.38 174.6 836.27 182.127 843.896 179.343C851.626 176.456 852.451 164.084 852.451 164.084C860.078 164.084 879.763 158.31 883.474 142.122C885.226 134.493 883.371 127.791 880.794 122.739C887.184 121.501 895.842 118.099 901.613 111.5C904.808 118.718 913.981 123.048 922.02 123.048C934.388 123.048 935.316 113.562 935.316 113.562C941.912 124.079 949.642 117.377 949.642 117.377C945.829 124.079 948.714 134.493 960.361 137.173C972.007 139.854 976.336 129.853 976.336 129.853C986.643 134.596 996.64 124.079 996.64 124.079C999.629 135.627 1017.56 127.378 1017.56 127.378C1010.04 145.937 1022.1 150.783 1033.64 148.927C1045.18 147.071 1044.98 135.524 1044.98 135.524C1056.73 132.843 1053.94 125.007 1053.94 125.007C1072.5 126.863 1085.28 118.202 1091.98 111.81C1092.9 112.634 1093.93 113.356 1095.07 113.769C1102.8 116.655 1132.69 109.026 1123.41 87.9923C1123.41 87.9923 1138.66 82.8371 1133.51 70.6707C1133.51 70.6707 1147.43 70.8769 1146.5 53.6584C1146.5 53.6584 1176.08 52.6273 1172.26 26.9542C1172.26 26.9542 1183.7 30.0474 1184.63 16.1282C1184.63 16.1282 1205.04 26.2325 1208.13 1.38423H1024.88V1.28113ZM921.505 61.5975C921.505 61.5975 922.536 62.113 924.185 62.6285C923.979 64.072 923.876 65.4123 924.082 66.7527H923.257C922.742 65.2061 922.227 63.4534 921.505 61.5975Z" fill="#A6F2FF"/>
<path d="M336.503 1.28113H153.251H-30C-26.805 26.2325 -6.50097 16.0251 -6.50097 16.0251C-5.57337 29.9443 5.86695 26.8511 5.86695 26.8511C2.05351 52.4211 31.6334 53.5553 31.6334 53.5553C30.912 67.1651 39.4664 69.8459 43.0738 70.3614C43.2799 71.2893 43.486 72.2173 43.7952 73.0421C41.6308 83.4557 54.7202 87.8892 54.7202 87.8892C45.5473 108.923 75.4365 116.449 83.0633 113.665C83.8879 113.356 84.6093 112.944 85.2277 112.531C92.9577 118.821 104.089 119.233 104.089 119.233C103.161 136.348 117.075 136.245 117.075 136.245C111.922 148.412 127.176 153.567 127.176 153.567C118.003 174.6 147.892 182.127 155.519 179.343C163.249 176.456 164.073 164.084 164.073 164.084C171.7 164.084 191.386 158.31 195.096 142.122C196.848 134.493 194.993 127.791 192.416 122.739C198.806 121.501 207.464 118.099 213.236 111.5C216.431 118.718 225.604 123.048 233.643 123.048C246.011 123.048 246.938 113.562 246.938 113.562C253.534 124.079 261.264 117.377 261.264 117.377C257.451 124.079 260.337 134.493 271.983 137.173C283.63 139.854 287.958 129.853 287.958 129.853C298.265 134.596 308.262 124.079 308.262 124.079C311.251 135.627 329.185 127.378 329.185 127.378C321.661 145.937 333.72 150.783 345.263 148.927C356.806 147.071 356.6 135.524 356.6 135.524C368.35 132.843 365.567 125.007 365.567 125.007C384.119 126.863 396.899 118.202 403.598 111.81C404.526 112.634 405.557 113.356 406.69 113.769C414.42 116.655 444.309 109.026 435.034 87.9923C435.034 87.9923 450.287 82.8371 445.134 70.6707C445.134 70.6707 459.048 70.8769 458.12 53.6584C458.12 53.6584 487.7 52.6273 483.887 26.9542C483.887 26.9542 495.327 30.0474 496.255 16.1282C496.255 16.1282 516.662 26.2325 519.754 1.38423H336.503V1.28113ZM233.127 61.5975C233.127 61.5975 234.158 62.113 235.807 62.6285C235.601 64.072 235.498 65.4123 235.704 66.7527H234.879C234.364 65.2061 233.849 63.4534 233.127 61.5975Z" fill="#A6F2FF"/>
<path d="M1766.65 1.28113H1583.39H1400.14C1403.34 26.2325 1423.64 16.0251 1423.64 16.0251C1424.57 29.9443 1436.01 26.8511 1436.01 26.8511C1432.2 52.4211 1461.78 53.5553 1461.78 53.5553C1461.06 67.1651 1469.61 69.8459 1473.22 70.3614C1473.42 71.2893 1473.63 72.2173 1473.94 73.0421C1471.77 83.4557 1484.86 87.8892 1484.86 87.8892C1475.69 108.923 1505.58 116.449 1513.21 113.665C1514.03 113.356 1514.75 112.944 1515.37 112.531C1523.1 118.821 1534.23 119.233 1534.23 119.233C1533.3 136.348 1547.22 136.245 1547.22 136.245C1542.06 148.412 1557.32 153.567 1557.32 153.567C1548.15 174.6 1578.03 182.127 1585.66 179.343C1593.39 176.456 1594.22 164.084 1594.22 164.084C1601.84 164.084 1621.53 158.31 1625.24 142.122C1626.99 134.493 1625.14 127.791 1622.56 122.739C1628.95 121.501 1637.61 118.099 1643.38 111.5C1646.57 118.718 1655.75 123.048 1663.79 123.048C1676.15 123.048 1677.08 113.562 1677.08 113.562C1683.68 124.079 1691.41 117.377 1691.41 117.377C1687.59 124.079 1690.48 134.493 1702.13 137.173C1713.77 139.854 1718.1 129.853 1718.1 129.853C1728.41 134.596 1738.41 124.079 1738.41 124.079C1741.39 135.627 1759.33 127.378 1759.33 127.378C1751.8 145.937 1763.86 150.783 1775.41 148.927C1786.95 147.071 1786.74 135.524 1786.74 135.524C1798.49 132.843 1795.71 125.007 1795.71 125.007C1814.26 126.863 1827.04 118.202 1833.74 111.81C1834.67 112.634 1835.7 113.356 1836.83 113.769C1844.56 116.655 1874.45 109.026 1865.18 87.9923C1865.18 87.9923 1880.43 82.8371 1875.28 70.6707C1875.28 70.6707 1889.19 70.8769 1888.26 53.6584C1888.26 53.6584 1917.84 52.6273 1914.03 26.9542C1914.03 26.9542 1925.47 30.0474 1926.4 16.1282C1926.4 16.1282 1946.8 26.2325 1949.9 1.38423H1766.65V1.28113ZM1663.27 61.5975C1663.27 61.5975 1664.3 62.113 1665.95 62.6285C1665.74 64.072 1665.64 65.4123 1665.85 66.7527H1665.02C1664.61 65.2061 1663.99 63.4534 1663.27 61.5975Z" fill="#A6F2FF"/>
<path d="M1366.13 259.043C1366.13 258.94 1366.13 258.734 1366.23 258.631H1366.13C1363.76 244.402 1351.7 250.382 1351.7 250.382C1351.08 241.825 1344.07 243.681 1344.07 243.681C1346.45 227.906 1328.2 227.184 1328.2 227.184C1328.72 218.729 1323.36 217.08 1321.09 216.77C1320.99 216.152 1320.78 215.636 1320.68 215.121C1322.02 208.728 1313.98 205.944 1313.98 205.944C1319.65 192.953 1301.2 188.313 1296.46 190.066C1295.94 190.272 1295.53 190.478 1295.12 190.788C1290.38 186.973 1283.47 186.664 1283.47 186.664C1284.09 176.044 1275.43 176.147 1275.43 176.147C1278.63 168.62 1269.15 165.424 1269.15 165.424C1274.81 152.433 1256.37 147.793 1251.62 149.546C1246.88 151.299 1246.37 158.928 1246.37 158.928C1241.63 158.928 1229.57 162.434 1227.2 172.435C1226.06 177.075 1227.3 181.302 1228.85 184.395C1224.93 185.117 1219.57 187.282 1215.96 191.303C1214.01 186.87 1208.34 184.189 1203.39 184.189C1195.76 184.189 1195.14 190.066 1195.14 190.066C1191.02 183.57 1186.28 187.695 1186.28 187.695C1188.65 183.57 1186.9 177.075 1179.68 175.425C1172.47 173.776 1169.79 179.962 1169.79 179.962C1163.4 177.075 1157.32 183.57 1157.32 183.57C1155.46 176.456 1144.44 181.508 1144.44 181.508C1149.07 170.064 1141.65 167.074 1134.54 168.208C1127.43 169.342 1127.53 176.456 1127.53 176.456C1120.32 178.106 1121.97 182.952 1121.97 182.952C1110.53 181.818 1102.59 187.179 1098.47 191.097C1097.95 190.582 1097.23 190.169 1096.51 189.86C1091.77 188.107 1073.32 192.747 1078.99 205.738C1078.99 205.738 1069.61 208.934 1072.7 216.461C1072.7 216.461 1064.04 216.358 1064.66 226.978C1064.66 226.978 1061.26 227.081 1057.55 228.524C1054.46 227.493 1050.85 226.978 1046.73 227.39C1046.73 227.39 1048.28 223.06 1041.68 221.513C1041.68 221.513 1041.78 215.017 1035.29 213.986C1028.8 212.955 1021.99 215.636 1026.22 226.05C1026.22 226.05 1016.12 221.41 1014.47 227.906C1014.47 227.906 1008.9 222.029 1003.13 224.606C1003.13 224.606 1000.76 218.935 994.166 220.482C987.57 221.925 986.024 227.906 988.085 231.617C988.085 231.617 983.756 227.906 980.046 233.783C980.046 233.783 979.531 228.421 972.522 228.421C965.514 228.421 956.959 234.298 961.803 242.856C961.803 242.856 955.001 240.072 953.249 245.536C953.249 245.536 953.558 238.525 945.622 233.783C945.622 233.783 952.94 226.771 950.878 217.698C948.714 208.625 937.686 205.326 933.46 205.326C933.46 205.326 932.945 198.314 928.616 196.768C924.287 195.118 907.488 199.449 912.641 211.203C912.641 211.203 904.086 214.09 906.972 220.998C906.972 220.998 899.139 220.894 899.655 230.586C899.655 230.586 883.061 231.205 885.225 245.64C885.225 245.64 878.835 243.887 878.217 251.723C878.217 251.723 867.292 246.258 865.127 259.146H865.024C865.024 259.353 865.024 259.456 865.127 259.559C865.127 259.662 865.127 259.868 865.024 259.971H865.127C867.498 274.2 879.557 268.22 879.557 268.22C880.175 276.777 887.184 274.921 887.184 274.921C884.813 290.696 903.056 291.418 903.056 291.418C902.54 299.873 907.9 301.522 910.167 301.832C910.27 302.45 910.476 302.966 910.58 303.481C909.24 309.874 917.279 312.658 917.279 312.658C911.61 325.649 930.059 330.289 934.8 328.536C935.315 328.33 935.728 328.123 936.14 327.814C940.881 331.629 947.786 331.938 947.786 331.938C947.168 342.558 955.825 342.455 955.825 342.455C952.63 349.982 962.112 353.178 962.112 353.178C956.444 366.169 974.893 370.809 979.634 369.056C984.375 367.303 984.89 359.674 984.89 359.674C989.631 359.674 1001.69 356.168 1004.06 346.167C1005.19 341.527 1003.96 337.3 1002.41 334.207C1006.33 333.485 1011.69 331.32 1015.29 327.299C1017.25 331.732 1022.92 334.413 1027.87 334.413C1035.5 334.413 1036.11 328.536 1036.11 328.536C1040.24 335.031 1044.98 330.907 1044.98 330.907C1042.61 335.031 1044.36 341.527 1051.57 343.177C1058.79 344.826 1061.47 338.64 1061.47 338.64C1067.86 341.527 1073.94 335.031 1073.94 335.031C1075.79 342.146 1086.82 337.094 1086.82 337.094C1082.18 348.538 1089.61 351.528 1096.72 350.394C1103.83 349.26 1103.73 342.146 1103.73 342.146C1110.94 340.496 1109.29 335.65 1109.29 335.65C1120.73 336.784 1128.67 331.423 1132.79 327.505C1133.3 328.02 1134.03 328.433 1134.75 328.742C1139.49 330.495 1157.94 325.855 1152.27 312.864C1152.27 312.864 1161.65 309.668 1158.56 302.141C1158.56 302.141 1167.21 302.244 1166.6 291.624C1166.6 291.624 1170 291.521 1173.71 290.078C1176.8 291.109 1180.41 291.624 1184.53 291.212C1184.53 291.212 1182.98 295.542 1189.58 297.089C1189.58 297.089 1189.48 303.585 1195.97 304.616C1202.46 305.647 1209.26 302.966 1205.04 292.552C1205.04 292.552 1215.14 297.192 1216.79 290.696C1216.79 290.696 1222.35 296.573 1228.13 293.996C1228.13 293.996 1230.5 299.667 1237.09 298.12C1243.69 296.676 1245.23 290.696 1243.17 286.985C1243.17 286.985 1247.5 290.696 1251.21 284.819C1251.21 284.819 1251.73 290.181 1258.74 290.181C1265.74 290.181 1274.3 284.304 1269.46 275.746C1269.46 275.746 1276.26 278.53 1278.01 273.065C1278.01 273.065 1277.7 280.077 1285.64 284.819C1285.64 284.819 1278.32 291.831 1280.38 300.904C1282.54 309.977 1293.57 313.276 1297.8 313.276C1297.8 313.276 1298.31 320.288 1302.64 321.834C1306.97 323.484 1323.77 319.153 1318.62 307.399C1318.62 307.399 1327.17 304.512 1324.29 297.604C1324.29 297.604 1332.12 297.708 1331.6 288.016C1331.6 288.016 1348.2 287.397 1346.03 272.962C1346.03 272.962 1352.42 274.715 1353.04 266.879C1353.04 266.879 1363.97 272.344 1366.13 259.456H1366.23C1366.23 259.353 1366.13 259.249 1366.13 259.043ZM1029.21 299.873H1028.69C1028.49 298.842 1028.07 297.811 1027.66 296.676C1027.66 296.676 1028.28 296.986 1029.31 297.295C1029.11 298.223 1029.11 299.048 1029.21 299.873Z" fill="#A6F2FF"/>
<path d="M227.046 256.569C209.731 244.093 202.929 256.569 202.929 256.569C196.642 234.711 159.744 231.514 159.744 231.514C160.363 217.389 139.234 225.328 139.234 225.328C140.059 197.387 110.582 206.666 110.582 206.666C105.016 184.911 69.974 190.272 61.1103 192.025C52.2466 190.272 17.2042 184.911 11.6386 206.666C11.6386 206.666 -17.9413 197.387 -17.0137 225.328C-17.0137 225.328 -24.1252 222.647 -30 223.163V367.51C-21.7547 365.035 -15.4677 356.684 -15.4677 356.684C-15.4677 356.684 -8.45922 372.871 1.22898 376.995C1.22898 376.995 0.816719 397.307 22.6667 402.05C40.1879 405.865 55.7509 399.163 61.2134 396.482C66.6759 399.266 82.2388 405.865 99.76 402.05C121.507 397.307 121.198 376.995 121.198 376.995C130.886 372.871 137.894 356.684 137.894 356.684C137.894 356.684 148.407 370.809 159.951 367.819C171.494 364.829 176.029 353.487 176.029 353.487C197.467 350.291 196.848 328.433 196.848 328.433C218.286 328.33 220.244 307.296 220.244 307.296C243.434 296.986 244.259 269.148 227.046 256.569Z" fill="#A6F2FF"/>
<path d="M823.489 372.355C823.489 372.149 823.592 372.046 823.592 371.84H823.386C820.603 354.621 805.968 361.942 805.968 361.942C805.246 351.528 796.692 353.797 796.692 353.797C799.578 334.619 777.522 333.897 777.522 333.897C778.037 323.69 771.647 321.731 768.967 321.319C768.761 320.597 768.658 319.978 768.452 319.36C770.101 311.627 760.31 308.327 760.31 308.327C767.215 292.655 744.85 286.985 739.078 289.15C738.46 289.356 737.944 289.665 737.429 289.975C731.657 285.335 723.309 285.026 723.309 285.026C724.03 272.241 713.621 272.344 713.621 272.344C717.434 263.271 706.097 259.353 706.097 259.353C713.002 243.681 690.637 238.01 684.865 240.175C679.094 242.34 678.475 251.517 678.475 251.517C672.807 251.517 658.068 255.744 655.285 267.91C653.946 273.581 655.389 278.633 657.244 282.345C652.503 283.273 646.01 285.85 641.681 290.696C639.31 285.335 632.405 282.036 626.427 282.036C617.151 282.036 616.533 289.15 616.533 289.15C611.585 281.314 605.814 286.263 605.814 286.263C608.7 281.314 606.535 273.478 597.775 271.416C589.014 269.457 585.819 276.88 585.819 276.88C578.089 273.375 570.668 281.211 570.668 281.211C568.401 272.55 555.002 278.736 555.002 278.736C560.671 264.92 551.601 261.312 542.944 262.652C534.286 263.992 534.492 272.653 534.492 272.653C525.732 274.715 527.793 280.489 527.793 280.489C513.982 279.046 504.397 285.644 499.347 290.284C498.728 289.665 497.904 289.15 496.976 288.841C491.204 286.675 468.942 292.346 475.745 308.018C475.745 308.018 464.407 311.833 468.221 321.009C468.221 321.009 457.811 320.906 458.533 333.691C458.533 333.691 454.41 333.794 449.978 335.547C446.268 334.31 441.836 333.691 436.889 334.207C436.889 334.207 438.744 328.948 430.808 327.092C430.808 327.092 430.911 319.256 423.078 318.019C415.245 316.782 407 320.081 412.153 332.66C412.153 332.66 399.991 326.989 397.93 334.928C397.93 334.928 391.127 327.814 384.119 331.01C384.119 331.01 381.233 324.206 373.297 326.061C365.361 327.917 363.403 335.031 365.979 339.568C365.979 339.568 360.723 335.031 356.188 342.146C356.188 342.146 355.57 335.65 347.118 335.65C338.667 335.65 328.36 342.764 334.132 353.178C334.132 353.178 325.887 349.776 323.825 356.374C323.825 356.374 324.238 347.92 314.652 342.146C314.652 342.146 323.516 333.691 320.94 322.659C318.363 311.627 304.964 307.709 299.811 307.709C299.811 307.709 299.193 299.254 293.936 297.295C288.68 295.336 268.376 300.491 274.663 314.823C274.663 314.823 264.356 318.329 267.757 326.577C267.757 326.577 258.275 326.474 258.894 338.125C258.894 338.125 238.796 338.846 241.373 356.271C241.373 356.271 233.643 354.209 232.921 363.695C232.921 363.695 219.729 357.096 217.049 372.665H216.843C216.843 372.871 216.946 372.974 216.946 373.18C216.946 373.387 216.843 373.49 216.843 373.696H217.049C219.832 390.914 234.467 383.594 234.467 383.594C235.189 394.007 243.743 391.739 243.743 391.739C240.857 410.917 262.913 411.638 262.913 411.638C262.398 421.846 268.788 423.805 271.468 424.217C271.674 424.939 271.777 425.558 271.983 426.176C270.334 433.909 280.125 437.208 280.125 437.208C273.22 452.88 295.585 458.551 301.357 456.386C301.975 456.18 302.491 455.87 303.006 455.561C308.778 460.201 317.126 460.51 317.126 460.51C316.405 473.295 326.814 473.192 326.814 473.192C323.001 482.265 334.338 486.183 334.338 486.183C327.433 501.855 349.798 507.526 355.57 505.361C361.341 503.196 361.96 493.916 361.96 493.916C367.628 493.916 382.367 489.689 385.15 477.522C386.489 471.852 385.047 466.8 383.191 463.088C387.932 462.16 394.426 459.582 398.754 454.736C401.125 460.098 408.03 463.397 414.008 463.397C423.284 463.397 423.902 456.283 423.902 456.283C428.85 464.119 434.621 459.17 434.621 459.17C431.735 464.119 433.9 471.955 442.66 474.017C451.421 475.976 454.616 468.552 454.616 468.552C462.346 472.058 469.767 464.222 469.767 464.222C472.034 472.883 485.433 466.696 485.433 466.696C479.764 480.512 488.834 484.121 497.491 482.781C506.149 481.44 505.943 472.78 505.943 472.78C514.704 470.718 512.642 464.944 512.642 464.944C526.453 466.387 536.038 459.788 541.088 455.149C541.707 455.767 542.531 456.283 543.459 456.592C549.231 458.757 571.493 453.087 564.69 437.415C564.69 437.415 576.028 433.6 572.214 424.423C572.214 424.423 582.624 424.527 581.903 411.742C581.903 411.742 586.025 411.638 590.457 409.886C594.167 411.123 598.599 411.742 603.546 411.226C603.546 411.226 601.691 416.484 609.627 418.34C609.627 418.34 609.524 426.176 617.357 427.413C625.19 428.651 633.435 425.351 628.282 412.773C628.282 412.773 640.444 418.443 642.505 410.504C642.505 410.504 649.308 417.618 656.316 414.422C656.316 414.422 659.202 421.227 667.138 419.371C675.074 417.515 677.032 410.401 674.456 405.865C674.456 405.865 679.712 410.401 684.247 403.287C684.247 403.287 684.865 409.783 693.317 409.783C701.768 409.783 712.075 402.668 706.303 392.255C706.303 392.255 714.548 395.657 716.61 389.058C716.61 389.058 716.197 397.513 725.783 403.287C725.783 403.287 716.919 411.742 719.496 422.774C722.072 433.806 735.471 437.724 740.624 437.724C740.624 437.724 741.242 446.179 746.499 448.138C751.755 450.097 772.059 444.941 765.772 430.61C765.772 430.61 776.079 427.104 772.678 418.856C772.678 418.856 782.16 418.959 781.541 407.308C781.541 407.308 801.639 406.586 799.062 389.162C799.062 389.162 806.792 391.224 807.514 381.738C807.514 381.738 820.706 388.337 823.386 372.768H823.592C823.592 372.768 823.592 372.562 823.489 372.355ZM415.966 421.743H415.245C414.936 420.505 414.523 419.268 414.008 417.928C414.008 417.928 414.833 418.237 415.966 418.753C415.863 419.681 415.76 420.712 415.966 421.743Z" fill="#A6F2FF"/>
<path d="M1381.8 976.447C1381.8 976.344 1381.8 976.137 1381.9 976.034H1381.8C1379.43 961.806 1367.37 967.786 1367.37 967.786C1366.75 959.228 1359.74 961.084 1359.74 961.084C1362.11 945.309 1343.87 944.587 1343.87 944.587C1344.38 936.133 1339.03 934.483 1336.76 934.174C1336.65 933.555 1336.45 933.04 1336.35 932.524C1337.69 926.132 1329.65 923.348 1329.65 923.348C1335.31 910.357 1316.87 905.717 1312.12 907.47C1311.61 907.676 1311.2 907.882 1310.79 908.191C1306.04 904.376 1299.14 904.067 1299.14 904.067C1299.76 893.447 1291.1 893.55 1291.1 893.55C1294.29 886.024 1284.81 882.828 1284.81 882.828C1290.48 869.836 1272.03 865.197 1267.29 866.949C1262.55 868.702 1262.03 876.332 1262.03 876.332C1257.29 876.332 1245.24 879.838 1242.86 889.839C1241.73 894.478 1242.97 898.706 1244.51 901.799C1240.6 902.521 1235.24 904.686 1231.63 908.707C1229.67 904.273 1224 901.593 1219.06 901.593C1211.43 901.593 1210.81 907.47 1210.81 907.47C1206.69 900.974 1201.95 905.098 1201.95 905.098C1204.32 900.974 1202.57 894.478 1195.35 892.829C1188.14 891.179 1185.46 897.365 1185.46 897.365C1179.07 894.478 1172.99 900.974 1172.99 900.974C1171.13 893.86 1160.1 898.912 1160.1 898.912C1164.74 887.467 1157.32 884.477 1150.21 885.611C1143.1 886.746 1143.2 893.86 1143.2 893.86C1135.99 895.51 1137.63 900.355 1137.63 900.355C1126.19 899.221 1118.26 904.583 1114.14 908.501C1113.62 907.985 1112.9 907.573 1112.18 907.263C1107.44 905.511 1088.99 910.15 1094.66 923.142C1094.66 923.142 1085.28 926.338 1088.37 933.865C1088.37 933.865 1079.71 933.761 1080.33 944.381C1080.33 944.381 1076.93 944.484 1073.22 945.928C1070.13 944.897 1066.52 944.381 1062.4 944.794C1062.4 944.794 1063.94 940.463 1057.35 938.917C1057.35 938.917 1057.45 932.421 1050.96 931.39C1044.46 930.359 1037.66 933.04 1041.89 943.453C1041.89 943.453 1031.79 938.814 1030.14 945.309C1030.14 945.309 1024.57 939.432 1018.8 942.01C1018.8 942.01 1016.43 936.339 1009.83 937.886C1003.24 939.329 1001.69 945.309 1003.75 949.021C1003.75 949.021 999.423 945.309 995.713 951.186C995.713 951.186 995.197 945.825 988.189 945.825C981.18 945.825 972.626 951.702 977.47 960.259C977.47 960.259 970.668 957.476 968.915 962.94C968.915 962.94 969.225 955.929 961.289 951.186C961.289 951.186 968.606 944.175 966.545 935.102C964.381 926.029 953.352 922.729 949.127 922.729C949.127 922.729 948.611 915.718 944.283 914.171C939.954 912.522 923.154 916.852 928.307 928.606C928.307 928.606 919.753 931.493 922.639 938.401C922.639 938.401 914.806 938.298 915.321 947.99C915.321 947.99 898.727 948.608 900.892 963.043C900.892 963.043 894.502 961.29 893.883 969.126C893.883 969.126 882.958 963.662 880.794 976.55H880.691C880.691 976.756 880.691 976.859 880.794 976.962C880.794 977.065 880.794 977.272 880.691 977.375H880.794C883.165 991.603 895.223 985.623 895.223 985.623C895.842 994.181 902.85 992.325 902.85 992.325C900.48 1008.1 918.722 1008.82 918.722 1008.82C918.207 1017.28 923.566 1018.93 925.834 1019.24C925.937 1019.85 926.143 1020.37 926.246 1020.88C924.906 1027.28 932.945 1030.06 932.945 1030.06C927.277 1043.05 945.726 1047.69 950.467 1045.94C950.982 1045.73 951.394 1045.53 951.806 1045.22C956.547 1049.03 963.453 1049.34 963.453 1049.34C962.835 1059.96 971.492 1059.86 971.492 1059.86C968.297 1067.39 977.779 1070.58 977.779 1070.58C972.11 1083.57 990.559 1088.21 995.3 1086.46C1000.04 1084.71 1000.56 1077.08 1000.56 1077.08C1005.3 1077.08 1017.36 1073.57 1019.73 1063.57C1020.86 1058.93 1019.62 1054.7 1018.08 1051.61C1021.99 1050.89 1027.35 1048.72 1030.96 1044.7C1032.92 1049.14 1038.59 1051.82 1043.54 1051.82C1051.16 1051.82 1051.78 1045.94 1051.78 1045.94C1055.9 1052.44 1060.64 1048.31 1060.64 1048.31C1058.27 1052.44 1060.03 1058.93 1067.24 1060.58C1074.45 1062.23 1077.13 1056.04 1077.13 1056.04C1083.52 1058.93 1089.61 1052.44 1089.61 1052.44C1091.46 1059.55 1102.49 1054.5 1102.49 1054.5C1097.85 1065.94 1105.27 1068.93 1112.38 1067.8C1119.49 1066.66 1119.39 1059.55 1119.39 1059.55C1126.61 1057.9 1124.96 1053.05 1124.96 1053.05C1136.4 1054.19 1144.33 1048.83 1148.46 1044.91C1148.97 1045.42 1149.69 1045.84 1150.41 1046.15C1155.16 1047.9 1173.6 1043.26 1167.94 1030.27C1167.94 1030.27 1177.31 1027.07 1174.22 1019.54C1174.22 1019.54 1182.88 1019.65 1182.26 1009.03C1182.26 1009.03 1185.66 1008.92 1189.37 1007.48C1192.47 1008.51 1196.07 1009.03 1200.2 1008.62C1200.2 1008.62 1198.65 1012.95 1205.25 1014.49C1205.25 1014.49 1205.14 1020.99 1211.64 1022.02C1218.13 1023.05 1224.93 1020.37 1220.71 1009.96C1220.71 1009.96 1230.81 1014.6 1232.46 1008.1C1232.46 1008.1 1238.02 1013.98 1243.79 1011.4C1243.79 1011.4 1246.16 1017.07 1252.76 1015.52C1259.36 1014.08 1260.9 1008.1 1258.84 1004.39C1258.84 1004.39 1263.17 1008.1 1266.88 1002.22C1266.88 1002.22 1267.39 1007.58 1274.4 1007.58C1281.41 1007.58 1289.97 1001.71 1285.12 993.15C1285.12 993.15 1291.92 995.934 1293.68 990.469C1293.68 990.469 1293.37 997.48 1301.3 1002.22C1301.3 1002.22 1293.99 1009.23 1296.05 1018.31C1298.21 1027.38 1309.24 1030.68 1313.46 1030.68C1313.46 1030.68 1313.98 1037.69 1318.31 1039.24C1322.64 1040.89 1339.44 1036.56 1334.28 1024.8C1334.28 1024.8 1342.84 1021.92 1339.95 1015.01C1339.95 1015.01 1347.79 1015.11 1347.27 1005.42C1347.27 1005.42 1363.86 1004.8 1361.7 990.366C1361.7 990.366 1368.09 992.119 1368.71 984.283C1368.71 984.283 1379.63 989.747 1381.8 976.859H1381.9C1381.9 976.653 1381.9 976.55 1381.8 976.447ZM1044.88 1017.17H1044.36C1044.15 1016.14 1043.74 1015.11 1043.33 1013.98C1043.33 1013.98 1043.95 1014.29 1044.98 1014.6C1044.88 1015.52 1044.77 1016.35 1044.88 1017.17Z" fill="#A6F2FF"/>
<path d="M1948.97 930.875C1947.32 930.565 1945.88 930.462 1944.95 930.771C1944.54 930.875 1944.13 931.081 1943.82 931.287C1940.21 927.884 1934.64 927.266 1934.64 927.266C1935.67 918.708 1928.77 918.296 1928.77 918.296C1931.76 912.316 1924.34 909.222 1924.34 909.222C1929.7 899.015 1914.96 894.169 1911.04 895.303C1907.12 896.437 1906.2 902.624 1906.2 902.624C1902.38 902.315 1892.28 904.583 1889.81 912.522C1888.68 916.234 1889.4 919.739 1890.43 922.317C1887.23 922.729 1882.7 924.173 1879.61 927.266C1878.27 923.554 1873.83 921.08 1869.81 920.77C1863.63 920.358 1862.81 925.101 1862.81 925.101C1859.82 919.636 1855.8 922.729 1855.8 922.729C1857.96 919.533 1856.83 914.172 1851.06 912.419C1845.28 910.666 1842.81 915.512 1842.81 915.512C1837.76 912.831 1832.4 917.677 1832.4 917.677C1831.27 911.8 1821.99 915.306 1821.99 915.306C1826.42 906.232 1820.55 903.449 1814.67 903.964C1808.8 904.48 1808.49 910.254 1808.49 910.254C1802.51 911.181 1803.65 915.203 1803.65 915.203C1794.37 913.656 1787.67 917.574 1784.06 920.461C1783.65 920.049 1783.14 919.636 1782.52 919.327C1778.81 917.574 1763.45 920.358 1767.37 931.287C1767.37 931.287 1759.53 933.349 1761.7 939.638C1761.7 939.638 1754.69 939.02 1754.59 947.681C1754.59 947.681 1751.8 947.578 1748.71 948.505C1746.24 947.474 1743.35 946.856 1739.95 946.959C1739.95 946.959 1741.39 943.453 1736.14 941.907C1736.14 941.907 1736.65 936.648 1731.4 935.411C1726.14 934.174 1720.47 936.03 1723.36 944.691C1723.36 944.691 1715.42 940.36 1713.67 945.515C1713.67 945.515 1709.44 940.36 1704.6 942.216C1704.6 942.216 1702.95 937.473 1697.59 938.401C1692.13 939.226 1690.48 943.969 1692.03 947.062C1692.03 947.062 1688.73 943.763 1685.33 948.299C1685.33 948.299 1685.22 943.866 1679.55 943.556C1673.89 943.247 1666.57 947.474 1670.07 954.692C1670.07 954.692 1664.71 952.011 1662.96 956.341C1662.96 956.341 1663.68 950.671 1657.4 946.34C1657.4 946.34 1663.79 941.082 1662.55 933.555C1661.31 926.029 1652.55 922.832 1649.05 922.523C1649.05 922.523 1649.05 916.852 1645.65 915.306C1642.25 913.759 1628.33 916.234 1631.84 926.132C1631.84 926.132 1624.72 927.988 1626.68 933.761C1626.68 933.761 1620.29 933.246 1620.19 941.082C1620.19 941.082 1606.69 940.669 1607.61 952.423C1607.61 952.423 1602.46 950.671 1601.64 956.96C1601.64 956.96 1593.08 951.908 1590.61 962.218H1590.51C1590.51 962.322 1590.51 962.425 1590.51 962.631C1590.51 962.734 1590.4 962.837 1590.4 962.94H1590.51C1591.54 974.591 1601.74 970.467 1601.74 970.467C1601.74 977.478 1607.61 976.344 1607.61 976.344C1604.83 989.026 1619.57 990.675 1619.57 990.675C1618.75 997.48 1622.97 999.13 1624.72 999.542C1624.83 1000.06 1624.93 1000.47 1625.03 1000.88C1623.59 1006.04 1629.98 1008.72 1629.98 1008.72C1624.62 1018.93 1639.36 1023.77 1643.28 1022.64C1643.69 1022.53 1644.1 1022.33 1644.41 1022.12C1648.02 1025.52 1653.58 1026.14 1653.58 1026.14C1652.55 1034.7 1659.46 1035.11 1659.46 1035.11C1656.47 1041.09 1663.89 1044.19 1663.89 1044.19C1658.53 1054.39 1673.27 1059.24 1677.18 1058.11C1681.1 1056.97 1682.03 1050.79 1682.03 1050.79C1685.84 1051.09 1695.94 1048.83 1698.42 1040.89C1699.55 1037.18 1698.83 1033.67 1697.8 1031.09C1700.99 1030.68 1705.53 1029.24 1708.62 1026.14C1709.96 1029.86 1714.39 1032.33 1718.41 1032.64C1724.59 1033.05 1725.42 1028.31 1725.42 1028.31C1728.41 1033.77 1732.43 1030.68 1732.43 1030.68C1730.26 1033.88 1731.4 1039.24 1737.17 1040.99C1742.94 1042.74 1745.41 1037.9 1745.41 1037.9C1750.36 1040.58 1755.82 1035.73 1755.82 1035.73C1756.96 1041.61 1766.23 1038.1 1766.23 1038.1C1761.8 1047.18 1767.68 1049.96 1773.55 1049.45C1779.43 1048.93 1779.74 1043.16 1779.74 1043.16C1785.71 1042.23 1784.58 1038.21 1784.58 1038.21C1793.86 1039.75 1800.55 1035.84 1804.16 1032.95C1804.57 1033.36 1805.09 1033.77 1805.71 1034.08C1809.42 1035.84 1824.77 1033.05 1820.86 1022.12C1820.86 1022.12 1828.69 1020.06 1826.53 1013.77C1826.53 1013.77 1833.54 1014.39 1833.64 1005.73C1833.64 1005.73 1836.42 1005.83 1839.51 1004.9C1841.99 1005.93 1844.87 1006.55 1848.27 1006.45C1848.27 1006.45 1846.83 1009.96 1852.09 1011.5C1852.09 1011.5 1851.57 1016.76 1856.83 1018C1862.08 1019.24 1867.75 1017.38 1864.87 1008.72C1864.87 1008.72 1872.8 1013.05 1874.56 1007.89C1874.56 1007.89 1878.78 1013.05 1883.63 1011.19C1883.63 1011.19 1885.27 1015.94 1890.63 1015.11C1896.1 1014.29 1897.75 1009.54 1896.2 1006.45C1896.2 1006.45 1899.5 1009.75 1902.9 1005.21C1902.9 1005.21 1903 1009.65 1908.67 1009.96C1914.34 1010.37 1921.66 1006.04 1918.15 998.821C1918.15 998.821 1923.51 1001.5 1925.26 997.171C1925.26 997.171 1924.54 1002.84 1930.73 1007.17C1930.73 1007.17 1924.34 1012.43 1925.57 1019.96C1926.81 1027.48 1935.57 1030.68 1939.08 1030.99C1939.08 1030.99 1939.08 1036.66 1942.48 1038.21C1943.71 1038.72 1946.29 1038.83 1948.87 1038.21V930.875H1948.97ZM1721.61 1004.7H1721.19C1721.09 1003.87 1720.88 1003.05 1720.58 1002.02C1720.58 1002.02 1721.09 1002.33 1721.92 1002.64C1721.61 1003.36 1721.61 1004.08 1721.61 1004.7Z" fill="#A6F2FF"/>
<path d="M1719.03 990.675C1719.03 990.572 1719.13 990.469 1719.13 990.366H1719.03C1718 978.715 1707.8 982.839 1707.8 982.839C1707.8 975.828 1701.92 976.962 1701.92 976.962C1704.7 964.28 1689.96 962.631 1689.96 962.631C1690.79 955.826 1686.56 954.176 1684.81 953.764C1684.71 953.248 1684.61 952.836 1684.5 952.423C1685.95 947.268 1679.56 944.587 1679.56 944.587C1684.91 934.38 1670.18 929.534 1666.26 930.668C1665.85 930.771 1665.44 930.978 1665.13 931.184C1661.52 927.781 1655.95 927.163 1655.95 927.163C1656.98 918.605 1650.08 918.193 1650.08 918.193C1653.07 912.213 1645.65 909.119 1645.65 909.119C1651.01 898.912 1636.27 894.066 1632.35 895.2C1628.43 896.334 1627.51 902.521 1627.51 902.521C1623.69 902.211 1613.59 904.48 1611.12 912.419C1609.99 916.131 1610.71 919.636 1611.74 922.214C1608.54 922.626 1604.01 924.07 1600.92 927.163C1599.58 923.451 1595.14 920.976 1591.12 920.667C1584.94 920.255 1584.12 924.998 1584.12 924.998C1581.13 919.533 1577.11 922.626 1577.11 922.626C1579.27 919.43 1578.14 914.068 1572.37 912.316C1566.59 910.563 1564.12 915.409 1564.12 915.409C1559.07 912.728 1553.71 917.574 1553.71 917.574C1552.58 911.697 1543.3 915.203 1543.3 915.203C1547.73 906.129 1541.86 903.345 1535.98 903.861C1530.11 904.377 1529.8 910.15 1529.8 910.15C1523.82 911.078 1524.96 915.099 1524.96 915.099C1515.68 913.553 1508.98 917.471 1505.37 920.358C1504.96 919.945 1504.45 919.533 1503.83 919.224C1500.12 917.471 1484.76 920.255 1488.68 931.184C1488.68 931.184 1480.84 933.246 1483.01 939.535C1483.01 939.535 1476 938.917 1475.9 947.577C1475.9 947.577 1473.11 947.474 1470.02 948.402C1467.55 947.371 1464.66 946.753 1461.26 946.856C1461.26 946.856 1462.7 943.35 1457.45 941.804C1457.45 941.804 1457.96 936.545 1452.71 935.308C1447.45 934.071 1441.78 935.927 1444.67 944.587C1444.67 944.587 1436.73 940.257 1434.98 945.412C1434.98 945.412 1430.75 940.257 1425.91 942.113C1425.91 942.113 1424.26 937.37 1418.9 938.298C1413.44 939.123 1411.79 943.866 1413.34 946.959C1413.34 946.959 1410.04 943.659 1406.64 948.196C1406.64 948.196 1406.53 943.763 1400.86 943.453C1395.2 943.041 1387.88 947.371 1391.38 954.589C1391.38 954.589 1386.02 951.908 1384.27 956.238C1384.27 956.238 1384.99 950.568 1378.71 946.237C1378.71 946.237 1385.1 940.979 1383.86 933.452C1382.62 925.925 1373.86 922.729 1370.36 922.42C1370.36 922.42 1370.36 916.749 1366.96 915.203C1363.56 913.656 1349.64 916.13 1353.15 926.029C1353.15 926.029 1346.03 927.884 1347.99 933.658C1347.99 933.658 1341.6 933.143 1341.5 940.979C1341.5 940.979 1328 940.566 1328.92 952.32C1328.92 952.32 1323.77 950.568 1322.95 956.857C1322.95 956.857 1314.39 951.805 1311.92 962.115H1311.82C1311.82 962.218 1311.82 962.321 1311.82 962.528C1311.82 962.631 1311.71 962.734 1311.71 962.837H1311.82C1312.85 974.488 1323.05 970.364 1323.05 970.364C1323.05 977.375 1328.92 976.241 1328.92 976.241C1326.14 988.923 1340.88 990.572 1340.88 990.572C1340.06 997.377 1344.28 999.027 1346.03 999.439C1346.14 999.955 1346.24 1000.37 1346.34 1000.78C1344.9 1005.93 1351.29 1008.62 1351.29 1008.62C1345.93 1018.82 1360.67 1023.67 1364.59 1022.53C1365 1022.43 1365.41 1022.23 1365.72 1022.02C1369.33 1025.42 1374.89 1026.04 1374.89 1026.04C1373.86 1034.6 1380.77 1035.01 1380.77 1035.01C1377.78 1040.99 1385.2 1044.08 1385.2 1044.08C1379.84 1054.29 1394.58 1059.14 1398.49 1058C1402.41 1056.87 1403.34 1050.68 1403.34 1050.68C1407.15 1050.99 1417.25 1048.72 1419.73 1040.78C1420.86 1037.07 1420.14 1033.57 1419.11 1030.99C1422.3 1030.58 1426.84 1029.13 1429.93 1026.04C1431.27 1029.75 1435.7 1032.23 1439.72 1032.54C1445.9 1032.95 1446.73 1028.21 1446.73 1028.21C1449.72 1033.67 1453.74 1030.58 1453.74 1030.58C1451.57 1033.77 1452.71 1039.13 1458.48 1040.89C1464.25 1042.64 1466.72 1037.79 1466.72 1037.79C1471.67 1040.47 1477.13 1035.63 1477.13 1035.63C1478.27 1041.51 1487.54 1038 1487.54 1038C1483.11 1047.07 1488.99 1049.86 1494.86 1049.34C1500.74 1048.83 1501.04 1043.05 1501.04 1043.05C1507.02 1042.12 1505.89 1038.1 1505.89 1038.1C1515.16 1039.65 1521.86 1035.73 1525.47 1032.85C1525.88 1033.26 1526.4 1033.67 1527.02 1033.98C1530.73 1035.73 1546.08 1032.95 1542.17 1022.02C1542.17 1022.02 1550 1019.96 1547.84 1013.67C1547.84 1013.67 1554.85 1014.29 1554.95 1005.63C1554.95 1005.63 1557.73 1005.73 1560.82 1004.8C1563.3 1005.83 1566.18 1006.45 1569.58 1006.35C1569.58 1006.35 1568.14 1009.85 1573.4 1011.4C1573.4 1011.4 1572.88 1016.66 1578.14 1017.9C1583.39 1019.13 1589.06 1017.28 1586.18 1008.62C1586.18 1008.62 1594.11 1012.95 1595.87 1007.79C1595.87 1007.79 1600.09 1012.95 1604.94 1011.09C1604.94 1011.09 1606.58 1015.83 1611.94 1015.01C1617.41 1014.18 1619.06 1009.44 1617.51 1006.35C1617.51 1006.35 1620.81 1009.65 1624.21 1005.11C1624.21 1005.11 1624.31 1009.54 1629.98 1009.85C1635.65 1010.27 1642.97 1005.93 1639.46 998.717C1639.46 998.717 1644.82 1001.4 1646.57 997.068C1646.57 997.068 1645.85 1002.74 1652.04 1007.07C1652.04 1007.07 1645.65 1012.33 1646.88 1019.85C1648.12 1027.38 1656.88 1030.58 1660.38 1030.89C1660.38 1030.89 1660.38 1036.56 1663.79 1038.1C1667.19 1039.65 1681.1 1037.18 1677.6 1027.28C1677.6 1027.28 1684.71 1025.42 1682.75 1019.65C1682.75 1019.65 1689.14 1020.16 1689.24 1012.33C1689.24 1012.33 1702.75 1012.74 1701.82 1000.99C1701.82 1000.99 1706.97 1002.74 1707.8 996.449C1707.8 996.449 1716.35 1001.5 1718.82 991.191H1718.93C1719.03 990.985 1719.03 990.882 1719.03 990.675ZM1442.92 1004.7H1442.5C1442.4 1003.87 1442.19 1003.05 1441.89 1002.02C1441.89 1002.02 1442.4 1002.33 1443.23 1002.64C1442.92 1003.36 1442.92 1004.08 1442.92 1004.7Z" fill="#A6F2FF"/>
<path d="M1009.52 1018.1C1009.52 1018 1009.63 1017.9 1009.63 1017.69H1009.52C1009.32 1004.8 997.877 1008.51 997.877 1008.51C998.495 1000.78 992.002 1001.6 992.002 1001.6C996.125 987.892 980.046 984.902 980.046 984.902C981.592 977.478 977.058 975.313 975.099 974.797C975.099 974.282 974.996 973.766 974.893 973.251C976.954 967.786 970.152 964.281 970.152 964.281C976.954 953.455 961.082 946.959 956.65 947.887C956.238 947.99 955.723 948.196 955.414 948.402C951.703 944.381 945.622 943.247 945.622 943.247C947.581 933.968 939.851 932.937 939.851 932.937C943.664 926.647 935.728 922.626 935.728 922.626C942.53 911.8 926.658 905.305 922.226 906.233C917.795 907.16 916.249 913.862 916.249 913.862C912.023 913.244 900.892 914.79 897.491 923.348C895.945 927.369 896.46 931.184 897.388 934.174C893.78 934.38 888.73 935.514 885.02 938.607C883.886 934.38 879.145 931.287 874.816 930.668C868.014 929.637 866.777 934.793 866.777 934.793C863.994 928.503 859.253 931.596 859.253 931.596C861.83 928.194 861.211 922.317 854.924 919.842C848.74 917.471 845.545 922.626 845.545 922.626C840.289 919.224 834.002 924.173 834.002 924.173C833.281 917.574 822.768 920.667 822.768 920.667C828.436 911.078 822.149 907.47 815.656 907.573C809.163 907.676 808.339 913.965 808.339 913.965C801.742 914.481 802.567 919.018 802.567 919.018C792.569 916.44 784.839 920.255 780.717 923.142C780.305 922.626 779.789 922.111 779.171 921.801C775.151 919.636 758.145 921.389 761.547 933.658C761.547 933.658 752.786 935.205 754.641 942.319C754.641 942.319 747.014 941.082 746.19 950.568C746.19 950.568 743.098 950.258 739.697 950.98C737.12 949.64 733.925 948.712 730.215 948.609C730.215 948.609 732.173 944.897 726.504 942.732C726.504 942.732 727.432 936.958 721.866 935.205C716.198 933.452 709.808 934.999 712.281 944.794C712.281 944.794 703.933 939.329 701.562 944.897C701.562 944.897 697.337 938.917 691.874 940.566C691.874 940.566 690.534 935.308 684.453 935.721C678.475 936.236 676.208 941.185 677.651 944.794C677.651 944.794 674.25 940.876 670.23 945.619C670.23 945.619 670.436 940.773 664.252 939.845C658.068 938.917 649.72 943.041 652.812 951.289C652.812 951.289 647.143 947.887 644.876 952.527C644.876 952.527 646.113 946.443 639.62 941.082C639.62 941.082 647.04 935.824 646.319 927.472C645.597 919.121 636.218 914.79 632.405 914.275C632.405 914.275 632.92 907.985 629.21 906.026C625.603 904.067 610.143 905.614 613.132 916.749C613.132 916.749 605.196 918.193 606.845 924.688C606.845 924.688 599.939 923.554 599.115 932.215C599.115 932.215 584.273 930.565 584.273 943.66C584.273 943.66 578.811 941.288 577.265 948.196C577.265 948.196 568.298 941.907 564.691 953.042H564.588C564.588 953.145 564.588 953.351 564.588 953.455C564.588 953.558 564.484 953.661 564.484 953.867H564.588C564.794 966.755 576.234 963.043 576.234 963.043C575.616 970.776 582.109 969.951 582.109 969.951C577.986 983.664 594.064 986.654 594.064 986.654C592.518 994.078 597.053 996.243 599.012 996.759C599.012 997.274 599.115 997.79 599.218 998.305C597.156 1003.77 603.959 1007.28 603.959 1007.28C597.156 1018.1 613.029 1024.6 617.46 1023.67C617.873 1023.57 618.388 1023.36 618.697 1023.26C622.408 1027.28 628.488 1028.41 628.488 1028.41C626.53 1037.69 634.26 1038.72 634.26 1038.72C630.447 1045.01 638.383 1049.03 638.383 1049.03C631.58 1059.86 647.453 1066.35 651.884 1065.43C656.316 1064.5 657.862 1057.8 657.862 1057.8C662.088 1058.42 673.219 1056.87 676.62 1048.31C678.166 1044.29 677.651 1040.48 676.723 1037.49C680.331 1037.28 685.381 1036.14 689.091 1033.05C690.225 1037.28 694.966 1040.37 699.295 1040.99C706.097 1042.02 707.334 1036.87 707.334 1036.87C710.117 1043.16 714.858 1040.17 714.858 1040.17C712.281 1043.47 713.003 1049.45 719.187 1051.92C725.37 1054.29 728.566 1049.14 728.566 1049.14C733.822 1052.54 740.109 1047.59 740.109 1047.59C740.83 1054.19 751.343 1051.09 751.343 1051.09C745.674 1060.68 751.961 1064.29 758.455 1064.19C764.948 1064.09 765.772 1057.8 765.772 1057.8C772.369 1057.28 771.544 1052.74 771.544 1052.74C781.541 1055.22 789.271 1051.51 793.394 1048.62C793.806 1049.14 794.322 1049.65 794.94 1049.96C798.96 1052.13 815.965 1050.37 812.564 1038.1C812.564 1038.1 821.325 1036.56 819.47 1029.44C819.47 1029.44 827.097 1030.68 827.921 1021.19C827.921 1021.19 831.013 1021.5 834.414 1020.78C836.991 1022.12 840.186 1023.05 843.896 1023.15C843.896 1023.15 841.938 1026.87 847.607 1029.03C847.607 1029.03 846.679 1034.8 852.245 1036.56C857.913 1038.31 864.303 1036.76 861.83 1026.97C861.83 1026.97 870.178 1032.43 872.549 1026.87C872.549 1026.87 876.774 1032.85 882.237 1031.2C882.237 1031.2 883.577 1036.45 889.658 1036.04C895.635 1035.53 897.903 1030.58 896.46 1026.97C896.46 1026.97 899.861 1030.89 903.881 1026.14C903.881 1026.14 903.675 1030.99 909.859 1031.92C916.043 1032.85 924.391 1028.72 921.299 1020.47C921.299 1020.47 926.967 1023.88 929.235 1019.24C929.235 1019.24 927.998 1025.32 934.491 1030.68C934.491 1030.68 927.071 1035.94 927.792 1044.29C928.513 1052.64 937.892 1056.97 941.706 1057.49C941.706 1057.49 941.191 1063.78 944.901 1065.74C948.508 1067.69 963.968 1066.15 960.979 1055.01C960.979 1055.01 968.915 1053.57 967.266 1047.07C967.266 1047.07 974.172 1048.21 974.996 1039.55C974.996 1039.55 989.838 1041.2 989.838 1028.1C989.838 1028.1 995.3 1030.47 996.846 1023.57C996.846 1023.57 1005.81 1029.86 1009.42 1018.72H1009.52C1009.52 1018.41 1009.52 1018.2 1009.52 1018.1ZM705.17 1010.16L704.654 1010.06C704.551 1009.13 704.448 1008.2 704.139 1007.07C704.139 1007.07 704.654 1007.38 705.479 1007.89C705.273 1008.72 705.17 1009.44 705.17 1010.16Z" fill="#A6F2FF"/>
<path d="M260.852 1017.69H260.749C260.543 1004.8 249.103 1008.51 249.103 1008.51C249.721 1000.78 243.228 1001.6 243.228 1001.6C247.35 987.891 231.272 984.901 231.272 984.901C232.818 977.478 228.283 975.313 226.325 974.797C226.325 974.282 226.222 973.766 226.119 973.251C228.18 967.786 221.378 964.28 221.378 964.28C228.18 953.454 212.308 946.959 207.876 947.887C207.464 947.99 206.949 948.196 206.639 948.402C202.929 944.381 196.848 943.247 196.848 943.247C198.806 933.968 191.076 932.937 191.076 932.937C194.89 926.647 186.954 922.626 186.954 922.626C193.756 911.8 177.884 905.304 173.452 906.232C169.02 907.16 167.474 913.862 167.474 913.862C163.249 913.244 152.118 914.79 148.716 923.348C147.17 927.369 147.686 931.184 148.613 934.174C145.006 934.38 139.956 935.514 136.245 938.607C135.112 934.38 130.371 931.287 126.042 930.668C119.24 929.637 118.003 934.792 118.003 934.792C115.22 928.503 110.479 931.596 110.479 931.596C113.056 928.194 112.437 922.317 106.15 919.842C99.9662 917.471 96.7711 922.626 96.7711 922.626C91.5148 919.224 85.2277 924.173 85.2277 924.173C84.5063 917.574 73.9936 920.667 73.9936 920.667C79.6622 911.078 73.3752 907.47 66.882 907.573C60.3888 907.676 59.5643 913.965 59.5643 913.965C52.9681 914.481 53.7926 919.017 53.7926 919.017C43.7952 916.44 36.0653 920.255 31.9426 923.142C31.5304 922.626 31.015 922.111 30.3966 921.801C26.3771 919.636 9.3712 921.389 12.7724 933.658C12.7724 933.658 4.01176 935.205 5.86695 942.319C5.86695 942.319 -1.75993 941.082 -2.58446 950.568C-2.58446 950.568 -5.67644 950.258 -9.07761 950.98C-11.6543 949.64 -14.8493 948.712 -18.5597 948.608C-18.5597 948.608 -16.6014 944.897 -22.2701 942.731C-22.2701 942.731 -21.3425 936.958 -26.908 935.205C-27.9387 934.896 -28.9693 934.689 -30 934.586V1051.51C-29.7939 1051.61 -29.5877 1051.71 -29.3816 1051.82C-23.1976 1054.19 -20.0026 1049.03 -20.0026 1049.03C-14.7462 1052.44 -8.45922 1047.49 -8.45922 1047.49C-7.73775 1054.08 2.77497 1050.99 2.77497 1050.99C-2.89365 1060.58 3.39337 1064.19 9.88652 1064.09C16.3797 1063.98 17.2042 1057.69 17.2042 1057.69C23.8004 1057.18 22.9759 1052.64 22.9759 1052.64C32.9733 1055.12 40.7032 1051.4 44.8259 1048.52C45.2381 1049.03 45.7535 1049.55 46.3719 1049.86C50.3914 1052.02 67.3973 1050.27 63.9961 1038C63.9961 1038 72.7568 1036.45 70.9016 1029.34C70.9016 1029.34 78.5285 1030.58 79.353 1021.09C79.353 1021.09 82.445 1021.4 85.8461 1020.68C88.4228 1022.02 91.6178 1022.95 95.3282 1023.05C95.3282 1023.05 93.3699 1026.76 99.0386 1028.93C99.0386 1028.93 98.111 1034.7 103.677 1036.45C109.345 1038.21 115.735 1036.66 113.262 1026.87C113.262 1026.87 121.61 1032.33 123.981 1026.76C123.981 1026.76 128.206 1032.74 133.669 1031.09C133.669 1031.09 135.009 1036.35 141.089 1035.94C147.067 1035.42 149.335 1030.47 147.892 1026.87C147.892 1026.87 151.293 1030.78 155.313 1026.04C155.313 1026.04 155.106 1030.89 161.29 1031.81C167.474 1032.74 175.823 1028.62 172.731 1020.37C172.731 1020.37 178.399 1023.77 180.667 1019.13C180.667 1019.13 179.43 1025.22 185.923 1030.58C185.923 1030.58 178.502 1035.84 179.224 1044.19C179.945 1052.54 189.324 1056.87 193.138 1057.38C193.138 1057.38 192.622 1063.67 196.333 1065.63C199.94 1067.59 215.4 1066.04 212.411 1054.91C212.411 1054.91 220.347 1053.47 218.698 1046.97C218.698 1046.97 225.604 1048.1 226.428 1039.44C226.428 1039.44 241.27 1041.09 241.27 1028C241.27 1028 246.732 1030.37 248.278 1023.46C248.278 1023.46 257.245 1029.75 260.852 1018.62H260.955C260.955 1018.51 260.955 1018.31 260.955 1018.2C260.749 1018 260.749 1017.89 260.852 1017.69Z" fill="#A6F2FF"/>
<path d="M668.375 1018.1C668.375 1018 668.478 1017.9 668.478 1017.69H668.375C668.169 1004.8 656.728 1008.51 656.728 1008.51C657.347 1000.78 650.854 1001.6 650.854 1001.6C654.976 987.892 638.898 984.902 638.898 984.902C640.444 977.478 635.909 975.313 633.951 974.797C633.951 974.282 633.848 973.766 633.745 973.251C635.806 967.786 629.004 964.281 629.004 964.281C635.806 953.455 619.934 946.959 615.502 947.887C615.09 947.99 614.574 948.196 614.265 948.402C610.555 944.381 604.474 943.247 604.474 943.247C606.432 933.968 598.702 932.937 598.702 932.937C602.516 926.647 594.58 922.626 594.58 922.626C601.382 911.8 585.51 905.305 581.078 906.233C576.646 907.16 575.1 913.862 575.1 913.862C570.874 913.244 559.743 914.79 556.342 923.348C554.796 927.369 555.311 931.184 556.239 934.174C552.632 934.38 547.582 935.514 543.871 938.607C542.737 934.38 537.996 931.287 533.668 930.668C526.865 929.637 525.629 934.793 525.629 934.793C522.846 928.503 518.105 931.596 518.105 931.596C520.681 928.194 520.063 922.317 513.776 919.842C507.592 917.471 504.397 922.626 504.397 922.626C499.141 919.224 492.854 924.173 492.854 924.173C492.132 917.574 481.619 920.667 481.619 920.667C487.288 911.078 481.001 907.47 474.508 907.573C468.015 907.676 467.19 913.965 467.19 913.965C460.594 914.481 461.418 919.018 461.418 919.018C451.421 916.44 443.691 920.255 439.568 923.142C439.156 922.626 438.641 922.111 438.022 921.801C434.003 919.636 416.997 921.389 420.398 933.658C420.398 933.658 411.638 935.205 413.493 942.319C413.493 942.319 405.866 941.082 405.041 950.568C405.041 950.568 401.949 950.258 398.548 950.98C395.972 949.64 392.776 948.712 389.066 948.609C389.066 948.609 391.024 944.897 385.356 942.732C385.356 942.732 386.283 936.958 380.718 935.205C375.049 933.452 368.659 934.999 371.133 944.794C371.133 944.794 362.784 939.329 360.414 944.897C360.414 944.897 356.188 938.917 350.726 940.566C350.726 940.566 349.386 935.308 343.305 935.721C337.327 936.236 335.06 941.185 336.502 944.794C336.502 944.794 333.101 940.876 329.082 945.619C329.082 945.619 329.288 940.773 323.104 939.845C316.92 938.917 308.572 943.041 311.664 951.289C311.664 951.289 305.995 947.887 303.727 952.527C303.727 952.527 304.964 946.443 298.471 941.082C298.471 941.082 305.892 935.824 305.17 927.472C304.449 919.121 295.07 914.79 291.257 914.275C291.257 914.275 291.772 907.985 288.061 906.026C284.454 904.067 268.994 905.614 271.983 916.749C271.983 916.749 264.047 918.193 265.696 924.688C265.696 924.688 258.791 923.554 257.966 932.215C257.966 932.215 243.125 930.565 243.125 943.66C243.125 943.66 237.662 941.288 236.116 948.196C236.116 948.196 227.149 941.907 223.542 953.042H223.439C223.439 953.145 223.439 953.351 223.439 953.455C223.439 953.558 223.336 953.661 223.336 953.867H223.439C223.645 966.755 235.086 963.043 235.086 963.043C234.467 970.776 240.96 969.951 240.96 969.951C236.838 983.664 252.916 986.654 252.916 986.654C251.37 994.078 255.905 996.243 257.863 996.759C257.863 997.274 257.966 997.79 258.069 998.305C256.008 1003.77 262.81 1007.28 262.81 1007.28C256.008 1018.1 271.88 1024.6 276.312 1023.67C276.724 1023.57 277.24 1023.36 277.549 1023.26C281.259 1027.28 287.34 1028.41 287.34 1028.41C285.382 1037.69 293.112 1038.72 293.112 1038.72C289.298 1045.01 297.234 1049.03 297.234 1049.03C290.432 1059.86 306.304 1066.35 310.736 1065.43C315.168 1064.5 316.714 1057.8 316.714 1057.8C320.94 1058.42 332.071 1056.87 335.472 1048.31C337.018 1044.29 336.502 1040.48 335.575 1037.49C339.182 1037.28 344.232 1036.14 347.943 1033.05C349.077 1037.28 353.818 1040.37 358.146 1040.99C364.949 1042.02 366.185 1036.87 366.185 1036.87C368.968 1043.16 373.709 1040.17 373.709 1040.17C371.133 1043.47 371.854 1049.45 378.038 1051.92C384.222 1054.29 387.417 1049.14 387.417 1049.14C392.673 1052.54 398.96 1047.59 398.96 1047.59C399.682 1054.19 410.195 1051.09 410.195 1051.09C404.526 1060.68 410.813 1064.29 417.306 1064.19C423.799 1064.09 424.624 1057.8 424.624 1057.8C431.22 1057.28 430.396 1052.74 430.396 1052.74C440.393 1055.22 448.123 1051.51 452.246 1048.62C452.658 1049.14 453.173 1049.65 453.792 1049.96C457.811 1052.13 474.817 1050.37 471.416 1038.1C471.416 1038.1 480.176 1036.56 478.321 1029.44C478.321 1029.44 485.948 1030.68 486.773 1021.19C486.773 1021.19 489.865 1021.5 493.266 1020.78C495.842 1022.12 499.038 1023.05 502.748 1023.15C502.748 1023.15 500.79 1026.87 506.458 1029.03C506.458 1029.03 505.531 1034.8 511.096 1036.56C516.765 1038.31 523.155 1036.76 520.681 1026.97C520.681 1026.97 529.03 1032.43 531.4 1026.87C531.4 1026.87 535.626 1032.85 541.088 1031.2C541.088 1031.2 542.428 1036.45 548.509 1036.04C554.487 1035.53 556.754 1030.58 555.312 1026.97C555.312 1026.97 558.713 1030.89 562.732 1026.14C562.732 1026.14 562.526 1030.99 568.71 1031.92C574.894 1032.85 583.242 1028.72 580.15 1020.47C580.15 1020.47 585.819 1023.88 588.086 1019.24C588.086 1019.24 586.85 1025.32 593.343 1030.68C593.343 1030.68 585.922 1035.94 586.644 1044.29C587.365 1052.64 596.744 1056.97 600.557 1057.49C600.557 1057.49 600.042 1063.78 603.753 1065.74C607.36 1067.69 622.82 1066.15 619.831 1055.01C619.831 1055.01 627.767 1053.57 626.118 1047.07C626.118 1047.07 633.023 1048.21 633.848 1039.55C633.848 1039.55 648.689 1041.2 648.689 1028.1C648.689 1028.1 654.152 1030.47 655.698 1023.57C655.698 1023.57 664.664 1029.86 668.272 1018.72H668.375C668.375 1018.41 668.375 1018.2 668.375 1018.1ZM364.021 1010.16L363.506 1010.06C363.403 1009.13 363.3 1008.2 362.99 1007.07C362.99 1007.07 363.506 1007.38 364.33 1007.89C364.227 1008.72 364.124 1009.44 364.021 1010.16Z" fill="#A6F2FF"/>
<path d="M945.519 953.557C939.438 909.016 942.53 744.77 939.026 643.109C935.625 541.447 926.967 391.121 926.967 329.979C926.967 268.735 931.296 0.0438232 931.296 0.0438232H921.402C921.402 0.0438232 918.825 203.263 917.485 243.577C916.146 283.891 914.496 407.824 917.485 459.273C920.474 510.825 927.792 740.44 926.143 858.804C924.391 977.065 933.461 1113.58 933.461 1113.58H960.67C960.67 1113.58 957.269 1087.08 955.517 1073.26C953.765 1059.24 951.6 997.996 945.519 953.557Z" fill="#A6F2FF"/>
<path d="M820.191 850.762C818.954 825.708 813.904 423.908 812.667 398.853C811.431 373.799 811.843 268.116 812.667 232.03C813.492 195.943 815.141 183.364 814.729 163.877C814.316 144.391 815.553 -0.0592651 815.553 -0.0592651H798.753C798.753 -0.0592651 793.291 405.143 793.291 437.415C793.291 469.687 793.703 740.852 793.291 771.371C792.879 801.993 789.89 911.8 790.302 920.152C790.714 928.503 786.901 1021.61 786.901 1021.61L829.364 996.552C828.952 988.201 825.551 954.795 823.902 929.844C822.253 904.892 821.428 875.817 820.191 850.762Z" fill="#A6F2FF"/>
<path d="M443.691 850.762C442.97 825.708 440.187 423.908 439.466 398.853C438.744 373.799 438.95 268.116 439.466 232.03C439.981 195.84 440.908 183.364 440.599 163.877C440.393 144.391 441.115 -0.0592651 441.115 -0.0592651H431.736C431.736 -0.0592651 428.747 405.143 428.747 437.415C428.747 469.687 428.953 740.852 428.747 771.371C428.541 801.993 426.891 911.8 427.098 920.152C427.304 928.503 425.242 1021.61 425.242 1021.61L448.845 996.552C448.638 988.201 446.783 954.795 445.856 929.844C444.825 904.995 444.413 875.817 443.691 850.762Z" fill="#A6F2FF"/>
<path d="M733.925 836.946C733.203 812.304 730.421 417.103 729.699 392.461C728.978 367.819 729.184 263.889 729.699 228.318C730.214 192.747 731.142 180.477 730.833 161.3C730.627 142.122 731.348 0.0438232 731.348 0.0438232H721.969C721.969 0.0438232 718.98 398.647 718.98 430.403C718.98 462.16 719.186 728.892 718.98 758.896C718.774 789.002 717.125 897.056 717.331 905.201C717.537 913.45 715.476 1005.01 715.476 1005.01H739.078C738.872 996.758 737.017 939.329 736.089 914.79C735.059 890.251 734.646 861.485 733.925 836.946Z" fill="#A6F2FF"/>
<path d="M503.675 437.518C495.43 399.678 511.302 1.28113 511.302 1.28113H501.099C501.099 1.28113 489.143 293.274 489.555 385.037C489.968 476.801 524.186 775.702 522.846 843.854C521.609 912.006 505.118 988.819 500.996 995.418L546.242 1016.25C546.242 1016.25 546.345 924.482 549.746 889.736C553.147 854.989 544.902 788.28 537.584 746.523C530.163 704.766 511.921 475.357 503.675 437.518Z" fill="#A6F2FF"/>
<path d="M982.726 437.518C978.603 399.678 986.54 1.28113 986.54 1.28113H981.386C981.386 1.28113 975.408 293.274 975.615 385.037C975.821 476.801 992.93 775.702 992.311 843.854C991.693 912.006 983.448 988.819 981.386 995.418L1004.06 1016.25C1004.06 1016.25 1004.06 924.482 1005.81 889.736C1007.57 854.989 1003.44 788.28 999.732 746.523C996.022 704.766 986.849 475.357 982.726 437.518Z" fill="#A6F2FF"/>
<path d="M637.661 438.755C636.837 364.107 635.085 177.178 636.94 126.347C639.31 62.4223 637.764 0.0438232 637.764 0.0438232H628.385C628.385 0.0438232 628.282 185.323 628.798 319.875C617.357 211.1 590.869 1.28108 590.869 1.28108H585.819C585.819 1.28108 625.087 348.229 629.519 423.702C629.622 434.734 629.828 443.395 630.034 449.066C631.374 511.753 641.578 706.209 641.784 744.77C641.99 786.94 644.154 854.061 648.999 887.777C653.843 921.595 662.397 1012.12 662.397 1012.12H694.141C691.462 1006.24 664.974 905.717 658.068 838.596C652.503 786.012 644.773 571.863 637.661 438.755Z" fill="#A6F2FF"/>
<path d="M1917.74 850.762C1916.5 825.708 1911.45 423.908 1910.22 398.853C1908.98 373.799 1909.39 268.116 1910.22 232.03C1911.04 195.943 1912.69 183.364 1912.28 163.877C1911.87 144.391 1913.1 -0.0592651 1913.1 -0.0592651H1896.3C1896.3 -0.0592651 1890.84 405.143 1890.84 437.415C1890.84 469.687 1891.25 740.852 1890.84 771.371C1890.43 801.993 1887.44 911.8 1887.85 920.152C1888.26 928.503 1884.45 1021.61 1884.45 1021.61L1926.91 996.552C1926.5 988.201 1923.1 954.795 1921.45 929.844C1919.8 904.995 1918.98 875.817 1917.74 850.762Z" fill="#A6F2FF"/>
<path d="M1541.14 850.762C1540.42 825.708 1537.63 423.908 1536.91 398.853C1536.19 373.799 1536.4 268.116 1536.91 232.03C1537.43 195.84 1538.35 183.364 1538.05 163.877C1537.84 144.391 1538.56 -0.0592651 1538.56 -0.0592651H1529.18C1529.18 -0.0592651 1526.19 405.143 1526.19 437.415C1526.19 469.687 1526.4 740.852 1526.19 771.371C1525.99 801.993 1524.34 911.8 1524.54 920.152C1524.75 928.503 1522.69 1021.61 1522.69 1021.61L1546.29 996.552C1546.08 988.201 1544.23 954.795 1543.3 929.844C1542.37 904.995 1541.86 875.817 1541.14 850.762Z" fill="#A6F2FF"/>
<path d="M1831.47 836.946C1830.75 812.304 1827.97 417.103 1827.25 392.461C1826.53 367.819 1826.73 263.889 1827.25 228.318C1827.76 192.747 1828.69 180.477 1828.38 161.3C1828.18 142.122 1828.9 0.0438232 1828.9 0.0438232H1819.52C1819.52 0.0438232 1816.53 398.647 1816.53 430.403C1816.53 462.16 1816.74 728.892 1816.53 758.896C1816.32 789.002 1814.67 897.056 1814.88 905.201C1815.09 913.45 1813.03 1005.01 1813.03 1005.01H1836.63C1836.42 996.758 1834.57 939.329 1833.64 914.79C1832.61 890.251 1832.2 861.485 1831.47 836.946Z" fill="#A6F2FF"/>
<path d="M1601.22 437.518C1592.98 399.678 1608.85 1.28113 1608.85 1.28113H1598.65C1598.65 1.28113 1586.69 293.274 1587.1 385.037C1587.52 476.801 1621.73 775.702 1620.4 843.854C1619.16 912.006 1602.67 988.819 1598.54 995.418L1643.79 1016.25C1643.79 1016.25 1643.89 924.482 1647.3 889.736C1650.7 854.989 1642.45 788.28 1635.13 746.523C1627.71 704.766 1609.47 475.357 1601.22 437.518Z" fill="#A6F2FF"/>
<path d="M1735.11 438.755C1734.28 364.107 1732.53 177.178 1734.39 126.347C1736.76 62.4223 1735.21 0.0438232 1735.21 0.0438232H1725.83C1725.83 0.0438232 1725.73 185.323 1726.24 319.875C1714.8 211.1 1688.32 1.28108 1688.32 1.28108H1683.27C1683.27 1.28108 1722.53 348.229 1726.97 423.702C1727.07 434.734 1727.27 443.395 1727.48 449.066C1728.82 511.753 1739.02 706.209 1739.23 744.77C1739.44 786.94 1741.6 854.061 1746.44 887.777C1751.29 921.595 1759.84 1012.12 1759.84 1012.12H1791.59C1788.91 1006.24 1762.42 905.717 1755.51 838.596C1750.05 786.012 1742.22 571.863 1735.11 438.755Z" fill="#A6F2FF"/>
<path d="M1160.31 0.0438232H1150.41C1150.41 0.0438232 1154.74 268.632 1154.74 329.979C1154.74 391.224 1146.09 541.551 1142.68 643.109C1139.28 744.667 1142.27 909.016 1136.19 953.557C1130.11 998.099 1128.05 1059.34 1126.3 1073.26C1124.54 1087.18 1121.14 1113.58 1121.14 1113.58H1148.35C1148.35 1113.58 1157.42 977.169 1155.67 858.804C1153.92 740.44 1161.24 510.825 1164.33 459.273C1167.32 407.824 1165.67 283.891 1164.33 243.577C1162.89 203.263 1160.31 0.0438232 1160.31 0.0438232Z" fill="#A6F2FF"/>
<path d="M1291.31 920.358C1291.72 912.006 1288.83 802.2 1288.32 771.578C1287.9 740.955 1288.32 469.893 1288.32 437.621C1288.32 405.349 1282.85 0.146973 1282.85 0.146973H1266.05C1266.05 0.146973 1267.29 144.597 1266.88 164.084C1266.47 183.571 1268.12 196.046 1268.94 232.236C1269.76 268.426 1270.18 374.005 1268.94 399.06C1267.7 424.114 1262.65 825.914 1261.42 850.968C1260.18 876.023 1259.36 905.201 1257.6 930.256C1255.95 955.31 1252.55 988.613 1252.14 996.965L1294.6 1022.02C1294.71 1021.81 1290.89 928.606 1291.31 920.358Z" fill="#A6F2FF"/>
<path d="M1364.38 905.305C1364.59 897.056 1362.94 789.002 1362.73 758.999C1362.52 728.892 1362.73 462.16 1362.73 430.507C1362.73 398.75 1359.74 0.146973 1359.74 0.146973H1350.36C1350.36 0.146973 1351.08 142.225 1350.88 161.403C1350.67 180.58 1351.6 192.85 1352.01 228.421C1352.53 263.992 1352.73 367.922 1352.01 392.564C1351.29 417.206 1348.51 812.407 1347.79 837.049C1347.06 861.691 1346.65 890.354 1345.72 914.997C1344.8 939.639 1342.94 997.068 1342.74 1005.21H1366.34C1366.23 1005.11 1364.07 913.45 1364.38 905.305Z" fill="#A6F2FF"/>
<path d="M1095.17 1.28113C1095.17 1.28113 1103.11 399.678 1098.98 437.518C1094.86 475.357 1085.69 704.766 1081.98 746.523C1078.27 788.28 1074.15 854.989 1075.9 889.736C1077.65 924.482 1077.65 1016.25 1077.65 1016.25L1100.32 995.418C1098.26 988.819 1090.02 912.006 1089.4 843.854C1088.78 775.702 1105.89 476.801 1106.1 385.037C1106.3 293.274 1100.32 1.28113 1100.32 1.28113H1095.17Z" fill="#A6F2FF"/>
<path d="M1490.84 1.28113C1490.84 1.28113 1464.46 211.1 1452.91 319.875C1453.53 185.323 1453.32 0.146973 1453.32 0.146973H1443.95C1443.95 0.146973 1442.4 62.5254 1444.77 126.45C1446.63 177.281 1444.87 364.21 1444.05 438.858C1436.94 571.966 1429.1 786.012 1423.64 838.699C1416.74 905.717 1390.25 1006.24 1387.57 1012.22H1419.31C1419.31 1012.22 1427.87 921.698 1432.71 887.88C1437.66 854.061 1439.72 787.043 1439.93 744.873C1440.13 706.312 1450.34 511.753 1451.68 449.169C1451.88 443.498 1452.09 434.837 1452.19 423.805C1456.62 348.332 1495.89 1.38423 1495.89 1.38423H1490.84V1.28113Z" fill="#A6F2FF"/>
<path d="M207.258 920.358C207.67 912.006 204.784 802.2 204.269 771.578C203.857 740.955 204.269 469.893 204.269 437.621C204.372 405.246 198.91 0.0438232 198.91 0.0438232H182.11C182.11 0.0438232 183.347 144.494 182.934 163.981C182.522 183.467 184.171 195.943 184.996 232.133C185.82 268.323 186.232 373.902 184.996 398.957C183.759 424.011 178.709 825.811 177.472 850.865C176.235 875.92 175.411 905.098 173.658 930.153C172.009 955.207 168.608 988.51 168.196 996.862L210.659 1021.92C210.659 1021.81 206.846 928.606 207.258 920.358Z" fill="#A6F2FF"/>
<path d="M280.332 905.305C280.538 897.056 278.889 789.002 278.683 758.999C278.477 728.892 278.683 462.16 278.683 430.507C278.683 398.75 275.694 0.146973 275.694 0.146973H266.315C266.315 0.146973 267.036 142.225 266.83 161.403C266.624 180.58 267.552 192.85 267.964 228.421C268.479 263.992 268.685 367.922 267.964 392.564C267.242 417.206 264.46 812.407 263.738 837.049C263.017 861.691 262.604 890.354 261.677 914.997C260.749 939.639 258.894 997.068 258.688 1005.21H282.29C282.187 1005.11 280.023 913.45 280.332 905.305Z" fill="#A6F2FF"/>
<path d="M406.794 1.28108C406.794 1.28108 380.409 211.1 368.865 319.875C369.484 185.323 369.381 0.0438232 369.381 0.0438232H360.002C360.002 0.0438232 358.456 62.4223 360.826 126.347C362.681 177.178 360.929 364.107 360.105 438.755C352.993 571.863 345.16 785.909 339.698 838.596C332.792 905.614 306.304 1006.14 303.625 1012.12H335.369C335.369 1012.12 343.923 921.595 348.767 887.777C353.715 853.958 355.776 786.94 355.982 744.77C356.188 706.209 366.392 511.65 367.732 449.066C367.938 443.395 368.144 434.734 368.247 423.702C372.679 348.229 411.947 1.28108 411.947 1.28108H406.794Z" fill="#A6F2FF"/>
<path d="M1060.13 814.675C1059.1 760.442 1062.19 571.348 1060.13 535.158C1058.07 498.968 1055.49 451.128 1059.92 390.914C1064.35 330.701 1058.99 232.03 1057.45 163.877C1055.9 95.7252 1064.35 1.17804 1064.35 1.17804H1041.58H1040.24H1017.46C1017.46 1.17804 1025.91 95.7252 1024.36 163.877C1022.82 232.03 1017.46 330.701 1021.89 390.914C1026.32 451.128 1023.75 498.968 1021.68 535.158C1019.62 571.348 1022.72 760.442 1021.68 814.675C1020.65 868.909 1010.55 1005.11 1010.55 1005.11L1040.34 1021.09V1021.81L1041.06 1021.4L1041.78 1021.81V1021.09L1071.57 1005.11C1071.26 1005.11 1061.16 868.909 1060.13 814.675Z" fill="#A6F2FF"/>
<path d="M-10.5204 437.518C-14.6431 399.678 -6.707 1.28113 -6.707 1.28113H-11.8603C-11.8603 1.28113 -17.8381 293.274 -17.632 385.037C-17.4259 476.801 -0.316914 775.702 -0.93531 843.854C-1.55371 912.006 -9.79898 988.819 -11.8603 995.418L10.8142 1016.25C10.8142 1016.25 10.8142 924.482 12.5663 889.736C14.3184 854.989 10.1958 788.177 6.48544 746.523C2.77506 704.766 -6.29474 475.357 -10.5204 437.518Z" fill="#A6F2FF"/>
<path d="M167.062 0.0438232H157.168C157.168 0.0438232 161.497 268.632 161.497 329.979C161.497 391.224 152.839 541.551 149.438 643.109C146.037 744.667 149.026 909.016 142.945 953.557C136.864 998.099 134.803 1059.34 133.05 1073.26C131.298 1087.18 127.897 1113.58 127.897 1113.58H155.107C155.107 1113.58 164.176 977.169 162.424 858.804C160.672 740.44 167.99 510.825 171.082 459.273C174.071 407.824 172.422 283.891 171.082 243.577C169.639 203.263 167.062 0.0438232 167.062 0.0438232Z" fill="#A6F2FF"/>
<path d="M101.924 1.28113C101.924 1.28113 109.861 399.678 105.738 437.518C101.615 475.357 92.4424 704.766 88.732 746.523C85.0216 788.28 80.899 854.989 82.6511 889.736C84.4032 924.482 84.4032 1016.25 84.4032 1016.25L107.078 995.418C105.016 988.819 96.7711 912.006 96.1527 843.854C95.5344 775.702 112.643 476.801 112.849 385.037C113.056 293.274 107.078 1.28113 107.078 1.28113H101.924Z" fill="#A6F2FF"/>
<path d="M66.882 814.675C65.8514 760.442 68.9433 571.348 66.882 535.158C64.8207 498.968 62.244 451.128 66.6759 390.914C71.1077 330.701 65.7483 232.03 64.2023 163.877C62.6563 95.8283 71.2108 1.28113 71.2108 1.28113H48.3301H46.9903H24.1096C24.1096 1.28113 32.5611 95.8283 31.0151 163.981C29.4691 232.133 24.1096 330.804 28.5415 391.017C32.9733 451.231 30.3967 499.071 28.3353 535.261C26.274 571.451 29.366 760.545 28.3353 814.778C27.3047 869.012 17.2042 1005.21 17.2042 1005.21L46.9903 1021.19V1021.92L47.7117 1021.5L48.3301 1021.81V1021.09L78.1162 1005.11C78.1162 1005.11 67.9127 868.908 66.882 814.675Z" fill="#A6F2FF"/>
<path d="M1372.42 1113.58C1372.42 1113.58 1366.34 1087.08 1363.25 1073.26C1360.15 1059.34 1356.34 998.099 1345.72 953.557C1335.01 909.016 1340.36 744.77 1334.28 643.109C1328.2 541.447 1312.95 391.121 1312.95 329.979C1312.95 268.735 1320.58 0.0438232 1320.58 0.0438232H1303.06C1303.06 0.0438232 1298.52 203.263 1296.15 243.577C1293.88 283.891 1290.79 407.824 1296.15 459.273C1301.51 510.825 1314.5 740.44 1311.4 858.804C1308.31 977.065 1324.39 1113.58 1324.39 1113.58H1372.42Z" fill="#1AC4F6"/>
<path d="M1140.21 996.759C1139.49 988.407 1133.51 955.001 1130.52 930.05C1127.53 904.995 1126.09 875.817 1123.82 850.762C1121.56 825.708 1112.69 423.908 1110.42 398.853C1108.16 373.799 1108.98 268.116 1110.42 232.03C1111.87 195.84 1114.86 183.364 1114.14 163.877C1113.41 144.391 1115.58 -0.0592651 1115.58 -0.0592651H1085.9C1085.9 -0.0592651 1076.21 405.143 1076.21 437.415C1076.21 469.687 1076.93 740.852 1076.21 771.371C1075.49 801.993 1070.23 911.8 1071.05 920.152C1071.78 928.503 1065.08 1021.61 1065.08 1021.61L1140.21 996.759Z" fill="#1AC4F6"/>
<path d="M466.881 996.759C466.469 988.407 463.171 955.001 461.522 930.05C459.873 904.995 459.048 875.817 457.811 850.762C456.574 825.708 451.627 423.908 450.391 398.853C449.154 373.799 449.566 268.116 450.391 232.03C451.215 195.84 452.864 183.364 452.452 163.877C452.04 144.391 453.276 -0.0592651 453.276 -0.0592651H436.786C436.786 -0.0592651 431.426 405.143 431.426 437.415C431.426 469.687 431.839 740.852 431.426 771.371C431.014 801.993 428.128 911.8 428.541 920.152C428.953 928.503 425.242 1021.61 425.242 1021.61L466.881 996.759Z" fill="#1AC4F6"/>
<path d="M980.355 1005.11C979.943 996.862 976.645 939.432 974.996 914.893C973.347 890.251 972.522 861.588 971.286 836.946C970.049 812.304 965.102 417.103 963.865 392.461C962.628 367.819 963.04 263.889 963.865 228.318C964.689 192.747 966.338 180.477 965.926 161.3C965.514 142.122 966.751 0.0438232 966.751 0.0438232H950.26C950.26 0.0438232 944.901 398.647 944.901 430.403C944.901 462.16 945.313 728.892 944.901 758.896C944.488 789.002 941.603 897.056 942.015 905.201C942.427 913.45 938.717 1005.01 938.717 1005.01H980.355V1005.11Z" fill="#1AC4F6"/>
<path d="M1302.95 288.634C1297.7 274.406 1297.8 277.396 1283.58 259.043C1269.25 240.691 1272.34 247.805 1250.9 226.359C1229.47 204.913 1227.4 200.789 1218.23 191.613C1209.06 182.436 1198.86 178.312 1194.73 183.467C1190.61 188.623 1203.91 186.561 1204.94 189.551C1205.97 192.644 1221.32 208.934 1228.44 215.121C1235.55 221.204 1260.08 249.867 1267.29 262.136C1274.4 274.406 1282.65 283.582 1284.61 288.737C1286.56 293.893 1302.95 337.815 1302.95 337.815V288.634Z" fill="#1AC4F6"/>
<path d="M1302.95 131.915C1302.95 131.915 1315.42 106.86 1343.25 83.2495C1371.08 59.6384 1412.72 31.8001 1440.55 22.1083C1468.37 12.4164 1444.67 33.2436 1433.64 37.3678C1422.61 41.492 1369.74 69.3303 1358.61 84.5898C1347.48 99.8493 1312.74 120.78 1309.96 163.877L1302.95 131.915Z" fill="#1AC4F6"/>
<path d="M785.561 501.443C785.561 501.443 793.909 479.688 815.141 457.726C836.373 435.868 868.838 409.37 891.101 399.06C913.466 388.749 895.429 407.927 886.566 412.36C877.702 416.691 835.96 444.013 827.921 457.623C819.882 471.233 792.673 491.338 793.806 527.425L785.561 501.443Z" fill="#1AC4F6"/>
<path d="M581.594 995.418C588.911 988.819 617.976 912.006 620.243 843.854C622.511 775.702 561.908 476.801 561.29 385.037C560.568 293.274 581.697 1.28113 581.697 1.28113H599.733C599.733 1.28113 571.596 399.678 586.232 437.518C600.867 475.357 633.126 704.766 646.216 746.523C659.305 788.28 673.838 854.989 667.757 889.736C661.779 924.482 661.676 1016.25 661.676 1016.25L581.594 995.418Z" fill="#1AC4F6"/>
<path d="M1409.11 995.418C1412.72 988.819 1427.35 912.006 1428.49 843.854C1429.62 775.702 1399.32 476.801 1399.01 385.037C1398.7 293.274 1409.21 1.28113 1409.21 1.28113H1418.28C1418.28 1.28113 1404.16 399.678 1411.48 437.518C1418.8 475.357 1434.98 704.766 1441.47 746.523C1447.97 788.28 1455.28 854.989 1452.29 889.736C1449.31 924.482 1449.2 1016.25 1449.2 1016.25L1409.11 995.418Z" fill="#1AC4F6"/>
<path d="M869.766 985.005C865.128 979.128 838.124 905.717 825.86 838.699C813.595 771.681 794.631 443.601 779.892 353.075C765.257 262.446 707.025 1.28113 707.025 1.28113H698.058C698.058 1.28113 777.109 396.585 776.079 435.043C775.048 473.604 796.589 702.497 797.001 744.77C797.413 786.94 801.124 854.061 809.781 887.777C818.439 921.595 833.486 1012.12 833.486 1012.12L869.766 985.005Z" fill="#1AC4F6"/>
<path d="M576.852 434.631C576.852 434.631 589.942 433.084 601.794 432.156C613.647 431.228 612.822 412.36 639.929 400.916C667.035 389.574 700.222 393.904 724.855 380.707C749.488 367.51 749.488 348.435 744.438 344.826C739.387 341.218 739.078 365.86 713.209 371.531C687.339 377.098 637.867 382.872 624.572 396.585C611.276 410.298 594.168 421.743 561.496 407.411L576.852 434.631Z" fill="#1AC4F6"/>
<path d="M574.585 259.456C574.585 259.456 556.548 216.77 537.069 201.511C517.589 186.251 480.073 180.684 471.725 170.889C463.377 161.197 425.861 126.347 425.861 126.347V138.823C425.861 138.823 456.471 173.569 470.385 187.488C482.341 199.449 522.124 187.901 544.077 233.37C563.557 273.684 578.811 307.09 578.811 307.09L574.585 259.456Z" fill="#1AC4F6"/>
<path d="M790.405 469.893C790.405 469.893 784.324 190.375 788.55 126.347C792.775 62.3192 789.993 0.0438232 789.993 0.0438232H773.296C773.296 0.0438232 772.781 389.265 776.388 449.066L790.405 469.893Z" fill="#1AC4F6"/>
<path d="M1086 216.77C1086 216.77 1059.61 198.727 1051.26 200.067C1042.92 201.408 1080.43 215.327 1086 265.436V216.77Z" fill="#1AC4F6"/>
<path d="M1103.83 43.7603C1103.83 43.7603 1126.92 21.5928 1135.37 21.5928C1143.82 21.5928 1109.09 41.492 1111.76 91.7041L1103.83 43.7603Z" fill="#1AC4F6"/>
<path d="M1241.32 1024.7C1241.32 1024.7 1266.57 978.818 1288.73 975.313C1310.89 971.807 1352.63 969.539 1359.33 968.405C1366.03 967.27 1392.41 947.681 1393.55 940.566C1394.68 933.452 1370.05 954.382 1363.14 956.135C1356.24 957.888 1314.39 965.105 1304.29 963.043C1294.29 960.981 1295.94 928.503 1302.54 927.266C1309.14 926.028 1317.28 907.263 1317.28 907.263L1310.48 905.098C1310.48 905.098 1303.88 917.265 1296.56 925.41C1289.35 933.452 1292.23 963.765 1292.23 963.765C1292.23 963.765 1240.49 985.932 1230.29 1015.42C1220.09 1044.81 1241.32 1024.7 1241.32 1024.7Z" fill="#1AC4F6"/>
<path d="M630.447 962.321C630.447 962.321 662.603 973.354 667.344 987.067C672.085 1000.78 678.166 1027.28 679.712 1031.4C681.155 1035.53 696.615 1050.27 701.356 1050.17C705.994 1050.06 689.916 1036.66 688.061 1032.43C686.205 1028.21 676.826 1002.22 677.033 995.624C677.239 988.922 698.161 986.448 699.707 990.572C701.253 994.696 714.136 997.79 714.136 997.79L714.755 993.15C714.755 993.15 706.2 990.263 700.222 986.551C694.245 982.839 675.28 988.098 675.28 988.098C675.28 988.098 655.389 957.476 635.394 954.279C615.193 950.98 630.447 962.321 630.447 962.321Z" fill="#1AC4F6"/>
<path d="M450.597 934.38C450.597 934.38 472.859 960.156 469.973 974.385C467.087 988.613 459.048 1014.6 458.224 1018.93C457.399 1023.26 463.377 1043.77 467.396 1046.04C471.519 1048.31 464.304 1028.62 464.82 1023.98C465.335 1019.34 470.385 992.222 473.89 986.551C477.394 980.88 496.77 989.232 496.049 993.562C495.327 997.893 504.912 1007.07 504.912 1007.07L507.798 1003.36C507.798 1003.36 501.924 996.552 498.625 990.366C495.327 984.18 476.26 979.128 476.26 979.128C476.26 979.128 474.508 942.629 458.842 929.74C443.073 916.955 450.597 934.38 450.597 934.38Z" fill="#1AC4F6"/>
<path d="M1432.2 925.307C1432.2 925.307 1416.22 955.31 1401.9 957.785C1387.57 960.259 1360.46 962.218 1356.13 962.94C1351.81 963.765 1334.9 976.653 1334.18 981.293C1333.46 985.933 1349.33 972.116 1353.76 970.879C1358.2 969.745 1385.3 964.59 1391.9 965.827C1398.39 967.064 1397.67 988.201 1393.34 989.026C1389.12 989.851 1383.96 1002.12 1383.96 1002.12L1388.39 1003.46C1388.39 1003.46 1392.62 995.521 1397.26 990.16C1401.9 984.901 1399.63 965.208 1399.63 965.208C1399.63 965.208 1433.02 950.361 1439.31 931.081C1445.7 912.006 1432.2 925.307 1432.2 925.307Z" fill="#1AC4F6"/>
<path d="M1479.92 629.808C1479.92 629.808 1463.94 659.812 1449.62 662.286C1435.29 664.761 1408.18 666.72 1403.85 667.442C1399.52 668.266 1382.62 681.154 1381.9 685.794C1381.18 690.434 1397.05 676.618 1401.48 675.381C1405.92 674.246 1433.02 669.091 1439.62 670.328C1446.11 671.566 1445.39 692.702 1441.06 693.527C1436.83 694.352 1431.68 706.621 1431.68 706.621L1436.11 707.962C1436.11 707.962 1440.34 700.023 1444.98 694.661C1449.62 689.403 1447.35 669.71 1447.35 669.71C1447.35 669.71 1480.74 654.863 1487.03 635.582C1493.42 616.508 1479.92 629.808 1479.92 629.808Z" fill="#1AC4F6"/>
<path d="M595.095 998.202C595.095 998.202 580.872 967.374 587.468 954.382C594.167 941.494 609.009 918.708 610.967 914.79C612.925 910.872 612.822 889.529 609.627 886.23C606.329 882.931 607.875 903.861 606.02 908.088C604.268 912.316 592.003 937.061 587.056 941.494C582.109 945.928 565.824 932.524 567.679 928.606C569.535 924.688 562.938 913.14 562.938 913.14L559.228 915.924C559.228 915.924 563.041 924.07 564.484 930.978C565.927 937.886 582.83 947.99 582.83 947.99C582.83 947.99 574.482 983.561 586.025 1000.26C597.465 1017.07 595.095 998.202 595.095 998.202Z" fill="#1AC4F6"/>
<path d="M1511.45 996.759C1511.04 988.407 1507.74 955.001 1506.1 930.05C1504.45 904.995 1503.62 875.817 1502.38 850.762C1501.15 825.708 1496.2 423.908 1494.96 398.853C1493.73 373.799 1494.14 268.116 1494.96 232.03C1495.79 195.84 1497.44 183.364 1497.03 163.877C1496.61 144.391 1497.85 -0.0592651 1497.85 -0.0592651H1481.36C1481.36 -0.0592651 1476 405.143 1476 437.415C1476 469.687 1476.41 740.852 1476 771.371C1475.59 801.993 1472.7 911.8 1473.11 920.152C1473.53 928.503 1469.82 1021.61 1469.82 1021.61L1511.45 996.759Z" fill="#1AC4F6"/>
<path d="M1830.03 501.443C1830.03 501.443 1838.38 479.688 1859.61 457.726C1880.84 435.868 1913.31 409.37 1935.57 399.06C1957.94 388.749 1939.9 407.927 1931.04 412.36C1922.17 416.691 1880.43 444.013 1872.39 457.623C1864.35 471.233 1837.14 491.338 1838.28 527.425L1830.03 501.443Z" fill="#1AC4F6"/>
<path d="M1626.06 995.418C1633.38 988.819 1662.45 912.006 1664.71 843.854C1666.98 775.702 1606.38 476.801 1605.76 385.037C1605.04 293.274 1626.17 1.28113 1626.17 1.28113H1644.2C1644.2 1.28113 1616.07 399.678 1630.7 437.518C1645.34 475.357 1677.6 704.766 1690.69 746.523C1703.78 788.28 1718.31 854.989 1712.23 889.736C1706.25 924.482 1706.15 1016.25 1706.15 1016.25L1626.06 995.418Z" fill="#1AC4F6"/>
<path d="M1931.65 1012.12C1927.02 1006.24 1882.59 905.717 1870.33 838.596C1858.07 771.578 1839.1 443.498 1824.36 352.972C1809.73 262.343 1751.5 1.17804 1751.5 1.17804H1742.53C1742.53 1.17804 1821.58 396.482 1820.55 434.94C1819.52 473.501 1841.06 702.394 1841.47 744.667C1841.88 786.837 1845.59 853.958 1854.25 887.674C1862.91 921.492 1877.96 1012.02 1877.96 1012.02H1931.65V1012.12Z" fill="#1AC4F6"/>
<path d="M1621.32 434.631C1621.32 434.631 1634.41 433.084 1646.26 432.156C1658.12 431.228 1657.29 412.36 1684.4 400.916C1711.51 389.574 1744.69 393.904 1769.33 380.707C1793.96 367.51 1793.96 348.435 1788.91 344.826C1783.86 341.218 1783.55 365.86 1757.68 371.531C1731.81 377.098 1682.34 382.872 1669.04 396.585C1655.75 410.298 1638.64 421.743 1605.97 407.411L1621.32 434.631Z" fill="#1AC4F6"/>
<path d="M1619.06 259.456C1619.06 259.456 1601.02 216.77 1581.54 201.511C1562.06 186.251 1524.54 180.684 1516.2 170.889C1507.85 161.197 1470.33 126.347 1470.33 126.347V138.823C1470.33 138.823 1500.94 173.569 1514.86 187.488C1526.81 199.449 1566.59 187.901 1588.55 233.37C1608.03 273.684 1623.28 307.09 1623.28 307.09L1619.06 259.456Z" fill="#1AC4F6"/>
<path d="M1834.98 469.893C1834.98 469.893 1828.9 190.375 1833.12 126.347C1837.25 62.4223 1834.46 0.0438232 1834.46 0.0438232H1817.77C1817.77 0.0438232 1817.25 389.265 1820.86 449.066L1834.98 469.893Z" fill="#1AC4F6"/>
<path d="M1495.07 934.38C1495.07 934.38 1517.33 960.156 1514.44 974.385C1511.56 988.613 1503.52 1014.6 1502.69 1018.93C1501.87 1023.26 1507.85 1043.77 1511.87 1046.04C1515.99 1048.31 1508.77 1028.62 1509.29 1023.98C1509.81 1019.34 1514.86 992.222 1518.36 986.551C1521.86 980.88 1541.24 989.232 1540.52 993.562C1539.8 997.893 1549.38 1007.07 1549.38 1007.07L1552.27 1003.36C1552.27 1003.36 1546.39 996.552 1543.1 990.366C1539.8 984.18 1520.73 979.128 1520.73 979.128C1520.73 979.128 1518.98 942.629 1503.31 929.74C1487.65 916.955 1495.07 934.38 1495.07 934.38Z" fill="#1AC4F6"/>
<path d="M329.7 1113.58C329.7 1113.58 323.619 1087.08 320.527 1073.26C317.435 1059.34 313.622 998.099 303.006 953.557C292.287 909.016 297.647 744.77 291.566 643.109C285.485 541.447 270.231 391.121 270.231 329.979C270.231 268.735 277.858 0.0438232 277.858 0.0438232H260.337C260.337 0.0438232 255.802 203.263 253.431 243.577C251.164 283.891 248.072 407.824 253.431 459.273C258.791 510.825 271.777 740.44 268.685 858.804C265.593 977.065 281.671 1113.58 281.671 1113.58H329.7Z" fill="#1AC4F6"/>
<path d="M97.4926 996.758C96.7711 988.407 90.7933 955.001 87.8044 930.05C84.8155 904.995 83.3726 875.816 81.1051 850.762C78.8377 825.707 69.974 423.908 67.7065 398.853C65.4391 373.799 66.2636 268.116 67.7065 232.03C69.1495 195.84 72.1384 183.364 71.4169 163.877C70.7985 144.494 72.9629 0.0438232 72.9629 0.0438232H43.2799C43.2799 0.0438232 33.5917 405.246 33.5917 437.518C33.5917 469.79 34.3132 740.955 33.5917 771.474C32.8702 802.096 27.6139 911.903 28.4384 920.255C29.1599 928.606 22.4606 1021.71 22.4606 1021.71L97.4926 996.758Z" fill="#1AC4F6"/>
<path d="M260.131 288.634C254.874 274.406 254.978 277.396 240.754 259.043C226.428 240.691 229.52 247.805 208.082 226.359C186.645 204.913 184.583 200.789 175.411 191.613C166.238 182.436 156.034 178.312 151.912 183.467C147.789 188.623 161.084 186.561 162.115 189.551C163.146 192.644 178.503 208.934 185.614 215.121C192.726 221.204 217.255 249.867 224.47 262.136C231.582 274.406 239.827 283.582 241.785 288.737C243.743 293.893 260.131 337.815 260.131 337.815V288.634Z" fill="#1AC4F6"/>
<path d="M260.131 131.915C260.131 131.915 272.602 106.86 300.429 83.2495C328.257 59.6384 369.896 31.8001 397.724 22.1083C425.551 12.4164 401.846 33.2436 390.818 37.3678C379.79 41.492 326.917 69.3303 315.786 84.5898C304.655 99.8493 269.922 120.883 267.139 163.981L260.131 131.915Z" fill="#1AC4F6"/>
<path d="M43.2799 216.77C43.2799 216.77 16.895 198.727 8.54664 200.067C0.198297 201.408 37.7143 215.327 43.2799 265.436V216.77Z" fill="#1AC4F6"/>
<path d="M61.1104 43.7603C61.1104 43.7603 84.1971 21.5928 92.6485 21.5928C101.1 21.5928 66.3667 41.492 69.0464 91.7041L61.1104 43.7603Z" fill="#1AC4F6"/>
<path d="M198.6 1024.7C198.6 1024.7 223.851 978.818 246.01 975.313C268.17 971.807 309.911 969.539 316.611 968.405C323.31 967.27 349.695 947.681 350.829 940.566C351.962 933.452 327.329 954.382 320.424 956.135C313.519 957.888 271.674 965.105 261.573 963.043C251.576 960.981 253.225 928.503 259.821 927.266C266.418 926.028 274.56 907.263 274.56 907.263L267.757 905.098C267.757 905.098 261.161 917.265 253.843 925.41C246.629 933.452 249.515 963.765 249.515 963.765C249.515 963.765 197.776 985.932 187.572 1015.42C177.369 1044.81 198.6 1024.7 198.6 1024.7Z" fill="#1AC4F6"/>
<path d="M389.479 925.307C389.479 925.307 373.503 955.31 359.177 957.785C344.851 960.259 317.745 962.218 313.416 962.94C309.087 963.765 292.184 976.653 291.463 981.293C290.741 985.933 306.613 972.116 311.045 970.879C315.477 969.745 342.583 964.59 349.18 965.827C355.673 967.064 354.951 988.201 350.623 989.026C346.397 989.851 341.244 1002.12 341.244 1002.12L345.675 1003.46C345.675 1003.46 349.901 995.521 354.539 990.16C359.177 984.901 356.91 965.208 356.91 965.208C356.91 965.208 390.303 950.361 396.59 931.081C402.98 912.006 389.479 925.307 389.479 925.307Z" fill="#1AC4F6"/>
<path d="M1639.57 998.202C1639.57 998.202 1625.34 967.374 1631.94 954.382C1638.64 941.494 1653.48 918.708 1655.44 914.79C1657.4 910.872 1657.29 889.529 1654.1 886.23C1650.8 882.931 1652.35 903.861 1650.49 908.088C1648.74 912.316 1636.47 937.061 1631.53 941.494C1626.58 945.928 1610.29 932.524 1612.15 928.606C1614 924.688 1607.41 913.14 1607.41 913.14L1603.7 915.924C1603.7 915.924 1607.51 924.07 1608.95 930.978C1610.4 937.886 1627.3 947.99 1627.3 947.99C1627.3 947.99 1618.95 983.561 1630.5 1000.26C1641.94 1017.07 1639.57 998.202 1639.57 998.202Z" fill="#1AC4F6"/>
<path d="M1078.06 974.179C1078.06 974.179 1036.63 983.87 1022.51 972.426C1008.39 960.981 984.375 937.061 980.046 933.555C975.717 930.153 949.539 924.791 944.695 927.988C939.747 931.184 965.823 934.689 970.564 937.886C975.305 941.082 1002.51 962.425 1006.74 969.642C1010.97 976.859 990.456 993.459 986.024 990.16C981.695 986.86 965.926 992.119 965.926 992.119L968.4 997.377C968.4 997.377 979.325 994.799 988.188 994.799C996.949 994.799 1013.65 976.55 1013.65 976.55C1013.65 976.55 1055.08 995.727 1078.47 985.932C1101.77 976.138 1078.06 974.179 1078.06 974.179Z" fill="#1AC4F6"/>
<path d="M1917.22 992.428C1883.83 1000.68 1890.84 988.201 1874.14 990.881C1857.45 993.562 1842.19 994.799 1824.16 985.211C1806.12 975.622 1808.9 990.366 1797.77 985.108C1786.64 979.849 1774.17 993.768 1758.81 985.726C1743.56 977.581 1744.9 992.737 1732.43 987.685C1719.96 982.633 1672.65 981.808 1667.08 985.623C1661.52 989.438 1655.95 982.736 1646.26 985.004C1636.58 987.273 1637.92 983.767 1614.31 983.767C1590.71 983.767 1603.18 984.077 1586.49 982.736C1569.79 981.396 1572.57 986.242 1562.88 982.324C1553.2 978.303 1537.84 995.315 1528.15 992.016C1518.46 988.716 1508.67 997.686 1483.63 984.695C1458.58 971.498 1458.58 983.767 1436.42 982.942C1414.16 982.118 1436.42 982.942 1408.59 987.995C1380.77 993.15 1393.34 988.51 1383.55 987.376C1373.86 986.242 1364.07 987.582 1355.72 988.201C1347.37 988.819 1339.03 983.046 1325.11 987.273C1311.2 991.5 1312.64 985.726 1297.28 986.345C1282.03 986.86 1288.93 990.469 1268.12 993.459C1247.3 996.449 1260.49 991.809 1243.79 992.531C1227.1 993.15 1231.94 988.613 1220.09 984.489C1208.23 980.365 1219.47 991.603 1204.11 987.582C1188.86 983.561 1188.86 987.17 1179.07 984.077C1169.38 980.983 1162.37 984.386 1149.9 983.973C1137.43 983.561 1142.99 981.808 1131.86 983.355C1120.73 984.901 1131.86 983.355 1116.61 986.654C1101.35 990.057 1105.48 986.242 1105.48 986.242L1081.88 985.52L1058.27 986.242C1058.27 986.242 1062.4 989.954 1047.14 986.654C1031.89 983.355 1043.02 984.901 1031.89 983.355C1020.76 981.808 1026.32 983.561 1013.85 983.973C1001.38 984.386 994.372 981.087 984.684 984.077C974.996 987.17 974.996 983.458 959.639 987.582C944.385 991.603 955.62 980.365 943.664 984.489C931.811 988.613 936.656 993.15 919.959 992.531C903.262 991.913 916.455 996.552 895.635 993.459C874.816 990.469 881.721 986.86 866.468 986.345C851.214 985.829 852.554 991.5 838.64 987.273C824.726 983.046 816.378 988.819 808.029 988.201C799.681 987.582 789.993 986.242 780.201 987.376C770.513 988.51 782.984 993.15 755.156 987.995C727.329 982.942 749.591 982.118 727.329 982.942C705.066 983.767 705.066 971.498 680.124 984.695C655.079 997.686 645.391 988.716 635.6 992.016C625.912 995.212 610.555 978.303 600.867 982.324C591.178 986.242 593.961 981.396 577.265 982.736C560.568 984.077 573.142 983.767 549.437 983.767C525.835 983.767 527.174 987.17 517.486 985.004C507.798 982.839 502.233 989.541 496.667 985.623C491.101 981.808 443.897 982.633 431.323 987.685C418.852 992.737 420.192 977.581 404.938 985.726C389.685 993.768 377.111 979.952 365.979 985.108C354.848 990.263 357.631 975.519 339.594 985.211C321.558 994.696 306.201 993.562 289.607 990.881C272.911 988.201 279.919 1000.68 246.526 992.428C213.133 984.386 199.322 991.809 181.182 988.819C163.146 985.829 135.318 976.756 135.318 976.756C135.318 976.756 104.707 994.903 90.7933 991.706C76.8794 988.51 68.531 996.243 54.6171 993.047C40.7032 989.954 36.5806 997.377 26.7893 994.078C17.1011 990.778 15.6582 998.099 7.30987 994.799C-1.03847 991.5 -7.94389 995.315 -7.94389 995.315L-30 996.14V1113.58H1081.88H1948.97V988.613C1940.41 988.51 1930.31 989.335 1917.22 992.428Z" fill="#1AC4F6"/>
<rect opacity="0.7" x="-30" width="1980" height="1080" fill="black"/>
</g>
<defs>
<clipPath id="clip0_788_5577">
<rect width="1920" height="1080" fill="white"/>
</clipPath>
</defs>
</svg>
